<?xml version="1.0" encoding="utf-8"?>
<!-- Generator: Adobe Illustrator 25.2.1, SVG Export Plug-In . SVG Version: 6.00 Build 0)  -->
<svg version="1.1" id="Layer_1" xmlns="http://www.w3.org/2000/svg" xmlns:xlink="http://www.w3.org/1999/xlink" x="0px" y="0px"
	 viewBox="0 0 2160 1200" style="enable-background:new 0 0 2160 1200;" xml:space="preserve">
<style type="text/css">
	.st0{fill:none;}
	.st1{fill-opacity:0;}
	.st2{clip-path:url(#SVGID_4_);}
	.st3{fill:none;stroke:#EEEEEE;stroke-width:2;}
	.st4{fill:none;stroke:#EEEEEE;stroke-width:2;stroke-linecap:square;}
	.st5{font-family:'SourceSansPro-Regular';}
	.st6{font-size:26.0179px;}
	.st7{font-family:'SourceSansPro-Bold';}
	.st8{font-size:64.4138px;}
	.st9{font-size:53.0466px;}
	.st10{clip-path:url(#SVGID_8_);fill:#EEEEEE;}
	.st11{clip-path:url(#SVGID_12_);}
	.st12{fill:#0D5F02;}
	.st13{fill:#0ECB01;}
	.st14{fill:#0E00D6;}
	.st15{fill:#7CC56D;}
	.st16{fill:#FF0000;}
	.st17{fill:#5500FF;}
	.st18{fill:#703610;}
	.st19{fill:#6E6E6E;}
	.st20{clip-path:url(#SVGID_14_);}
	.st21{font-family:'SourceSansPro-Semibold';}
	.st22{font-size:47.3631px;}
	.st23{fill:none;stroke:#0D5F02;stroke-width:7.2;}
	.st24{fill:#FFFFFF;}
	.st25{fill:none;stroke:#0ECB01;stroke-width:7.2;}
	.st26{fill:none;stroke:#0E00D6;stroke-width:7.2;}
	.st27{fill:none;stroke:#7CC56D;stroke-width:7.2;}
	.st28{fill:none;stroke:#FF0000;stroke-width:7.2;}
	.st29{fill:none;stroke:#5500FF;stroke-width:7.2;}
	.st30{fill:none;stroke:#703610;stroke-width:7.2;}
	.st31{fill:none;stroke:#6E6E6E;stroke-width:7.2;}
</style>
<g>
	<g transform="translate(0,0)">
		<g>
			<g>
				<rect x="148.6" y="79" class="st0" width="1882.4" height="931.2"/>
				<rect x="148.6" y="79" class="st1" width="1882.4" height="931.2"/>
			</g>
			<g>
				<defs>
					<rect id="SVGID_1_" x="148.6" y="79" width="1882.4" height="931.2"/>
				</defs>
				<clipPath id="SVGID_2_">
					<use xlink:href="#SVGID_1_"  style="overflow:visible;"/>
				</clipPath>
			</g>
			<g>
				<defs>
					<rect id="SVGID_3_" x="145.9" y="75.1" width="1887.8" height="939.1"/>
				</defs>
				<clipPath id="SVGID_4_">
					<use xlink:href="#SVGID_3_"  style="overflow:visible;"/>
				</clipPath>
				<g class="st2">
					<g>
						<line class="st3" x1="148.6" y1="952" x2="2031" y2="952"/>
						<line class="st3" x1="148.6" y1="835.6" x2="2031" y2="835.6"/>
						<line class="st3" x1="148.6" y1="719.2" x2="2031" y2="719.2"/>
						<line class="st3" x1="148.6" y1="602.8" x2="2031" y2="602.8"/>
						<line class="st3" x1="148.6" y1="486.4" x2="2031" y2="486.4"/>
						<line class="st3" x1="148.6" y1="370" x2="2031" y2="370"/>
						<line class="st3" x1="148.6" y1="253.6" x2="2031" y2="253.6"/>
						<line class="st3" x1="148.6" y1="137.2" x2="2031" y2="137.2"/>
					</g>
				</g>
			</g>
			<g>
				<g>
					<g>
						<g>
							<line class="st4" x1="148.6" y1="1010.2" x2="2031" y2="1010.2"/>
						</g>
						<g>
							<g transform="translate(87.05658569335938,486.69524049948126)">
								<line class="st3" x1="61.5" y1="523.5" x2="61.5" y2="542.4"/>
								<text transform="matrix(0.5669 -0.8238 0.5669 0.8238 63.9184 576.7094)" class="st5 st6">0</text>
							</g>
							<g transform="translate(1077.2520751953125, 486.69525146484375)">
								<line class="st3" x1="415.9" y1="523.5" x2="415.9" y2="542.4"/>
								<text transform="matrix(0.5669 -0.8238 0.5669 0.8238 410.9745 587.3618)" class="st5 st6">20</text>
							</g>
							<g transform="translate(582.1543579101562, 486.69525146484375)">
								<line class="st3" x1="238.7" y1="523.5" x2="238.7" y2="542.4"/>
								<text transform="matrix(0.5669 -0.8238 0.5669 0.8238 233.7818 587.3616)" class="st5 st6">10</text>
							</g>
							<g transform="translate(483.1347961425781, 486.69525146484375)">
								<line class="st3" x1="203.3" y1="523.5" x2="203.3" y2="542.4"/>
								<text transform="matrix(0.5669 -0.8238 0.5669 0.8238 205.6719 576.7094)" class="st5 st6">8</text>
							</g>
							<g transform="translate(384.115234375, 486.69525146484375)">
								<line class="st3" x1="167.8" y1="523.5" x2="167.8" y2="542.4"/>
								<text transform="matrix(0.5669 -0.8238 0.5669 0.8238 170.2344 576.7097)" class="st5 st6">6</text>
							</g>
							<g transform="translate(285.095703125, 486.69525146484375)">
								<line class="st3" x1="132.4" y1="523.5" x2="132.4" y2="542.4"/>
								<text transform="matrix(0.5669 -0.8238 0.5669 0.8238 134.7964 576.7092)" class="st5 st6">4</text>
							</g>
							<g transform="translate(186.07614135742188, 486.69525146484375)">
								<line class="st3" x1="97" y1="523.5" x2="97" y2="542.4"/>
								<text transform="matrix(0.5669 -0.8238 0.5669 0.8238 99.3577 576.7097)" class="st5 st6">2</text>
							</g>
							<g transform="translate(1473.330322265625, 486.69525146484375)">
								<line class="st3" x1="557.7" y1="523.5" x2="557.7" y2="542.4"/>
								<text transform="matrix(0.5669 -0.8238 0.5669 0.8238 552.7278 587.3618)" class="st5 st6">28</text>
							</g>
							<g transform="translate(1374.310791015625, 486.69525146484375)">
								<line class="st3" x1="522.2" y1="523.5" x2="522.2" y2="542.4"/>
								<text transform="matrix(0.5669 -0.8238 0.5669 0.8238 517.2892 587.3622)" class="st5 st6">26</text>
							</g>
							<g transform="translate(1275.291259765625, 486.69525146484375)">
								<line class="st3" x1="486.8" y1="523.5" x2="486.8" y2="542.4"/>
								<text transform="matrix(0.5669 -0.8238 0.5669 0.8238 481.8511 587.3618)" class="st5 st6">24</text>
							</g>
							<g transform="translate(1176.271728515625, 486.69525146484375)">
								<line class="st3" x1="451.3" y1="523.5" x2="451.3" y2="542.4"/>
								<text transform="matrix(0.5669 -0.8238 0.5669 0.8238 446.4123 587.3624)" class="st5 st6">22</text>
							</g>
							<g transform="translate(978.2326049804688, 486.69525146484375)">
								<line class="st3" x1="380.5" y1="523.5" x2="380.5" y2="542.4"/>
								<text transform="matrix(0.5669 -0.8238 0.5669 0.8238 375.5356 587.3624)" class="st5 st6">18</text>
							</g>
							<g transform="translate(879.2130126953125, 486.69525146484375)">
								<line class="st3" x1="345" y1="523.5" x2="345" y2="542.4"/>
								<text transform="matrix(0.5669 -0.8238 0.5669 0.8238 340.0971 587.3628)" class="st5 st6">16</text>
							</g>
							<g transform="translate(780.1934814453125, 486.69525146484375)">
								<line class="st3" x1="309.6" y1="523.5" x2="309.6" y2="542.4"/>
								<text transform="matrix(0.5669 -0.8238 0.5669 0.8238 304.659 587.3624)" class="st5 st6">14</text>
							</g>
							<g transform="translate(681.1738891601562, 486.69525146484375)">
								<line class="st3" x1="274.1" y1="523.5" x2="274.1" y2="542.4"/>
								<text transform="matrix(0.5669 -0.8238 0.5669 0.8238 269.2203 587.3629)" class="st5 st6">12</text>
							</g>
						</g>
						<g>
							<text transform="matrix(0.6881 0 0 1 839.9385 1158.415)" class="st7 st8">% of First Preference Vote</text>
						</g>
					</g>
				</g>
				<g>
					<g>
						<g>
							<line class="st4" x1="148.6" y1="835.6" x2="148.6" y2="952"/>
						</g>
						<g>
							<g transform="translate(87.05658721923828, 457.2049255371094)">
								<line class="st3" x1="61.5" y1="494.8" x2="48.5" y2="494.8"/>
								<text transform="matrix(0.6881 0 0 1 -16.4755 512.2882)" class="st7 st9">IND</text>
							</g>
							<g transform="translate(87.05658721923828, 398.2242431640625)">
								<line class="st3" x1="61.5" y1="437.4" x2="48.5" y2="437.4"/>
								<text transform="matrix(0.6881 0 0 1 -56.6972 454.8734)" class="st7 st9">S-PBP</text>
							</g>
							<g transform="translate(87.05658721923828, 339.24359130859375)">
								<line class="st3" x1="61.5" y1="380" x2="48.5" y2="380"/>
								<text transform="matrix(0.6881 0 0 1 -1.5107 397.4586)" class="st7 st9">SD</text>
							</g>
							<g transform="translate(87.05658721923828, 280.262939453125)">
								<line class="st3" x1="61.5" y1="322.5" x2="48.5" y2="322.5"/>
								<text transform="matrix(0.6881 0 0 1 -19.724 340.0427)" class="st7 st9">LAB</text>
							</g>
							<g transform="translate(87.05658721923828, 221.28228759765625)">
								<line class="st3" x1="61.5" y1="265.1" x2="48.5" y2="265.1"/>
								<text transform="matrix(0.6881 0 0 1 -3.0795 282.6279)" class="st7 st9">GP</text>
							</g>
							<g transform="translate(87.05658721923828, 162.3016357421875)">
								<line class="st3" x1="61.5" y1="207.7" x2="48.5" y2="207.7"/>
								<text transform="matrix(0.6881 0 0 1 -8.684137e-02 225.212)" class="st7 st9">FG</text>
							</g>
							<g transform="translate(87.05658721923828, 103.32098388671875)">
								<line class="st3" x1="61.5" y1="150.3" x2="48.5" y2="150.3"/>
								<text transform="matrix(0.6881 0 0 1 3.7095 167.7962)" class="st7 st9">FF</text>
							</g>
							<g transform="translate(87.05658721923828, 44.340328216552734)">
								<line class="st3" x1="61.5" y1="92.9" x2="48.5" y2="92.9"/>
								<text transform="matrix(0.6881 0 0 1 2.5416 110.3814)" class="st7 st9">SF</text>
							</g>
						</g>
					</g>
				</g>
			</g>
			<g>
				<defs>
					<rect id="SVGID_5_" x="148.6" y="79" width="1882.4" height="931.2"/>
				</defs>
				<clipPath id="SVGID_6_">
					<use xlink:href="#SVGID_5_"  style="overflow:visible;"/>
				</clipPath>
			</g>
		</g>
		<g transform="translate(0, 0)">
			<g>
				<defs>
					<rect id="SVGID_7_" x="10.8" y="21.3" width="2039.7" height="1131"/>
				</defs>
				<clipPath id="SVGID_8_">
					<use xlink:href="#SVGID_7_"  style="overflow:visible;"/>
				</clipPath>
				<polygon class="st10" points="148.6,49.7 148.6,49.7 148.6,49.7 				"/>
			</g>
			<g>
				<defs>
					<rect id="SVGID_9_" x="10.8" y="21.3" width="2039.7" height="1131"/>
				</defs>
				<clipPath id="SVGID_10_">
					<use xlink:href="#SVGID_9_"  style="overflow:visible;"/>
				</clipPath>
			</g>
		</g>
	</g>
</g>
<g id="data-points">
	<g>
		<defs>
			<rect id="SVGID_11_" x="60.1" y="34.5" width="2039.7" height="1131"/>
		</defs>
		<clipPath id="SVGID_12_">
			<use xlink:href="#SVGID_11_"  style="overflow:visible;"/>
		</clipPath>
		<g transform="translate(0,0)" class="st11">
			<path id="point-0-0" class="st12" d="M197.9,92.8h1080.4V208H197.9V92.8z"/>
			<path id="point-0-1" class="st13" d="M197.9,209.2h929.8v115.2H197.9V209.2z"/>
			<path id="point-0-2" class="st14" d="M197.9,325.6h1862.9v115.2H197.9V325.6z"/>
			<path id="point-0-3" class="st15" d="M197.9,442h1509.3v115.2H197.9V442z"/>
			<path id="point-0-4" class="st16" d="M197.9,558.4h529.8v115.2H197.9V558.4z"/>
			<path id="point-0-5" class="st17" d="M197.9,674.8h305.9V790H197.9V674.8z"/>
			<path id="point-0-6" class="st18" d="M197.9,791.2H368v115.2H197.9V791.2z"/>
			<path id="point-0-7" class="st19" d="M197.9,907.6h334.8v115.2H197.9V907.6z"/>
		</g>
	</g>
</g>
<g id="data-point-labels">
	<g>
		<defs>
			<rect id="SVGID_13_" x="60.1" y="34.5" width="2039.7" height="1131"/>
		</defs>
		<clipPath id="SVGID_14_">
			<use xlink:href="#SVGID_13_"  style="overflow:visible;"/>
		</clipPath>
		<g transform="translate(0,0)" class="st20">
			<g transform="translate(847.7255859375, 52.26032638549805)" pointer-events="none">
				<text transform="matrix(0.6881 0 0 1 345.1664 113.789)" class="st21 st22">16.07</text>
				<text transform="matrix(0.6881 0 0 1 345.1664 113.789)" class="st23 st21 st22">16.07</text>
				<text transform="matrix(0.6881 0 0 1 345.1664 113.789)" class="st24 st21 st22">16.07</text>
			</g>
			<g transform="translate(736.8236694335938, 111.24098205566406)" pointer-events="none">
				<text transform="matrix(0.6881 0 0 1 305.4751 171.2048)" class="st21 st22">13.83</text>
				<text transform="matrix(0.6881 0 0 1 305.4751 171.2048)" class="st25 st21 st22">13.83</text>
				<text transform="matrix(0.6881 0 0 1 305.4751 171.2048)" class="st24 st21 st22">13.83</text>
			</g>
			<g transform="translate(1424.0194091796875, 170.2216339111328)" pointer-events="none">
				<text transform="matrix(0.6881 0 0 1 551.4185 228.6197)" class="st21 st22">27.71</text>
				<text transform="matrix(0.6881 0 0 1 551.4185 228.6197)" class="st26 st21 st22">27.71</text>
				<text transform="matrix(0.6881 0 0 1 551.4185 228.6197)" class="st24 st21 st22">27.71</text>
			</g>
			<g transform="translate(1163.597900390625, 229.20228576660156)" pointer-events="none">
				<text transform="matrix(0.6881 0 0 1 458.2151 286.0355)" class="st21 st22">22.45</text>
				<text transform="matrix(0.6881 0 0 1 458.2151 286.0355)" class="st27 st21 st22">22.45</text>
				<text transform="matrix(0.6881 0 0 1 458.2151 286.0355)" class="st24 st21 st22">22.45</text>
			</g>
			<g transform="translate(448.5842590332031, 288.1829528808594)" pointer-events="none">
				<text transform="matrix(0.6881 0 0 1 210.6755 343.4503)" class="st21 st22">7.88</text>
				<text transform="matrix(0.6881 0 0 1 210.6755 343.4503)" class="st28 st21 st22">7.88</text>
				<text transform="matrix(0.6881 0 0 1 210.6755 343.4503)" class="st24 st21 st22">7.88</text>
			</g>
			<g transform="translate(283.7167053222656, 347.1636047363281)" pointer-events="none">
				<text transform="matrix(0.6881 0 0 1 151.67 400.8662)" class="st21 st22">4.55</text>
				<text transform="matrix(0.6881 0 0 1 151.67 400.8662)" class="st29 st21 st22">4.55</text>
				<text transform="matrix(0.6881 0 0 1 151.67 400.8662)" class="st24 st21 st22">4.55</text>
			</g>
			<g transform="translate(183.70693969726562, 406.1442565917969)" pointer-events="none">
				<text transform="matrix(0.6881 0 0 1 115.877 458.282)" class="st21 st22">2.53</text>
				<text transform="matrix(0.6881 0 0 1 115.877 458.282)" class="st30 st21 st22">2.53</text>
				<text transform="matrix(0.6881 0 0 1 115.877 458.282)" class="st24 st21 st22">2.53</text>
			</g>
			<g transform="translate(305.0058898925781, 465.1249084472656)" pointer-events="none">
				<text transform="matrix(0.6881 0 0 1 159.29 515.6979)" class="st21 st22">4.98</text>
				<text transform="matrix(0.6881 0 0 1 159.29 515.6979)" class="st31 st21 st22">4.98</text>
				<text transform="matrix(0.6881 0 0 1 159.29 515.6979)" class="st24 st21 st22">4.98</text>
			</g>
		</g>
	</g>
</g>
<g>
	<g transform="translate(0, 0)">
	</g>
</g>
</svg>
