<?xml version="1.0" encoding="utf-8"?>
<!-- Generator: Adobe Illustrator 25.2.1, SVG Export Plug-In . SVG Version: 6.00 Build 0)  -->
<svg version="1.1" id="Layer_1" xmlns="http://www.w3.org/2000/svg" xmlns:xlink="http://www.w3.org/1999/xlink" x="0px" y="0px"
	 viewBox="0 0 2160 1200" style="enable-background:new 0 0 2160 1200;" xml:space="preserve">
<style type="text/css">
	.st0{fill:none;}
	.st1{fill-opacity:0;}
	.st2{clip-path:url(#SVGID_4_);}
	.st3{fill:none;stroke:#EEEEEE;stroke-width:2;}
	.st4{fill:none;stroke:#EEEEEE;stroke-width:2;stroke-linecap:square;}
	.st5{font-family:'SourceSansPro-Regular';}
	.st6{font-size:25.7751px;}
	.st7{font-family:'SourceSansPro-Bold';}
	.st8{font-size:64.7248px;}
	.st9{font-size:53.3027px;}
	.st10{clip-path:url(#SVGID_8_);fill:#EEEEEE;}
	.st11{clip-path:url(#SVGID_12_);}
	.st12{fill:#0D5F02;}
	.st13{fill:#0ECB01;}
	.st14{fill:#0E00D6;}
	.st15{fill:#7CC56D;}
	.st16{fill:#FF0000;}
	.st17{fill:#5500FF;}
	.st18{fill:#703610;}
	.st19{fill:#6E6E6E;}
	.st20{clip-path:url(#SVGID_14_);}
	.st21{font-family:'SourceSansPro-Semibold';}
	.st22{font-size:47.5917px;}
	.st23{fill:none;stroke:#0D5F02;stroke-width:7.2;}
	.st24{fill:#FFFFFF;}
	.st25{fill:none;stroke:#0ECB01;stroke-width:7.2;}
	.st26{fill:none;stroke:#0E00D6;stroke-width:7.2;}
	.st27{fill:none;stroke:#7CC56D;stroke-width:7.2;}
	.st28{fill:none;stroke:#FF0000;stroke-width:7.2;}
	.st29{fill:none;stroke:#5500FF;stroke-width:7.2;}
	.st30{fill:none;stroke:#703610;stroke-width:7.2;}
	.st31{fill:none;stroke:#6E6E6E;stroke-width:7.2;}
</style>
<g>
	<g transform="translate(0,0)">
		<g>
			<g>
				<rect x="185.8" y="76.5" class="st0" width="1807.2" height="935.7"/>
				<rect x="185.8" y="76.5" class="st1" width="1807.2" height="935.7"/>
			</g>
			<g>
				<defs>
					<rect id="SVGID_1_" x="185.8" y="76.5" width="1807.2" height="935.7"/>
				</defs>
				<clipPath id="SVGID_2_">
					<use xlink:href="#SVGID_1_"  style="overflow:visible;"/>
				</clipPath>
			</g>
			<g>
				<defs>
					<rect id="SVGID_3_" x="183.2" y="72.5" width="1812.5" height="943.6"/>
				</defs>
				<clipPath id="SVGID_4_">
					<use xlink:href="#SVGID_3_"  style="overflow:visible;"/>
				</clipPath>
				<g class="st2">
					<g>
						<line class="st3" x1="185.8" y1="953.7" x2="1993" y2="953.7"/>
						<line class="st3" x1="185.8" y1="836.7" x2="1993" y2="836.7"/>
						<line class="st3" x1="185.8" y1="719.8" x2="1993" y2="719.8"/>
						<line class="st3" x1="185.8" y1="602.8" x2="1993" y2="602.8"/>
						<line class="st3" x1="185.8" y1="485.9" x2="1993" y2="485.9"/>
						<line class="st3" x1="185.8" y1="368.9" x2="1993" y2="368.9"/>
						<line class="st3" x1="185.8" y1="251.9" x2="1993" y2="251.9"/>
						<line class="st3" x1="185.8" y1="135" x2="1993" y2="135"/>
					</g>
				</g>
			</g>
			<g>
				<g>
					<g>
						<g>
							<line class="st4" x1="185.8" y1="1012.2" x2="1993" y2="1012.2"/>
						</g>
						<g>
							<g transform="translate(87.05658569335938,486.69524049948126)">
								<line class="st3" x1="98.7" y1="525.5" x2="98.7" y2="544.5"/>
								<text transform="matrix(0.5493 -0.8356 0.5493 0.8356 101.0165 578.9443)" class="st5 st6">0</text>
							</g>
							<g transform="translate(1077.2520751953125, 486.69525146484375)">
								<line class="st3" x1="399.4" y1="525.5" x2="399.4" y2="544.5"/>
								<text transform="matrix(0.5493 -0.8356 0.5493 0.8356 394.6714 589.6484)" class="st5 st6">20</text>
							</g>
							<g transform="translate(582.1543579101562, 486.69525146484375)">
								<line class="st3" x1="249.1" y1="525.5" x2="249.1" y2="544.5"/>
								<text transform="matrix(0.5493 -0.8356 0.5493 0.8356 244.3247 589.6478)" class="st5 st6">10</text>
							</g>
							<g transform="translate(483.1347961425781, 486.69525146484375)">
								<line class="st3" x1="219" y1="525.5" x2="219" y2="544.5"/>
								<text transform="matrix(0.5493 -0.8356 0.5493 0.8356 221.2932 578.9439)" class="st5 st6">8</text>
							</g>
							<g transform="translate(384.115234375, 486.69525146484375)">
								<line class="st3" x1="188.9" y1="525.5" x2="188.9" y2="544.5"/>
								<text transform="matrix(0.5493 -0.8356 0.5493 0.8356 191.2243 578.9443)" class="st5 st6">6</text>
							</g>
							<g transform="translate(285.095703125, 486.69525146484375)">
								<line class="st3" x1="158.8" y1="525.5" x2="158.8" y2="544.5"/>
								<text transform="matrix(0.5493 -0.8356 0.5493 0.8356 161.1553 578.9449)" class="st5 st6">4</text>
							</g>
							<g transform="translate(186.07614135742188, 486.69525146484375)">
								<line class="st3" x1="128.8" y1="525.5" x2="128.8" y2="544.5"/>
								<text transform="matrix(0.5493 -0.8356 0.5493 0.8356 131.086 578.9445)" class="st5 st6">2</text>
							</g>
							<g transform="translate(1473.330322265625, 486.69525146484375)">
								<line class="st3" x1="519.7" y1="525.5" x2="519.7" y2="544.5"/>
								<text transform="matrix(0.5493 -0.8356 0.5493 0.8356 514.9474 589.6488)" class="st5 st6">28</text>
							</g>
							<g transform="translate(1374.310791015625, 486.69525146484375)">
								<line class="st3" x1="489.6" y1="525.5" x2="489.6" y2="544.5"/>
								<text transform="matrix(0.5493 -0.8356 0.5493 0.8356 484.8785 589.6478)" class="st5 st6">26</text>
							</g>
							<g transform="translate(1275.291259765625, 486.69525146484375)">
								<line class="st3" x1="459.5" y1="525.5" x2="459.5" y2="544.5"/>
								<text transform="matrix(0.5493 -0.8356 0.5493 0.8356 454.8092 589.6472)" class="st5 st6">24</text>
							</g>
							<g transform="translate(1176.271728515625, 486.69525146484375)">
								<line class="st3" x1="429.5" y1="525.5" x2="429.5" y2="544.5"/>
								<text transform="matrix(0.5493 -0.8356 0.5493 0.8356 424.7403 589.6478)" class="st5 st6">22</text>
							</g>
							<g transform="translate(978.2326049804688, 486.69525146484375)">
								<line class="st3" x1="369.3" y1="525.5" x2="369.3" y2="544.5"/>
								<text transform="matrix(0.5493 -0.8356 0.5493 0.8356 364.6013 589.6473)" class="st5 st6">18</text>
							</g>
							<g transform="translate(879.2130126953125, 486.69525146484375)">
								<line class="st3" x1="339.3" y1="525.5" x2="339.3" y2="544.5"/>
								<text transform="matrix(0.5493 -0.8356 0.5493 0.8356 334.5325 589.6478)" class="st5 st6">16</text>
							</g>
							<g transform="translate(780.1934814453125, 486.69525146484375)">
								<line class="st3" x1="309.2" y1="525.5" x2="309.2" y2="544.5"/>
								<text transform="matrix(0.5493 -0.8356 0.5493 0.8356 304.463 589.6475)" class="st5 st6">14</text>
							</g>
							<g transform="translate(681.1738891601562, 486.69525146484375)">
								<line class="st3" x1="279.1" y1="525.5" x2="279.1" y2="544.5"/>
								<text transform="matrix(0.5493 -0.8356 0.5493 0.8356 274.3937 589.6472)" class="st5 st6">12</text>
							</g>
						</g>
						<g>
							<text transform="matrix(0.6574 0 0 1 849.5244 1161.1117)" class="st7 st8">% of First Preference Vote</text>
						</g>
					</g>
				</g>
				<g>
					<g>
						<g>
							<line class="st4" x1="185.8" y1="836.7" x2="185.8" y2="953.7"/>
						</g>
						<g>
							<g transform="translate(87.05658721923828, 457.2049255371094)">
								<line class="st3" x1="98.7" y1="496.5" x2="86.2" y2="496.5"/>
								<text transform="matrix(0.6574 0 0 1 23.8326 514.0728)" class="st7 st9">IND</text>
							</g>
							<g transform="translate(87.05658721923828, 398.2242431640625)">
								<line class="st3" x1="98.7" y1="438.5" x2="86.2" y2="438.5"/>
								<text transform="matrix(0.6574 0 0 1 -14.7827 456.0944)" class="st7 st9">S-PBP</text>
							</g>
							<g transform="translate(87.05658721923828, 339.24359130859375)">
								<line class="st3" x1="98.7" y1="380.5" x2="86.2" y2="380.5"/>
								<text transform="matrix(0.6574 0 0 1 38.2012 398.1171)" class="st7 st9">SD</text>
							</g>
							<g transform="translate(87.05658721923828, 280.262939453125)">
								<line class="st3" x1="98.7" y1="322.5" x2="86.2" y2="322.5"/>
								<text transform="matrix(0.6574 0 0 1 20.7139 340.1407)" class="st7 st9">LAB</text>
							</g>
							<g transform="translate(87.05658721923828, 221.28228759765625)">
								<line class="st3" x1="98.7" y1="264.6" x2="86.2" y2="264.6"/>
								<text transform="matrix(0.6574 0 0 1 36.6944 282.1633)" class="st7 st9">GP</text>
							</g>
							<g transform="translate(87.05658721923828, 162.3016357421875)">
								<line class="st3" x1="98.7" y1="206.6" x2="86.2" y2="206.6"/>
								<text transform="matrix(0.6574 0 0 1 39.5674 224.184)" class="st7 st9">FG</text>
							</g>
							<g transform="translate(87.05658721923828, 103.32098388671875)">
								<line class="st3" x1="98.7" y1="148.6" x2="86.2" y2="148.6"/>
								<text transform="matrix(0.6574 0 0 1 43.2124 166.2067)" class="st7 st9">FF</text>
							</g>
							<g transform="translate(87.05658721923828, 44.340328216552734)">
								<line class="st3" x1="98.7" y1="90.6" x2="86.2" y2="90.6"/>
								<text transform="matrix(0.6574 0 0 1 42.0904 108.2298)" class="st7 st9">SF</text>
							</g>
						</g>
					</g>
				</g>
			</g>
			<g>
				<defs>
					<rect id="SVGID_5_" x="185.8" y="76.5" width="1807.2" height="935.7"/>
				</defs>
				<clipPath id="SVGID_6_">
					<use xlink:href="#SVGID_5_"  style="overflow:visible;"/>
				</clipPath>
			</g>
		</g>
		<g transform="translate(0, 0)">
			<g>
				<defs>
					<rect id="SVGID_7_" x="53.5" y="18.5" width="1958.3" height="1136.5"/>
				</defs>
				<clipPath id="SVGID_8_">
					<use xlink:href="#SVGID_7_"  style="overflow:visible;"/>
				</clipPath>
				<polygon class="st10" points="185.8,47.1 185.8,47.1 185.8,47.1 				"/>
			</g>
			<g>
				<defs>
					<rect id="SVGID_9_" x="53.5" y="18.5" width="1958.3" height="1136.5"/>
				</defs>
				<clipPath id="SVGID_10_">
					<use xlink:href="#SVGID_9_"  style="overflow:visible;"/>
				</clipPath>
			</g>
		</g>
	</g>
</g>
<g id="data-points">
	<g>
		<defs>
			<rect id="SVGID_11_" x="100.9" y="31.8" width="1958.3" height="1136.5"/>
		</defs>
		<clipPath id="SVGID_12_">
			<use xlink:href="#SVGID_11_"  style="overflow:visible;"/>
		</clipPath>
		<g transform="translate(0,0)" class="st11">
			<path id="point-0-0" class="st12" d="M233.1,90.4h1037.2v115.8H233.1V90.4z"/>
			<path id="point-0-1" class="st13" d="M233.1,207.3h892.6v115.8H233.1V207.3z"/>
			<path id="point-0-2" class="st14" d="M233.1,324.3h1788.5v115.8H233.1V324.3z"/>
			<path id="point-0-3" class="st15" d="M233.1,441.2h1449V557h-1449V441.2z"/>
			<path id="point-0-4" class="st16" d="M233.1,558.2h508.6V674H233.1V558.2z"/>
			<path id="point-0-5" class="st17" d="M233.1,675.1h293.7v115.8H233.1V675.1z"/>
			<path id="point-0-6" class="st18" d="M233.1,792.1h163.3v115.8H233.1V792.1z"/>
			<path id="point-0-7" class="st19" d="M233.1,909.1h321.4v115.8H233.1V909.1z"/>
		</g>
	</g>
</g>
<g id="data-point-labels">
	<g>
		<defs>
			<rect id="SVGID_13_" x="100.9" y="31.8" width="1958.3" height="1136.5"/>
		</defs>
		<clipPath id="SVGID_14_">
			<use xlink:href="#SVGID_13_"  style="overflow:visible;"/>
		</clipPath>
		<g transform="translate(0,0)" class="st20">
			<g transform="translate(847.7255859375, 52.26032638549805)" pointer-events="none">
				<text transform="matrix(0.6574 0 0 1 340.657 111.6949)" class="st21 st22">16.07</text>
				<text transform="matrix(0.6574 0 0 1 340.657 111.6949)" class="st23 st21 st22">16.07</text>
				<text transform="matrix(0.6574 0 0 1 340.657 111.6949)" class="st24 st21 st22">16.07</text>
			</g>
			<g transform="translate(736.8236694335938, 111.24098205566406)" pointer-events="none">
				<text transform="matrix(0.6574 0 0 1 306.9798 169.6718)" class="st21 st22">13.83</text>
				<text transform="matrix(0.6574 0 0 1 306.9798 169.6718)" class="st25 st21 st22">13.83</text>
				<text transform="matrix(0.6574 0 0 1 306.9798 169.6718)" class="st24 st21 st22">13.83</text>
			</g>
			<g transform="translate(1424.0194091796875, 170.2216339111328)" pointer-events="none">
				<text transform="matrix(0.6574 0 0 1 515.661 227.6482)" class="st21 st22">27.71</text>
				<text transform="matrix(0.6574 0 0 1 515.661 227.6482)" class="st26 st21 st22">27.71</text>
				<text transform="matrix(0.6574 0 0 1 515.661 227.6482)" class="st24 st21 st22">27.71</text>
			</g>
			<g transform="translate(1163.597900390625, 229.20228576660156)" pointer-events="none">
				<text transform="matrix(0.6574 0 0 1 436.5786 285.6255)" class="st21 st22">22.45</text>
				<text transform="matrix(0.6574 0 0 1 436.5786 285.6255)" class="st27 st21 st22">22.45</text>
				<text transform="matrix(0.6574 0 0 1 436.5786 285.6255)" class="st24 st21 st22">22.45</text>
			</g>
			<g transform="translate(448.5842590332031, 288.1829528808594)" pointer-events="none">
				<text transform="matrix(0.6574 0 0 1 227.4756 343.6039)" class="st21 st22">7.88</text>
				<text transform="matrix(0.6574 0 0 1 227.4756 343.6039)" class="st28 st21 st22">7.88</text>
				<text transform="matrix(0.6574 0 0 1 227.4756 343.6039)" class="st24 st21 st22">7.88</text>
			</g>
			<g transform="translate(283.7167053222656, 347.1636047363281)" pointer-events="none">
				<text transform="matrix(0.6574 0 0 1 177.4105 401.5822)" class="st21 st22">4.55</text>
				<text transform="matrix(0.6574 0 0 1 177.4105 401.5822)" class="st29 st21 st22">4.55</text>
				<text transform="matrix(0.6574 0 0 1 177.4105 401.5822)" class="st24 st21 st22">4.55</text>
			</g>
			<g transform="translate(183.70693969726562, 406.1442565917969)" pointer-events="none">
				<text transform="matrix(0.6574 0 0 1 147.0413 459.5586)" class="st21 st22">2.53</text>
				<text transform="matrix(0.6574 0 0 1 147.0413 459.5586)" class="st30 st21 st22">2.53</text>
				<text transform="matrix(0.6574 0 0 1 147.0413 459.5586)" class="st24 st21 st22">2.53</text>
			</g>
			<g transform="translate(305.0058898925781, 465.1249084472656)" pointer-events="none">
				<text transform="matrix(0.6574 0 0 1 183.8757 517.5379)" class="st21 st22">4.98</text>
				<text transform="matrix(0.6574 0 0 1 183.8757 517.5379)" class="st31 st21 st22">4.98</text>
				<text transform="matrix(0.6574 0 0 1 183.8757 517.5379)" class="st24 st21 st22">4.98</text>
			</g>
		</g>
	</g>
</g>
<g>
	<g transform="translate(0, 0)">
	</g>
</g>
</svg>
