<?xml version="1.0" encoding="utf-8"?>
<!-- Generator: Adobe Illustrator 25.2.1, SVG Export Plug-In . SVG Version: 6.00 Build 0)  -->
<svg version="1.1" id="Layer_1" xmlns="http://www.w3.org/2000/svg" xmlns:xlink="http://www.w3.org/1999/xlink" x="0px" y="0px"
	 viewBox="0 0 2160 1200" style="enable-background:new 0 0 2160 1200;" xml:space="preserve">
<style type="text/css">
	.st0{fill:none;}
	.st1{fill-opacity:0;}
	.st2{clip-path:url(#SVGID_4_);}
	.st3{fill:none;stroke:#EEEEEE;stroke-width:2;}
	.st4{fill:none;stroke:#EEEEEE;stroke-width:2;stroke-linecap:square;}
	.st5{font-family:'SourceSansPro-Regular';}
	.st6{font-size:26.1845px;}
	.st7{font-family:'SourceSansPro-Bold';}
	.st8{font-size:65.601px;}
	.st9{font-size:54.0244px;}
	.st10{clip-path:url(#SVGID_8_);fill:#EEEEEE;}
	.st11{clip-path:url(#SVGID_12_);}
	.st12{fill:#0D5F02;}
	.st13{fill:#0ECB01;}
	.st14{fill:#0E00D6;}
	.st15{fill:#7CC56D;}
	.st16{fill:#FF0000;}
	.st17{fill:#5500FF;}
	.st18{fill:#703610;}
	.st19{fill:#FF6F00;}
	.st20{fill:#6E6E6E;}
	.st21{clip-path:url(#SVGID_14_);}
	.st22{font-family:'SourceSansPro-Semibold';}
	.st23{font-size:48.2361px;}
	.st24{fill:none;stroke:#0D5F02;stroke-width:7.2;}
	.st25{fill:#FFFFFF;}
	.st26{fill:none;stroke:#0ECB01;stroke-width:7.2;}
	.st27{fill:none;stroke:#0E00D6;stroke-width:7.2;}
	.st28{fill:none;stroke:#7CC56D;stroke-width:7.2;}
	.st29{fill:none;stroke:#FF0000;stroke-width:7.2;}
	.st30{fill:none;stroke:#5500FF;stroke-width:7.2;}
	.st31{fill:none;stroke:#703610;stroke-width:7.2;}
	.st32{fill:none;stroke:#FF6F00;stroke-width:7.2;}
	.st33{fill:none;stroke:#6E6E6E;stroke-width:7.2;}
</style>
<g>
	<g transform="translate(0,0)">
		<g>
			<g>
				<rect x="166.7" y="69.4" class="st0" width="1845.7" height="948.3"/>
				<rect x="166.7" y="69.4" class="st1" width="1845.7" height="948.3"/>
			</g>
			<g>
				<defs>
					<rect id="SVGID_1_" x="166.7" y="69.4" width="1845.7" height="948.3"/>
				</defs>
				<clipPath id="SVGID_2_">
					<use xlink:href="#SVGID_1_"  style="overflow:visible;"/>
				</clipPath>
			</g>
			<g>
				<defs>
					<rect id="SVGID_3_" x="164.1" y="65.4" width="1851.1" height="956.4"/>
				</defs>
				<clipPath id="SVGID_4_">
					<use xlink:href="#SVGID_3_"  style="overflow:visible;"/>
				</clipPath>
				<g class="st2">
					<g>
						<line class="st3" x1="166.7" y1="965.1" x2="2012.5" y2="965.1"/>
						<line class="st3" x1="166.7" y1="859.7" x2="2012.5" y2="859.7"/>
						<line class="st3" x1="166.7" y1="754.3" x2="2012.5" y2="754.3"/>
						<line class="st3" x1="166.7" y1="649" x2="2012.5" y2="649"/>
						<line class="st3" x1="166.7" y1="543.6" x2="2012.5" y2="543.6"/>
						<line class="st3" x1="166.7" y1="438.2" x2="2012.5" y2="438.2"/>
						<line class="st3" x1="166.7" y1="332.8" x2="2012.5" y2="332.8"/>
						<line class="st3" x1="166.7" y1="227.5" x2="2012.5" y2="227.5"/>
						<line class="st3" x1="166.7" y1="122.1" x2="2012.5" y2="122.1"/>
					</g>
				</g>
			</g>
			<g>
				<g>
					<g>
						<g>
							<line class="st4" x1="166.7" y1="1017.7" x2="2012.5" y2="1017.7"/>
						</g>
						<g>
							<g transform="translate(87.05658569335938,486.69524049948126)">
								<line class="st3" x1="79.7" y1="531.1" x2="79.7" y2="550.3"/>
								<text transform="matrix(0.5523 -0.8337 0.5523 0.8337 82.0188 585.2499)" class="st5 st6">0</text>
							</g>
							<g transform="translate(1473.330322265625, 486.69525146484375)">
								<line class="st3" x1="539.1" y1="531.1" x2="539.1" y2="550.3"/>
								<text transform="matrix(0.5523 -0.8337 0.5523 0.8337 534.2914 596.0979)" class="st5 st6">40</text>
							</g>
							<g transform="translate(1126.761962890625, 486.69525146484375)">
								<line class="st3" x1="424.3" y1="531.1" x2="424.3" y2="550.3"/>
								<text transform="matrix(0.5523 -0.8337 0.5523 0.8337 419.4266 596.0979)" class="st5 st6">30</text>
							</g>
							<g transform="translate(780.1934814453125, 486.69525146484375)">
								<line class="st3" x1="309.4" y1="531.1" x2="309.4" y2="550.3"/>
								<text transform="matrix(0.5523 -0.8337 0.5523 0.8337 304.562 596.0993)" class="st5 st6">20</text>
							</g>
							<g transform="translate(433.6250305175781, 486.69525146484375)">
								<line class="st3" x1="194.5" y1="531.1" x2="194.5" y2="550.3"/>
								<text transform="matrix(0.5523 -0.8337 0.5523 0.8337 189.6967 596.0985)" class="st5 st6">10</text>
							</g>
							<g transform="translate(260.3408203125, 486.69525146484375)">
								<line class="st3" x1="137.1" y1="531.1" x2="137.1" y2="550.3"/>
								<text transform="matrix(0.5523 -0.8337 0.5523 0.8337 139.4513 585.2504)" class="st5 st6">5</text>
							</g>
							<g transform="translate(1300.046142578125, 486.69525146484375)">
								<line class="st3" x1="481.7" y1="531.1" x2="481.7" y2="550.3"/>
								<text transform="matrix(0.5523 -0.8337 0.5523 0.8337 476.8592 596.0985)" class="st5 st6">35</text>
							</g>
							<g transform="translate(953.4776611328125, 486.69525146484375)">
								<line class="st3" x1="366.8" y1="531.1" x2="366.8" y2="550.3"/>
								<text transform="matrix(0.5523 -0.8337 0.5523 0.8337 361.9946 596.0983)" class="st5 st6">25</text>
							</g>
							<g transform="translate(606.9092407226562, 486.69525146484375)">
								<line class="st3" x1="252" y1="531.1" x2="252" y2="550.3"/>
								<text transform="matrix(0.5523 -0.8337 0.5523 0.8337 247.1288 596.0982)" class="st5 st6">15</text>
							</g>
						</g>
						<g>
							<text transform="matrix(0.6625 0 0 1 844.6151 1168.708)" class="st7 st8">% of First Preference Vote</text>
						</g>
					</g>
				</g>
				<g>
					<g>
						<g>
							<line class="st4" x1="166.7" y1="859.7" x2="166.7" y2="965.1"/>
						</g>
						<g>
							<g transform="translate(87.05658721923828, 460.48162841796875)">
								<line class="st3" x1="79.7" y1="504.6" x2="66.9" y2="504.6"/>
								<text transform="matrix(0.6625 0 0 1 3.1913 522.41)" class="st7 st9">IND</text>
							</g>
							<g transform="translate(87.05658569335938,408.054367082901)">
								<line class="st3" x1="79.7" y1="451.6" x2="66.9" y2="451.6"/>
								<text transform="matrix(0.6625 0 0 1 -7.9391 469.4671)" class="st7 st9">AON</text>
							</g>
							<g transform="translate(87.05658721923828, 355.6271057128906)">
								<line class="st3" x1="79.7" y1="398.7" x2="66.9" y2="398.7"/>
								<text transform="matrix(0.6625 0 0 1 -36.2472 416.5233)" class="st7 st9">S-PBP</text>
							</g>
							<g transform="translate(87.05658721923828, 303.1998596191406)">
								<line class="st3" x1="79.7" y1="345.8" x2="66.9" y2="345.8"/>
								<text transform="matrix(0.6625 0 0 1 17.8647 363.5804)" class="st7 st9">SD</text>
							</g>
							<g transform="translate(87.05658721923828, 250.77261352539062)">
								<line class="st3" x1="79.7" y1="292.8" x2="66.9" y2="292.8"/>
								<text transform="matrix(0.6625 0 0 1 6.746511e-03 310.6371)" class="st7 st9">LAB</text>
							</g>
							<g transform="translate(87.05658721923828, 198.34536743164062)">
								<line class="st3" x1="79.7" y1="239.9" x2="66.9" y2="239.9"/>
								<text transform="matrix(0.6625 0 0 1 16.3266 257.6942)" class="st7 st9">GP</text>
							</g>
							<g transform="translate(87.05658721923828, 145.91812133789062)">
								<line class="st3" x1="79.7" y1="186.9" x2="66.9" y2="186.9"/>
								<text transform="matrix(0.6625 0 0 1 19.2611 204.7503)" class="st7 st9">FG</text>
							</g>
							<g transform="translate(87.05658721923828, 93.49087524414062)">
								<line class="st3" x1="79.7" y1="134" x2="66.9" y2="134"/>
								<text transform="matrix(0.6625 0 0 1 22.9833 151.8075)" class="st7 st9">FF</text>
							</g>
							<g transform="translate(87.05658721923828, 41.06362533569336)">
								<line class="st3" x1="79.7" y1="81" x2="66.9" y2="81"/>
								<text transform="matrix(0.6625 0 0 1 21.8378 98.8651)" class="st7 st9">SF</text>
							</g>
						</g>
					</g>
				</g>
			</g>
			<g>
				<defs>
					<rect id="SVGID_5_" x="166.7" y="69.4" width="1845.7" height="948.3"/>
				</defs>
				<clipPath id="SVGID_6_">
					<use xlink:href="#SVGID_5_"  style="overflow:visible;"/>
				</clipPath>
			</g>
		</g>
		<g transform="translate(0, 0)">
			<g>
				<defs>
					<rect id="SVGID_7_" x="31.6" y="10.6" width="2000" height="1151.8"/>
				</defs>
				<clipPath id="SVGID_8_">
					<use xlink:href="#SVGID_7_"  style="overflow:visible;"/>
				</clipPath>
				<polygon class="st10" points="166.7,39.6 166.7,39.6 166.7,39.6 				"/>
			</g>
			<g>
				<defs>
					<rect id="SVGID_9_" x="31.6" y="10.6" width="2000" height="1151.8"/>
				</defs>
				<clipPath id="SVGID_10_">
					<use xlink:href="#SVGID_9_"  style="overflow:visible;"/>
				</clipPath>
			</g>
		</g>
	</g>
</g>
<g id="data-points">
	<g>
		<defs>
			<rect id="SVGID_11_" x="80" y="24.1" width="2000" height="1151.8"/>
		</defs>
		<clipPath id="SVGID_12_">
			<use xlink:href="#SVGID_11_"  style="overflow:visible;"/>
		</clipPath>
		<g transform="translate(0,0)" class="st11">
			<path id="point-0-0" class="st12" d="M215.1,83.4h1647.3v104.3H215.1V83.4z"/>
			<path id="point-0-1" class="st13" d="M215.1,188.8H689v104.3H215.1V188.8z"/>
			<path id="point-0-2" class="st14" d="M215.1,294.1h697.2v104.3H215.1V294.1z"/>
			<path id="point-0-3" class="st15" d="M215.1,399.5h565.3v104.3H215.1V399.5z"/>
			<path id="point-0-4" class="st16" d="M215.1,504.9h249.6v104.3H215.1V504.9z"/>
			<path id="point-0-5" class="st17" d="M215.1,610.2h427.3v104.3H215.1V610.2z"/>
			<path id="point-0-6" class="st18" d="M215.1,715.6h143.5v104.3H215.1V715.6z"/>
			<path id="point-0-7" class="st19" d="M215.1,821h85.4v104.3h-85.4V821z"/>
			<path id="point-0-8" class="st20" d="M215.1,926.4h324.8v104.3H215.1V926.4z"/>
		</g>
	</g>
</g>
<g id="data-point-labels">
	<g>
		<defs>
			<rect id="SVGID_13_" x="80" y="24.1" width="2000" height="1151.8"/>
		</defs>
		<clipPath id="SVGID_14_">
			<use xlink:href="#SVGID_13_"  style="overflow:visible;"/>
		</clipPath>
		<g transform="translate(0,0)" class="st21">
			<g transform="translate(1295.696533203125, 48.98362350463867)" pointer-events="none">
				<text transform="matrix(0.6625 0 0 1 499.636 102.4827)" class="st22 st23">35.7</text>
				<text transform="matrix(0.6625 0 0 1 499.636 102.4827)" class="st24 st22 st23">35.7</text>
				<text transform="matrix(0.6625 0 0 1 499.636 102.4827)" class="st25 st22 st23">35.7</text>
			</g>
			<g transform="translate(408.02923583984375, 101.41087341308594)" pointer-events="none">
				<text transform="matrix(0.6625 0 0 1 197.2349 155.4256)" class="st22 st23">10.27</text>
				<text transform="matrix(0.6625 0 0 1 197.2349 155.4256)" class="st26 st22 st23">10.27</text>
				<text transform="matrix(0.6625 0 0 1 197.2349 155.4256)" class="st25 st22 st23">10.27</text>
			</g>
			<g transform="translate(575.7683715820312, 153.83811950683594)" pointer-events="none">
				<text transform="matrix(0.6625 0 0 1 252.8288 208.3684)" class="st22 st23">15.11</text>
				<text transform="matrix(0.6625 0 0 1 252.8288 208.3684)" class="st27 st22 st23">15.11</text>
				<text transform="matrix(0.6625 0 0 1 252.8288 208.3684)" class="st25 st22 st23">15.11</text>
			</g>
			<g transform="translate(476.6498107910156, 206.26536560058594)" pointer-events="none">
				<text transform="matrix(0.6625 0 0 1 219.9776 261.3103)" class="st22 st23">12.25</text>
				<text transform="matrix(0.6625 0 0 1 219.9776 261.3103)" class="st28 st22 st23">12.25</text>
				<text transform="matrix(0.6625 0 0 1 219.9776 261.3103)" class="st25 st22 st23">12.25</text>
			</g>
			<g transform="translate(245.94073486328125, 258.692626953125)" pointer-events="none">
				<text transform="matrix(0.6625 0 0 1 151.7082 314.2532)" class="st22 st23">5.41</text>
				<text transform="matrix(0.6625 0 0 1 151.7082 314.2532)" class="st29 st22 st23">5.41</text>
				<text transform="matrix(0.6625 0 0 1 151.7082 314.2532)" class="st25 st22 st23">5.41</text>
			</g>
			<g transform="translate(379.2055358886719, 311.119873046875)" pointer-events="none">
				<text transform="matrix(0.6625 0 0 1 195.8775 367.1985)" class="st22 st23">9.26</text>
				<text transform="matrix(0.6625 0 0 1 195.8775 367.1985)" class="st30 st22 st23">9.26</text>
				<text transform="matrix(0.6625 0 0 1 195.8775 367.1985)" class="st25 st22 st23">9.26</text>
			</g>
			<g transform="translate(166.22999572753906, 363.547119140625)" pointer-events="none">
				<text transform="matrix(0.6625 0 0 1 125.2896 420.1414)" class="st22 st23">3.11</text>
				<text transform="matrix(0.6625 0 0 1 125.2896 420.1414)" class="st31 st22 st23">3.11</text>
				<text transform="matrix(0.6625 0 0 1 125.2896 420.1414)" class="st25 st22 st23">3.11</text>
			</g>
			<g transform="translate(122.56237030029297, 415.974365234375)" pointer-events="none">
				<text transform="matrix(0.6625 0 0 1 110.817 473.0833)" class="st22 st23">1.85</text>
				<text transform="matrix(0.6625 0 0 1 110.817 473.0833)" class="st32 st22 st23">1.85</text>
				<text transform="matrix(0.6625 0 0 1 110.817 473.0833)" class="st25 st22 st23">1.85</text>
			</g>
			<g transform="translate(302.267333984375, 468.401611328125)" pointer-events="none">
				<text transform="matrix(0.6625 0 0 1 170.3772 526.0271)" class="st22 st23">7.04</text>
				<text transform="matrix(0.6625 0 0 1 170.3772 526.0271)" class="st33 st22 st23">7.04</text>
				<text transform="matrix(0.6625 0 0 1 170.3772 526.0271)" class="st25 st22 st23">7.04</text>
			</g>
		</g>
	</g>
</g>
<g>
	<g transform="translate(0, 0)">
	</g>
</g>
</svg>
