<?xml version="1.0" encoding="utf-8"?>
<!-- Generator: Adobe Illustrator 25.2.1, SVG Export Plug-In . SVG Version: 6.00 Build 0)  -->
<svg version="1.1" id="Layer_1" xmlns="http://www.w3.org/2000/svg" xmlns:xlink="http://www.w3.org/1999/xlink" x="0px" y="0px"
	 viewBox="0 0 2160 1200" style="enable-background:new 0 0 2160 1200;" xml:space="preserve">
<style type="text/css">
	.st0{fill:none;}
	.st1{fill-opacity:0;}
	.st2{clip-path:url(#SVGID_4_);}
	.st3{fill:none;stroke:#EEEEEE;stroke-width:2;}
	.st4{fill:none;stroke:#EEEEEE;stroke-width:2;stroke-linecap:square;}
	.st5{font-family:'SourceSansPro-Regular';}
	.st6{font-size:26.9708px;}
	.st7{font-family:'SourceSansPro-Bold';}
	.st8{font-size:66.3987px;}
	.st9{font-size:54.6813px;}
	.st10{clip-path:url(#SVGID_8_);fill:#EEEEEE;}
	.st11{clip-path:url(#SVGID_12_);}
	.st12{fill:#0D5F02;}
	.st13{fill:#0ECB01;}
	.st14{fill:#0E00D6;}
	.st15{fill:#7CC56D;}
	.st16{fill:#FF0000;}
	.st17{fill:#5500FF;}
	.st18{fill:#703610;}
	.st19{fill:#FF6F00;}
	.st20{fill:#6E6E6E;}
	.st21{clip-path:url(#SVGID_14_);}
	.st22{font-family:'SourceSansPro-Semibold';}
	.st23{font-size:48.8226px;}
	.st24{fill:none;stroke:#0D5F02;stroke-width:7.2;}
	.st25{fill:#FFFFFF;}
	.st26{fill:none;stroke:#0ECB01;stroke-width:7.2;}
	.st27{fill:none;stroke:#0E00D6;stroke-width:7.2;}
	.st28{fill:none;stroke:#7CC56D;stroke-width:7.2;}
	.st29{fill:none;stroke:#FF0000;stroke-width:7.2;}
	.st30{fill:none;stroke:#5500FF;stroke-width:7.2;}
	.st31{fill:none;stroke:#703610;stroke-width:7.2;}
	.st32{fill:none;stroke:#FF6F00;stroke-width:7.2;}
	.st33{fill:none;stroke:#6E6E6E;stroke-width:7.2;}
</style>
<g>
	<g transform="translate(0,0)">
		<g>
			<g>
				<rect x="154.1" y="63" class="st0" width="1974.3" height="959.9"/>
				<rect x="154.1" y="63" class="st1" width="1974.3" height="959.9"/>
			</g>
			<g>
				<defs>
					<rect id="SVGID_1_" x="154.1" y="63" width="1974.3" height="959.9"/>
				</defs>
				<clipPath id="SVGID_2_">
					<use xlink:href="#SVGID_1_"  style="overflow:visible;"/>
				</clipPath>
			</g>
			<g>
				<defs>
					<rect id="SVGID_3_" x="151.3" y="58.9" width="1980" height="968"/>
				</defs>
				<clipPath id="SVGID_4_">
					<use xlink:href="#SVGID_3_"  style="overflow:visible;"/>
				</clipPath>
				<g class="st2">
					<g>
						<line class="st3" x1="154.1" y1="969.5" x2="2128.4" y2="969.5"/>
						<line class="st3" x1="154.1" y1="862.8" x2="2128.4" y2="862.8"/>
						<line class="st3" x1="154.1" y1="756.2" x2="2128.4" y2="756.2"/>
						<line class="st3" x1="154.1" y1="649.5" x2="2128.4" y2="649.5"/>
						<line class="st3" x1="154.1" y1="542.9" x2="2128.4" y2="542.9"/>
						<line class="st3" x1="154.1" y1="436.2" x2="2128.4" y2="436.2"/>
						<line class="st3" x1="154.1" y1="329.6" x2="2128.4" y2="329.6"/>
						<line class="st3" x1="154.1" y1="222.9" x2="2128.4" y2="222.9"/>
						<line class="st3" x1="154.1" y1="116.3" x2="2128.4" y2="116.3"/>
					</g>
				</g>
			</g>
			<g>
				<g>
					<g>
						<g>
							<line class="st4" x1="154.1" y1="1022.8" x2="2128.4" y2="1022.8"/>
						</g>
						<g>
							<g transform="translate(87.05658569335938,486.69524049948126)">
								<line class="st3" x1="67.1" y1="536.1" x2="67.1" y2="555.7"/>
								<text transform="matrix(0.5735 -0.8192 0.5735 0.8192 69.5897 590.9866)" class="st5 st6">0</text>
							</g>
							<g transform="translate(1275.291259765625, 486.69525146484375)">
								<line class="st3" x1="571.1" y1="536.1" x2="571.1" y2="555.7"/>
								<text transform="matrix(0.5735 -0.8192 0.5735 0.8192 565.8871 601.9664)" class="st5 st6">30</text>
							</g>
							<g transform="translate(879.2130126953125, 486.69525146484375)">
								<line class="st3" x1="403.1" y1="536.1" x2="403.1" y2="555.7"/>
								<text transform="matrix(0.5735 -0.8192 0.5735 0.8192 397.8923 601.9672)" class="st5 st6">20</text>
							</g>
							<g transform="translate(483.1347961425781, 486.69525146484375)">
								<line class="st3" x1="235.1" y1="536.1" x2="235.1" y2="555.7"/>
								<text transform="matrix(0.5735 -0.8192 0.5735 0.8192 229.8973 601.968)" class="st5 st6">10</text>
							</g>
							<g transform="translate(285.095703125, 486.69525146484375)">
								<line class="st3" x1="151.1" y1="536.1" x2="151.1" y2="555.7"/>
								<text transform="matrix(0.5735 -0.8192 0.5735 0.8192 153.5871 590.9862)" class="st5 st6">5</text>
							</g>
							<g transform="translate(1473.330322265625, 486.69525146484375)">
								<line class="st3" x1="655.1" y1="536.1" x2="655.1" y2="555.7"/>
								<text transform="matrix(0.5735 -0.8192 0.5735 0.8192 649.8846 601.9677)" class="st5 st6">35</text>
							</g>
							<g transform="translate(1077.2520751953125, 486.69525146484375)">
								<line class="st3" x1="487.1" y1="536.1" x2="487.1" y2="555.7"/>
								<text transform="matrix(0.5735 -0.8192 0.5735 0.8192 481.8903 601.9677)" class="st5 st6">25</text>
							</g>
							<g transform="translate(681.1738891601562, 486.69525146484375)">
								<line class="st3" x1="319.1" y1="536.1" x2="319.1" y2="555.7"/>
								<text transform="matrix(0.5735 -0.8192 0.5735 0.8192 313.8948 601.9677)" class="st5 st6">15</text>
							</g>
						</g>
						<g>
							<text transform="matrix(0.7001 0 0 1 879.2255 1175.623)" class="st7 st8">% of First Preference Vote</text>
						</g>
					</g>
				</g>
				<g>
					<g>
						<g>
							<line class="st4" x1="154.1" y1="862.8" x2="154.1" y2="969.5"/>
						</g>
						<g>
							<g transform="translate(87.05658569335938,460.4816160272878)">
								<line class="st3" x1="67.1" y1="509" x2="53.4" y2="509"/>
								<text transform="matrix(0.7001 0 0 1 -14.7262 527.0633)" class="st7 st9">IND</text>
							</g>
							<g transform="translate(87.05658569335938,408.054367082901)">
								<line class="st3" x1="67.1" y1="454.8" x2="53.4" y2="454.8"/>
								<text transform="matrix(0.7001 0 0 1 -26.6319 472.8401)" class="st7 st9">AON</text>
							</g>
							<g transform="translate(87.05658569335938,355.6271181385142)">
								<line class="st3" x1="67.1" y1="400.6" x2="53.4" y2="400.6"/>
								<text transform="matrix(0.7001 0 0 1 -56.9107 418.6161)" class="st7 st9">S-PBP</text>
							</g>
							<g transform="translate(87.05658569335938,303.1998691941274)">
								<line class="st3" x1="67.1" y1="346.3" x2="53.4" y2="346.3"/>
								<text transform="matrix(0.7001 0 0 1 0.9687 364.391)" class="st7 st9">SD</text>
							</g>
							<g transform="translate(87.05658569335938,250.7726202497406)">
								<line class="st3" x1="67.1" y1="292.1" x2="53.4" y2="292.1"/>
								<text transform="matrix(0.7001 0 0 1 -18.1329 310.1673)" class="st7 st9">LAB</text>
							</g>
							<g transform="translate(87.05658569335938,198.3453713053538)">
								<line class="st3" x1="67.1" y1="237.9" x2="53.4" y2="237.9"/>
								<text transform="matrix(0.7001 0 0 1 -0.6768 255.9442)" class="st7 st9">GP</text>
							</g>
							<g transform="translate(87.05658569335938,145.918122360967)">
								<line class="st3" x1="67.1" y1="183.7" x2="53.4" y2="183.7"/>
								<text transform="matrix(0.7001 0 0 1 2.4628 201.7201)" class="st7 st9">FG</text>
							</g>
							<g transform="translate(87.05658569335938,93.4908734165802)">
								<line class="st3" x1="67.1" y1="129.4" x2="53.4" y2="129.4"/>
								<text transform="matrix(0.7001 0 0 1 6.4438 147.495)" class="st7 st9">FF</text>
							</g>
							<g transform="translate(87.05658569335938,41.0636244721934)">
								<line class="st3" x1="67.1" y1="75.2" x2="53.4" y2="75.2"/>
								<text transform="matrix(0.7001 0 0 1 5.2182 93.2709)" class="st7 st9">SF</text>
							</g>
						</g>
					</g>
				</g>
			</g>
			<g>
				<defs>
					<rect id="SVGID_5_" x="154.1" y="63" width="1974.3" height="959.9"/>
				</defs>
				<clipPath id="SVGID_6_">
					<use xlink:href="#SVGID_5_"  style="overflow:visible;"/>
				</clipPath>
			</g>
		</g>
		<g transform="translate(0, 0)">
			<g>
				<defs>
					<rect id="SVGID_7_" x="9.6" y="3.5" width="2139.3" height="1165.9"/>
				</defs>
				<clipPath id="SVGID_8_">
					<use xlink:href="#SVGID_7_"  style="overflow:visible;"/>
				</clipPath>
				<polygon class="st10" points="154.1,32.8 154.1,32.8 154.1,32.8 				"/>
			</g>
			<g>
				<defs>
					<rect id="SVGID_9_" x="9.6" y="3.5" width="2139.3" height="1165.9"/>
				</defs>
				<clipPath id="SVGID_10_">
					<use xlink:href="#SVGID_9_"  style="overflow:visible;"/>
				</clipPath>
			</g>
		</g>
	</g>
</g>
<g id="data-points">
	<g>
		<defs>
			<rect id="SVGID_11_" x="61.4" y="17.1" width="2139.3" height="1165.9"/>
		</defs>
		<clipPath id="SVGID_12_">
			<use xlink:href="#SVGID_11_"  style="overflow:visible;"/>
		</clipPath>
		<g transform="translate(0,0)" class="st11">
			<path id="point-0-0" class="st12" d="M205.9,77.1h543.8v105.6H205.9V77.1z"/>
			<path id="point-0-1" class="st13" d="M205.9,183.8h897.4v105.6H205.9V183.8z"/>
			<path id="point-0-2" class="st14" d="M205.9,290.4h1886.3V396H205.9V290.4z"/>
			<path id="point-0-3" class="st15" d="M205.9,397.1H1048v105.6H205.9V397.1z"/>
			<path id="point-0-4" class="st16" d="M205.9,503.7h272.4v105.6H205.9V503.7z"/>
			<path id="point-0-5" class="st17" d="M205.9,610.4h125.2V716H205.9V610.4z"/>
			<path id="point-0-6" class="st18" d="M205.9,717h872.1v105.6H205.9V717z"/>
			<path id="point-0-7" class="st19" d="M205.9,823.7H313v105.6H205.9V823.7z"/>
			<path id="point-0-8" class="st20" d="M205.9,930.3h94.2v105.6h-94.2V930.3z"/>
		</g>
	</g>
</g>
<g id="data-point-labels">
	<g>
		<defs>
			<rect id="SVGID_13_" x="61.4" y="17.1" width="2139.3" height="1165.9"/>
		</defs>
		<clipPath id="SVGID_14_">
			<use xlink:href="#SVGID_13_"  style="overflow:visible;"/>
		</clipPath>
		<g transform="translate(0,0)" class="st21">
			<g transform="translate(440.1025390625, 48.98362350463867)" pointer-events="none">
				<text transform="matrix(0.7001 0 0 1 237.5487 97.0286)" class="st22 st23">9.64</text>
				<text transform="matrix(0.7001 0 0 1 237.5487 97.0286)" class="st24 st22 st23">9.64</text>
				<text transform="matrix(0.7001 0 0 1 237.5487 97.0286)" class="st25 st22 st23">9.64</text>
			</g>
			<g transform="translate(682.263916015625, 101.41087341308594)" pointer-events="none">
				<text transform="matrix(0.7001 0 0 1 331.4943 151.2528)" class="st22 st23">15.91</text>
				<text transform="matrix(0.7001 0 0 1 331.4943 151.2528)" class="st26 st22 st23">15.91</text>
				<text transform="matrix(0.7001 0 0 1 331.4943 151.2528)" class="st25 st22 st23">15.91</text>
			</g>
			<g transform="translate(1376.4249267578125, 153.83811950683594)" pointer-events="none">
				<text transform="matrix(0.7001 0 0 1 625.9202 205.4779)" class="st22 st23">33.44</text>
				<text transform="matrix(0.7001 0 0 1 625.9202 205.4779)" class="st27 st22 st23">33.44</text>
				<text transform="matrix(0.7001 0 0 1 625.9202 205.4779)" class="st25 st22 st23">33.44</text>
			</g>
			<g transform="translate(643.4482421875, 206.26536560058594)" pointer-events="none">
				<text transform="matrix(0.7001 0 0 1 315.0306 259.702)" class="st22 st23">14.93</text>
				<text transform="matrix(0.7001 0 0 1 315.0306 259.702)" class="st28 st22 st23">14.93</text>
				<text transform="matrix(0.7001 0 0 1 315.0306 259.702)" class="st25 st22 st23">14.93</text>
			</g>
			<g transform="translate(249.75299072265625, 258.692626953125)" pointer-events="none">
				<text transform="matrix(0.7001 0 0 1 156.8128 313.9261)" class="st22 st23">4.83</text>
				<text transform="matrix(0.7001 0 0 1 156.8128 313.9261)" class="st29 st22 st23">4.83</text>
				<text transform="matrix(0.7001 0 0 1 156.8128 313.9261)" class="st25 st22 st23">4.83</text>
			</g>
			<g transform="translate(146.37657165527344, 311.119873046875)" pointer-events="none">
				<text transform="matrix(0.7001 0 0 1 112.9661 368.1497)" class="st22 st23">2.22</text>
				<text transform="matrix(0.7001 0 0 1 112.9661 368.1497)" class="st30 st22 st23">2.22</text>
				<text transform="matrix(0.7001 0 0 1 112.9661 368.1497)" class="st25 st22 st23">2.22</text>
			</g>
			<g transform="translate(664.2763061523438, 363.547119140625)" pointer-events="none">
				<text transform="matrix(0.7001 0 0 1 323.8647 422.3729)" class="st22 st23">15.46</text>
				<text transform="matrix(0.7001 0 0 1 323.8647 422.3729)" class="st31 st22 st23">15.46</text>
				<text transform="matrix(0.7001 0 0 1 323.8647 422.3729)" class="st25 st22 st23">15.46</text>
			</g>
			<g transform="translate(140.0301971435547, 415.974365234375)" pointer-events="none">
				<text transform="matrix(0.7001 0 0 1 119.0415 476.5989)" class="st22 st23">1.9</text>
				<text transform="matrix(0.7001 0 0 1 119.0415 476.5989)" class="st32 st22 st23">1.9</text>
				<text transform="matrix(0.7001 0 0 1 119.0415 476.5989)" class="st25 st22 st23">1.9</text>
			</g>
			<g transform="translate(124.59226989746094, 468.401611328125)" pointer-events="none">
				<text transform="matrix(0.7001 0 0 1 103.7265 530.8221)" class="st22 st23">1.67</text>
				<text transform="matrix(0.7001 0 0 1 103.7265 530.8221)" class="st33 st22 st23">1.67</text>
				<text transform="matrix(0.7001 0 0 1 103.7265 530.8221)" class="st25 st22 st23">1.67</text>
			</g>
		</g>
	</g>
</g>
<g>
	<g transform="translate(0, 0)">
	</g>
</g>
</svg>
