<?xml version="1.0" encoding="utf-8"?>
<!-- Generator: Adobe Illustrator 25.2.1, SVG Export Plug-In . SVG Version: 6.00 Build 0)  -->
<svg version="1.1" id="Layer_1" xmlns="http://www.w3.org/2000/svg" xmlns:xlink="http://www.w3.org/1999/xlink" x="0px" y="0px"
	 viewBox="0 0 2160 1200" style="enable-background:new 0 0 2160 1200;" xml:space="preserve">
<style type="text/css">
	.st0{fill:none;}
	.st1{fill-opacity:0;}
	.st2{clip-path:url(#SVGID_4_);}
	.st3{fill:none;stroke:#EEEEEE;stroke-width:2;}
	.st4{fill:none;stroke:#EEEEEE;stroke-width:2;stroke-linecap:square;}
	.st5{font-family:'SourceSansPro-Regular';}
	.st6{font-size:26.5424px;}
	.st7{font-family:'SourceSansPro-Bold';}
	.st8{font-size:65.5083px;}
	.st9{font-size:53.948px;}
	.st10{clip-path:url(#SVGID_8_);fill:#EEEEEE;}
	.st11{clip-path:url(#SVGID_12_);}
	.st12{fill:#0D5F02;}
	.st13{fill:#0ECB01;}
	.st14{fill:#0E00D6;}
	.st15{fill:#7CC56D;}
	.st16{fill:#FF0000;}
	.st17{fill:#703610;}
	.st18{fill:#6E6E6E;}
	.st19{clip-path:url(#SVGID_14_);}
	.st20{font-family:'SourceSansPro-Semibold';}
	.st21{font-size:48.1678px;}
	.st22{fill:none;stroke:#0D5F02;stroke-width:7.2;}
	.st23{fill:#FFFFFF;}
	.st24{fill:none;stroke:#0ECB01;stroke-width:7.2;}
	.st25{fill:none;stroke:#0E00D6;stroke-width:7.2;}
	.st26{fill:none;stroke:#7CC56D;stroke-width:7.2;}
	.st27{fill:none;stroke:#FF0000;stroke-width:7.2;}
	.st28{fill:none;stroke:#703610;stroke-width:7.2;}
	.st29{fill:none;stroke:#6E6E6E;stroke-width:7.2;}
</style>
<g>
	<g transform="translate(0,0)">
		<g>
			<g>
				<rect x="123.6" y="70.2" class="st0" width="1932.9" height="947"/>
				<rect x="123.6" y="70.2" class="st1" width="1932.9" height="947"/>
			</g>
			<g>
				<defs>
					<rect id="SVGID_1_" x="123.6" y="70.2" width="1932.9" height="947"/>
				</defs>
				<clipPath id="SVGID_2_">
					<use xlink:href="#SVGID_1_"  style="overflow:visible;"/>
				</clipPath>
			</g>
			<g>
				<defs>
					<rect id="SVGID_3_" x="120.8" y="66.2" width="1938.5" height="955"/>
				</defs>
				<clipPath id="SVGID_4_">
					<use xlink:href="#SVGID_3_"  style="overflow:visible;"/>
				</clipPath>
				<g class="st2">
					<g>
						<line class="st3" x1="123.6" y1="949.5" x2="2056.5" y2="949.5"/>
						<line class="st3" x1="123.6" y1="814.2" x2="2056.5" y2="814.2"/>
						<line class="st3" x1="123.6" y1="678.9" x2="2056.5" y2="678.9"/>
						<line class="st3" x1="123.6" y1="543.7" x2="2056.5" y2="543.7"/>
						<line class="st3" x1="123.6" y1="408.4" x2="2056.5" y2="408.4"/>
						<line class="st3" x1="123.6" y1="273.1" x2="2056.5" y2="273.1"/>
						<line class="st3" x1="123.6" y1="137.8" x2="2056.5" y2="137.8"/>
					</g>
				</g>
			</g>
			<g>
				<g>
					<g>
						<g>
							<line class="st4" x1="123.6" y1="1017.2" x2="2056.5" y2="1017.2"/>
						</g>
						<g>
							<g transform="translate(87.05658569335938,486.69524049948126)">
								<line class="st3" x1="36.5" y1="530.5" x2="36.5" y2="549.7"/>
								<text transform="matrix(0.5705 -0.8213 0.5705 0.8213 39.0095 584.5828)" class="st5 st6">0</text>
							</g>
							<g transform="translate(1319.2999267578125, 486.69525146484375)">
								<line class="st3" x1="522.4" y1="530.5" x2="522.4" y2="549.7"/>
								<text transform="matrix(0.5705 -0.8213 0.5705 0.8213 517.3578 595.4168)" class="st5 st6">40</text>
							</g>
							<g transform="translate(1011.2390747070312, 486.69525146484375)">
								<line class="st3" x1="400.9" y1="530.5" x2="400.9" y2="549.7"/>
								<text transform="matrix(0.5705 -0.8213 0.5705 0.8213 395.889 595.4166)" class="st5 st6">30</text>
							</g>
							<g transform="translate(703.1782836914062, 486.69525146484375)">
								<line class="st3" x1="279.5" y1="530.5" x2="279.5" y2="549.7"/>
								<text transform="matrix(0.5705 -0.8213 0.5705 0.8213 274.4201 595.4164)" class="st5 st6">20</text>
							</g>
							<g transform="translate(395.117431640625, 486.69525146484375)">
								<line class="st3" x1="158" y1="530.5" x2="158" y2="549.7"/>
								<text transform="matrix(0.5705 -0.8213 0.5705 0.8213 152.9513 595.4161)" class="st5 st6">10</text>
							</g>
							<g transform="translate(241.08700561523438, 486.69525146484375)">
								<line class="st3" x1="97.3" y1="530.5" x2="97.3" y2="549.7"/>
								<text transform="matrix(0.5705 -0.8213 0.5705 0.8213 99.7438 584.5815)" class="st5 st6">5</text>
							</g>
							<g transform="translate(1473.330322265625, 486.69525146484375)">
								<line class="st3" x1="583.1" y1="530.5" x2="583.1" y2="549.7"/>
								<text transform="matrix(0.5705 -0.8213 0.5705 0.8213 578.0915 595.4148)" class="st5 st6">45</text>
							</g>
							<g transform="translate(1165.26953125, 486.69525146484375)">
								<line class="st3" x1="461.7" y1="530.5" x2="461.7" y2="549.7"/>
								<text transform="matrix(0.5705 -0.8213 0.5705 0.8213 456.6232 595.4154)" class="st5 st6">35</text>
							</g>
							<g transform="translate(857.2086791992188, 486.69525146484375)">
								<line class="st3" x1="340.2" y1="530.5" x2="340.2" y2="549.7"/>
								<text transform="matrix(0.5705 -0.8213 0.5705 0.8213 335.1542 595.4153)" class="st5 st6">25</text>
							</g>
							<g transform="translate(549.1478271484375, 486.69525146484375)">
								<line class="st3" x1="218.7" y1="530.5" x2="218.7" y2="549.7"/>
								<text transform="matrix(0.5705 -0.8213 0.5705 0.8213 213.6855 595.415)" class="st5 st6">15</text>
							</g>
						</g>
						<g>
							<text transform="matrix(0.6947 0 0 1 833.5013 1167.9033)" class="st7 st8">% of First Preference Vote</text>
						</g>
					</g>
				</g>
				<g>
					<g>
						<g>
							<line class="st4" x1="123.6" y1="814.2" x2="123.6" y2="949.5"/>
						</g>
						<g>
							<g transform="translate(87.05658721923828, 452.99200439453125)">
								<line class="st3" x1="36.5" y1="496.5" x2="23.2" y2="496.5"/>
								<text transform="matrix(0.6947 0 0 1 -43.5392 514.3244)" class="st7 st9">IND</text>
							</g>
							<g transform="translate(87.05658721923828, 385.5855407714844)">
								<line class="st3" x1="36.5" y1="428.6" x2="23.2" y2="428.6"/>
								<text transform="matrix(0.6947 0 0 1 -84.8404 446.4467)" class="st7 st9">S-PBP</text>
							</g>
							<g transform="translate(87.05658721923828, 318.1790771484375)">
								<line class="st3" x1="36.5" y1="360.8" x2="23.2" y2="360.8"/>
								<text transform="matrix(0.6947 0 0 1 -46.8751 378.569)" class="st7 st9">LAB</text>
							</g>
							<g transform="translate(87.05658721923828, 250.77261352539062)">
								<line class="st3" x1="36.5" y1="292.9" x2="23.2" y2="292.9"/>
								<text transform="matrix(0.6947 0 0 1 -29.7848 310.6917)" class="st7 st9">GP</text>
							</g>
							<g transform="translate(87.05658721923828, 183.36614990234375)">
								<line class="st3" x1="36.5" y1="225" x2="23.2" y2="225"/>
								<text transform="matrix(0.6947 0 0 1 -26.7115 242.813)" class="st7 st9">FG</text>
							</g>
							<g transform="translate(87.05658721923828, 115.9596939086914)">
								<line class="st3" x1="36.5" y1="157.1" x2="23.2" y2="157.1"/>
								<text transform="matrix(0.6947 0 0 1 -22.8136 174.9348)" class="st7 st9">FF</text>
							</g>
							<g transform="translate(87.05658721923828, 48.55323028564453)">
								<line class="st3" x1="36.5" y1="89.3" x2="23.2" y2="89.3"/>
								<text transform="matrix(0.6947 0 0 1 -24.0133 107.0566)" class="st7 st9">SF</text>
							</g>
						</g>
					</g>
				</g>
			</g>
			<g>
				<defs>
					<rect id="SVGID_5_" x="123.6" y="70.2" width="1932.9" height="947"/>
				</defs>
				<clipPath id="SVGID_6_">
					<use xlink:href="#SVGID_5_"  style="overflow:visible;"/>
				</clipPath>
			</g>
		</g>
		<g transform="translate(0, 0)">
			<g>
				<defs>
					<rect id="SVGID_7_" x="-17.9" y="11.5" width="2094.4" height="1150.2"/>
				</defs>
				<clipPath id="SVGID_8_">
					<use xlink:href="#SVGID_7_"  style="overflow:visible;"/>
				</clipPath>
				<polygon class="st10" points="123.6,40.4 123.6,40.4 123.6,40.4 				"/>
			</g>
			<g>
				<defs>
					<rect id="SVGID_9_" x="-17.9" y="11.5" width="2094.4" height="1150.2"/>
				</defs>
				<clipPath id="SVGID_10_">
					<use xlink:href="#SVGID_9_"  style="overflow:visible;"/>
				</clipPath>
			</g>
		</g>
	</g>
</g>
<g id="data-points">
	<g>
		<defs>
			<rect id="SVGID_11_" x="32.8" y="24.9" width="2094.4" height="1150.2"/>
		</defs>
		<clipPath id="SVGID_12_">
			<use xlink:href="#SVGID_11_"  style="overflow:visible;"/>
		</clipPath>
		<g transform="translate(0,0)" class="st11">
			<path id="point-0-0" class="st12" d="M174.3,84.3h1839.2v133.9H174.3V84.3z"/>
			<path id="point-0-1" class="st13" d="M174.3,219.6h529.2v133.9H174.3V219.6z"/>
			<path id="point-0-2" class="st14" d="M174.3,354.8h754.7v133.9H174.3V354.8z"/>
			<path id="point-0-3" class="st15" d="M174.3,490.1h263.3v133.9H174.3V490.1z"/>
			<path id="point-0-4" class="st16" d="M174.3,625.4h145.6v133.9H174.3V625.4z"/>
			<path id="point-0-5" class="st17" d="M174.3,760.7h337.6v133.9H174.3V760.7z"/>
			<path id="point-0-6" class="st18" d="M174.3,896h425.7v133.9H174.3V896z"/>
		</g>
	</g>
</g>
<g id="data-point-labels">
	<g>
		<defs>
			<rect id="SVGID_13_" x="32.8" y="24.9" width="2094.4" height="1150.2"/>
		</defs>
		<clipPath id="SVGID_14_">
			<use xlink:href="#SVGID_13_"  style="overflow:visible;"/>
		</clipPath>
		<g transform="translate(0,0)" class="st19">
			<g transform="translate(1371.219970703125, 56.47323226928711)" pointer-events="none">
				<text transform="matrix(0.6947 0 0 1 554.6083 110.6582)" class="st20 st21">42.82</text>
				<text transform="matrix(0.6947 0 0 1 554.6083 110.6582)" class="st22 st20 st21">42.82</text>
				<text transform="matrix(0.6947 0 0 1 554.6083 110.6582)" class="st23 st20 st21">42.82</text>
			</g>
			<g transform="translate(431.6343994140625, 123.87969207763672)" pointer-events="none">
				<text transform="matrix(0.6947 0 0 1 184.1284 178.5359)" class="st20 st21">12.32</text>
				<text transform="matrix(0.6947 0 0 1 184.1284 178.5359)" class="st24 st20 st21">12.32</text>
				<text transform="matrix(0.6947 0 0 1 184.1284 178.5359)" class="st23 st20 st21">12.32</text>
			</g>
			<g transform="translate(593.3663330078125, 191.28616333007812)" pointer-events="none">
				<text transform="matrix(0.6947 0 0 1 247.8989 246.4146)" class="st20 st21">17.57</text>
				<text transform="matrix(0.6947 0 0 1 247.8989 246.4146)" class="st25 st20 st21">17.57</text>
				<text transform="matrix(0.6947 0 0 1 247.8989 246.4146)" class="st23 st20 st21">17.57</text>
			</g>
			<g transform="translate(247.2884979248047, 258.692626953125)" pointer-events="none">
				<text transform="matrix(0.6947 0 0 1 120.0236 314.2923)" class="st20 st21">6.13</text>
				<text transform="matrix(0.6947 0 0 1 120.0236 314.2923)" class="st26 st20 st21">6.13</text>
				<text transform="matrix(0.6947 0 0 1 120.0236 314.2923)" class="st23 st20 st21">6.13</text>
			</g>
			<g transform="translate(162.8798370361328, 326.0990905761719)" pointer-events="none">
				<text transform="matrix(0.6947 0 0 1 86.7409 382.1705)" class="st20 st21">3.39</text>
				<text transform="matrix(0.6947 0 0 1 86.7409 382.1705)" class="st27 st20 st21">3.39</text>
				<text transform="matrix(0.6947 0 0 1 86.7409 382.1705)" class="st23 st20 st21">3.39</text>
			</g>
			<g transform="translate(300.4189758300781, 393.50555419921875)" pointer-events="none">
				<text transform="matrix(0.6947 0 0 1 140.9728 450.0482)" class="st20 st21">7.86</text>
				<text transform="matrix(0.6947 0 0 1 140.9728 450.0482)" class="st28 st20 st21">7.86</text>
				<text transform="matrix(0.6947 0 0 1 140.9728 450.0482)" class="st23 st20 st21">7.86</text>
			</g>
			<g transform="translate(363.7355041503906, 460.9120178222656)" pointer-events="none">
				<text transform="matrix(0.6947 0 0 1 165.9389 517.9259)" class="st20 st21">9.91</text>
				<text transform="matrix(0.6947 0 0 1 165.9389 517.9259)" class="st29 st20 st21">9.91</text>
				<text transform="matrix(0.6947 0 0 1 165.9389 517.9259)" class="st23 st20 st21">9.91</text>
			</g>
		</g>
	</g>
</g>
<g>
	<g transform="translate(0, 0)">
	</g>
</g>
</svg>
