<?xml version="1.0" encoding="utf-8"?>
<!-- Generator: Adobe Illustrator 25.2.1, SVG Export Plug-In . SVG Version: 6.00 Build 0)  -->
<svg version="1.1" id="Layer_1" xmlns="http://www.w3.org/2000/svg" xmlns:xlink="http://www.w3.org/1999/xlink" x="0px" y="0px"
	 viewBox="0 0 2160 1200" style="enable-background:new 0 0 2160 1200;" xml:space="preserve">
<style type="text/css">
	.st0{fill:none;}
	.st1{fill-opacity:0;}
	.st2{clip-path:url(#SVGID_4_);}
	.st3{fill:none;stroke:#EEEEEE;stroke-width:2;}
	.st4{fill:none;stroke:#EEEEEE;stroke-width:2;stroke-linecap:square;}
	.st5{font-family:'SourceSansPro-Regular';}
	.st6{font-size:26.2778px;}
	.st7{font-family:'SourceSansPro-Bold';}
	.st8{font-size:65.1145px;}
	.st9{font-size:53.6237px;}
	.st10{clip-path:url(#SVGID_8_);fill:#EEEEEE;}
	.st11{clip-path:url(#SVGID_12_);}
	.st12{fill:#0D5F02;}
	.st13{fill:#0ECB01;}
	.st14{fill:#0E00D6;}
	.st15{fill:#7CC56D;}
	.st16{fill:#FF0000;}
	.st17{fill:#5500FF;}
	.st18{fill:#703610;}
	.st19{fill:#6E6E6E;}
	.st20{clip-path:url(#SVGID_14_);}
	.st21{font-family:'SourceSansPro-Semibold';}
	.st22{font-size:47.8783px;}
	.st23{fill:none;stroke:#0D5F02;stroke-width:7.2;}
	.st24{fill:#FFFFFF;}
	.st25{fill:none;stroke:#0ECB01;stroke-width:7.2;}
	.st26{fill:none;stroke:#0E00D6;stroke-width:7.2;}
	.st27{fill:none;stroke:#7CC56D;stroke-width:7.2;}
	.st28{fill:none;stroke:#FF0000;stroke-width:7.2;}
	.st29{fill:none;stroke:#5500FF;stroke-width:7.2;}
	.st30{fill:none;stroke:#703610;stroke-width:7.2;}
	.st31{fill:none;stroke:#6E6E6E;stroke-width:7.2;}
</style>
<g>
	<g transform="translate(0,0)">
		<g>
			<g>
				<rect x="141" y="73.4" class="st0" width="1897.7" height="941.3"/>
				<rect x="141" y="73.4" class="st1" width="1897.7" height="941.3"/>
			</g>
			<g>
				<defs>
					<rect id="SVGID_1_" x="141" y="73.4" width="1897.7" height="941.3"/>
				</defs>
				<clipPath id="SVGID_2_">
					<use xlink:href="#SVGID_1_"  style="overflow:visible;"/>
				</clipPath>
			</g>
			<g>
				<defs>
					<rect id="SVGID_3_" x="138.3" y="69.4" width="1903.1" height="949.3"/>
				</defs>
				<clipPath id="SVGID_4_">
					<use xlink:href="#SVGID_3_"  style="overflow:visible;"/>
				</clipPath>
				<g class="st2">
					<g>
						<line class="st3" x1="141" y1="955.8" x2="2038.7" y2="955.8"/>
						<line class="st3" x1="141" y1="838.2" x2="2038.7" y2="838.2"/>
						<line class="st3" x1="141" y1="720.5" x2="2038.7" y2="720.5"/>
						<line class="st3" x1="141" y1="602.8" x2="2038.7" y2="602.8"/>
						<line class="st3" x1="141" y1="485.2" x2="2038.7" y2="485.2"/>
						<line class="st3" x1="141" y1="367.5" x2="2038.7" y2="367.5"/>
						<line class="st3" x1="141" y1="249.8" x2="2038.7" y2="249.8"/>
						<line class="st3" x1="141" y1="132.2" x2="2038.7" y2="132.2"/>
					</g>
				</g>
			</g>
			<g>
				<g>
					<g>
						<g>
							<line class="st4" x1="141" y1="1014.6" x2="2038.7" y2="1014.6"/>
						</g>
						<g>
							<g transform="translate(87.05658569335938,486.69524049948126)">
								<line class="st3" x1="54" y1="528" x2="54" y2="547.1"/>
								<text transform="matrix(0.5658 -0.8245 0.5658 0.8245 56.3885 581.7513)" class="st5 st6">0</text>
							</g>
							<g transform="translate(1319.2999267578125, 486.69525146484375)">
								<line class="st3" x1="508.5" y1="528" x2="508.5" y2="547.1"/>
								<text transform="matrix(0.5658 -0.8245 0.5658 0.8245 503.5747 592.5192)" class="st5 st6">40</text>
							</g>
							<g transform="translate(1011.2390747070312, 486.69525146484375)">
								<line class="st3" x1="394.9" y1="528" x2="394.9" y2="547.1"/>
								<text transform="matrix(0.5658 -0.8245 0.5658 0.8245 389.9307 592.52)" class="st5 st6">30</text>
							</g>
							<g transform="translate(703.1782836914062, 486.69525146484375)">
								<line class="st3" x1="281.3" y1="528" x2="281.3" y2="547.1"/>
								<text transform="matrix(0.5658 -0.8245 0.5658 0.8245 276.2873 592.5199)" class="st5 st6">20</text>
							</g>
							<g transform="translate(395.117431640625, 486.69525146484375)">
								<line class="st3" x1="167.6" y1="528" x2="167.6" y2="547.1"/>
								<text transform="matrix(0.5658 -0.8245 0.5658 0.8245 162.6433 592.5206)" class="st5 st6">10</text>
							</g>
							<g transform="translate(241.08700561523438, 486.69525146484375)">
								<line class="st3" x1="110.8" y1="528" x2="110.8" y2="547.1"/>
								<text transform="matrix(0.5658 -0.8245 0.5658 0.8245 113.2111 581.7509)" class="st5 st6">5</text>
							</g>
							<g transform="translate(1473.330322265625, 486.69525146484375)">
								<line class="st3" x1="565.4" y1="528" x2="565.4" y2="547.1"/>
								<text transform="matrix(0.5658 -0.8245 0.5658 0.8245 560.3962 592.5188)" class="st5 st6">45</text>
							</g>
							<g transform="translate(1165.26953125, 486.69525146484375)">
								<line class="st3" x1="451.7" y1="528" x2="451.7" y2="547.1"/>
								<text transform="matrix(0.5658 -0.8245 0.5658 0.8245 446.7534 592.5194)" class="st5 st6">35</text>
							</g>
							<g transform="translate(857.2086791992188, 486.69525146484375)">
								<line class="st3" x1="338.1" y1="528" x2="338.1" y2="547.1"/>
								<text transform="matrix(0.5658 -0.8245 0.5658 0.8245 333.1087 592.5196)" class="st5 st6">25</text>
							</g>
							<g transform="translate(549.1478271484375, 486.69525146484375)">
								<line class="st3" x1="224.4" y1="528" x2="224.4" y2="547.1"/>
								<text transform="matrix(0.5658 -0.8245 0.5658 0.8245 219.4648 592.5186)" class="st5 st6">15</text>
							</g>
						</g>
						<g>
							<text transform="matrix(0.6862 0 0 1 837.9916 1164.4888)" class="st7 st8">% of First Preference Vote</text>
						</g>
					</g>
				</g>
				<g>
					<g>
						<g>
							<line class="st4" x1="141" y1="838.2" x2="141" y2="955.8"/>
						</g>
						<g>
							<g transform="translate(87.05658721923828, 457.2049255371094)">
								<line class="st3" x1="54" y1="498.6" x2="40.8" y2="498.6"/>
								<text transform="matrix(0.6862 0 0 1 -24.6593 516.3082)" class="st7 st9">IND</text>
							</g>
							<g transform="translate(87.05658721923828, 398.2242431640625)">
								<line class="st3" x1="54" y1="439.9" x2="40.8" y2="439.9"/>
								<text transform="matrix(0.6862 0 0 1 -65.2076 457.6268)" class="st7 st9">S-PBP</text>
							</g>
							<g transform="translate(87.05658569335938,339.2436028433934)">
								<line class="st3" x1="54" y1="381.3" x2="40.8" y2="381.3"/>
								<text transform="matrix(0.6862 0 0 1 -9.5724 398.9454)" class="st7 st9">SD</text>
							</g>
							<g transform="translate(87.05658721923828, 280.262939453125)">
								<line class="st3" x1="54" y1="322.6" x2="40.8" y2="322.6"/>
								<text transform="matrix(0.6862 0 0 1 -27.9342 340.2649)" class="st7 st9">LAB</text>
							</g>
							<g transform="translate(87.05658721923828, 221.28228759765625)">
								<line class="st3" x1="54" y1="263.9" x2="40.8" y2="263.9"/>
								<text transform="matrix(0.6862 0 0 1 -11.1549 281.5829)" class="st7 st9">GP</text>
							</g>
							<g transform="translate(87.05658721923828, 162.3016357421875)">
								<line class="st3" x1="54" y1="205.2" x2="40.8" y2="205.2"/>
								<text transform="matrix(0.6862 0 0 1 -8.1373 222.9015)" class="st7 st9">FG</text>
							</g>
							<g transform="translate(87.05658721923828, 103.32098388671875)">
								<line class="st3" x1="54" y1="146.5" x2="40.8" y2="146.5"/>
								<text transform="matrix(0.6862 0 0 1 -4.3102 164.2195)" class="st7 st9">FF</text>
							</g>
							<g transform="translate(87.05658721923828, 44.340328216552734)">
								<line class="st3" x1="54" y1="87.8" x2="40.8" y2="87.8"/>
								<text transform="matrix(0.6862 0 0 1 -5.4879 105.5386)" class="st7 st9">SF</text>
							</g>
						</g>
					</g>
				</g>
			</g>
			<g>
				<defs>
					<rect id="SVGID_5_" x="141" y="73.4" width="1897.7" height="941.3"/>
				</defs>
				<clipPath id="SVGID_6_">
					<use xlink:href="#SVGID_5_"  style="overflow:visible;"/>
				</clipPath>
			</g>
		</g>
		<g transform="translate(0, 0)">
			<g>
				<defs>
					<rect id="SVGID_7_" x="2.1" y="15" width="2056.3" height="1143.3"/>
				</defs>
				<clipPath id="SVGID_8_">
					<use xlink:href="#SVGID_7_"  style="overflow:visible;"/>
				</clipPath>
				<polygon class="st10" points="141,43.7 141,43.7 141,43.7 				"/>
			</g>
			<g>
				<defs>
					<rect id="SVGID_9_" x="2.1" y="15" width="2056.3" height="1143.3"/>
				</defs>
				<clipPath id="SVGID_10_">
					<use xlink:href="#SVGID_9_"  style="overflow:visible;"/>
				</clipPath>
			</g>
		</g>
	</g>
</g>
<g id="data-points">
	<g>
		<defs>
			<rect id="SVGID_11_" x="51.9" y="28.3" width="2056.3" height="1143.3"/>
		</defs>
		<clipPath id="SVGID_12_">
			<use xlink:href="#SVGID_11_"  style="overflow:visible;"/>
		</clipPath>
		<g transform="translate(0,0)" class="st11">
			<path id="point-0-0" class="st12" d="M190.8,87.3h1871.9v116.5H190.8V87.3z"/>
			<path id="point-0-1" class="st13" d="M190.8,204.9h508.2v116.5H190.8V204.9z"/>
			<path id="point-0-2" class="st14" d="M190.8,322.6h466v116.5h-466V322.6z"/>
			<path id="point-0-3" class="st15" d="M190.8,440.3h201.6v116.5H190.8V440.3z"/>
			<path id="point-0-4" class="st16" d="M190.8,557.9h110.5v116.5H190.8V557.9z"/>
			<path id="point-0-5" class="st17" d="M190.8,675.6h797.4v116.5H190.8V675.6z"/>
			<path id="point-0-6" class="st18" d="M190.8,793.3h158.1v116.5H190.8V793.3z"/>
			<path id="point-0-7" class="st19" d="M190.8,910.9h103.3v116.5H190.8V910.9z"/>
		</g>
	</g>
</g>
<g id="data-point-labels">
	<g>
		<defs>
			<rect id="SVGID_13_" x="51.9" y="28.3" width="2056.3" height="1143.3"/>
		</defs>
		<clipPath id="SVGID_14_">
			<use xlink:href="#SVGID_13_"  style="overflow:visible;"/>
		</clipPath>
		<g transform="translate(0,0)" class="st20">
			<g transform="translate(1419.5855712890625, 52.26032638549805)" pointer-events="none">
				<text transform="matrix(0.6862 0 0 1 557.0406 109.0692)" class="st21 st22">44.39</text>
				<text transform="matrix(0.6862 0 0 1 557.0406 109.0692)" class="st23 st21 st22">44.39</text>
				<text transform="matrix(0.6862 0 0 1 557.0406 109.0692)" class="st24 st21 st22">44.39</text>
			</g>
			<g transform="translate(423.3167724609375, 111.24098205566406)" pointer-events="none">
				<text transform="matrix(0.6862 0 0 1 189.5155 167.7501)" class="st21 st22">12.05</text>
				<text transform="matrix(0.6862 0 0 1 189.5155 167.7501)" class="st25 st21 st22">12.05</text>
				<text transform="matrix(0.6862 0 0 1 189.5155 167.7501)" class="st24 st21 st22">12.05</text>
			</g>
			<g transform="translate(392.51068115234375, 170.2216339111328)" pointer-events="none">
				<text transform="matrix(0.6862 0 0 1 178.1507 226.4316)" class="st21 st22">11.05</text>
				<text transform="matrix(0.6862 0 0 1 178.1507 226.4316)" class="st26 st21 st22">11.05</text>
				<text transform="matrix(0.6862 0 0 1 178.1507 226.4316)" class="st24 st21 st22">11.05</text>
			</g>
			<g transform="translate(205.70028686523438, 229.20228576660156)" pointer-events="none">
				<text transform="matrix(0.6862 0 0 1 117.6632 285.1135)" class="st21 st22">4.78</text>
				<text transform="matrix(0.6862 0 0 1 117.6632 285.1135)" class="st27 st21 st22">4.78</text>
				<text transform="matrix(0.6862 0 0 1 117.6632 285.1135)" class="st24 st21 st22">4.78</text>
			</g>
			<g transform="translate(139.15914916992188, 288.1829528808594)" pointer-events="none">
				<text transform="matrix(0.6862 0 0 1 93.116 343.794)" class="st21 st22">2.62</text>
				<text transform="matrix(0.6862 0 0 1 93.116 343.794)" class="st28 st21 st22">2.62</text>
				<text transform="matrix(0.6862 0 0 1 93.116 343.794)" class="st24 st21 st22">2.62</text>
			</g>
			<g transform="translate(634.646484375, 347.1636047363281)" pointer-events="none">
				<text transform="matrix(0.6862 0 0 1 267.4753 402.4745)" class="st21 st22">18.91</text>
				<text transform="matrix(0.6862 0 0 1 267.4753 402.4745)" class="st29 st21 st22">18.91</text>
				<text transform="matrix(0.6862 0 0 1 267.4753 402.4745)" class="st24 st21 st22">18.91</text>
			</g>
			<g transform="translate(173.97003173828125, 406.1442565917969)" pointer-events="none">
				<text transform="matrix(0.6862 0 0 1 105.9575 461.1569)" class="st21 st22">3.75</text>
				<text transform="matrix(0.6862 0 0 1 105.9575 461.1569)" class="st30 st21 st22">3.75</text>
				<text transform="matrix(0.6862 0 0 1 105.9575 461.1569)" class="st24 st21 st22">3.75</text>
			</g>
			<g transform="translate(133.922119140625, 465.1249084472656)" pointer-events="none">
				<text transform="matrix(0.6862 0 0 1 91.1846 519.8384)" class="st21 st22">2.45</text>
				<text transform="matrix(0.6862 0 0 1 91.1846 519.8384)" class="st31 st21 st22">2.45</text>
				<text transform="matrix(0.6862 0 0 1 91.1846 519.8384)" class="st24 st21 st22">2.45</text>
			</g>
		</g>
	</g>
</g>
<g>
	<g transform="translate(0, 0)">
	</g>
</g>
</svg>
