<?xml version="1.0" encoding="utf-8"?>
<!-- Generator: Adobe Illustrator 25.2.1, SVG Export Plug-In . SVG Version: 6.00 Build 0)  -->
<svg version="1.1" id="Layer_1" xmlns="http://www.w3.org/2000/svg" xmlns:xlink="http://www.w3.org/1999/xlink" x="0px" y="0px"
	 viewBox="0 0 2160 1200" style="enable-background:new 0 0 2160 1200;" xml:space="preserve">
<style type="text/css">
	.st0{fill:none;}
	.st1{fill-opacity:0;}
	.st2{clip-path:url(#SVGID_4_);}
	.st3{fill:none;stroke:#EEEEEE;stroke-width:2;}
	.st4{fill:none;stroke:#EEEEEE;stroke-width:2;stroke-linecap:square;}
	.st5{font-family:'SourceSansPro-Regular';}
	.st6{font-size:26.36px;}
	.st7{font-family:'SourceSansPro-Bold';}
	.st8{font-size:64.3374px;}
	.st9{font-size:52.9837px;}
	.st10{clip-path:url(#SVGID_8_);fill:#EEEEEE;}
	.st11{clip-path:url(#SVGID_12_);}
	.st12{fill:#0D5F02;}
	.st13{fill:#0ECB01;}
	.st14{fill:#0E00D6;}
	.st15{fill:#7CC56D;}
	.st16{fill:#FF0000;}
	.st17{fill:#703610;}
	.st18{fill:#FF6F00;}
	.st19{fill:#6E6E6E;}
	.st20{clip-path:url(#SVGID_14_);}
	.st21{font-family:'SourceSansPro-Semibold';}
	.st22{font-size:47.3069px;}
	.st23{fill:none;stroke:#0D5F02;stroke-width:7.2;}
	.st24{fill:#FFFFFF;}
	.st25{fill:none;stroke:#0ECB01;stroke-width:7.2;}
	.st26{fill:none;stroke:#0E00D6;stroke-width:7.2;}
	.st27{fill:none;stroke:#7CC56D;stroke-width:7.2;}
	.st28{fill:none;stroke:#FF0000;stroke-width:7.2;}
	.st29{fill:none;stroke:#703610;stroke-width:7.2;}
	.st30{fill:none;stroke:#FF6F00;stroke-width:7.2;}
	.st31{fill:none;stroke:#6E6E6E;stroke-width:7.2;}
</style>
<g>
	<g transform="translate(0,0)">
		<g>
			<g>
				<rect x="143.7" y="90.6" class="st0" width="1962.9" height="930.1"/>
				<rect x="143.7" y="90.6" class="st1" width="1962.9" height="930.1"/>
			</g>
			<g>
				<defs>
					<rect id="SVGID_1_" x="143.7" y="90.6" width="1962.9" height="930.1"/>
				</defs>
				<clipPath id="SVGID_2_">
					<use xlink:href="#SVGID_1_"  style="overflow:visible;"/>
				</clipPath>
			</g>
			<g>
				<defs>
					<rect id="SVGID_3_" x="140.9" y="86.7" width="1968.6" height="937.9"/>
				</defs>
				<clipPath id="SVGID_4_">
					<use xlink:href="#SVGID_3_"  style="overflow:visible;"/>
				</clipPath>
				<g class="st2">
					<g>
						<line class="st3" x1="143.7" y1="962.6" x2="2106.7" y2="962.6"/>
						<line class="st3" x1="143.7" y1="846.3" x2="2106.7" y2="846.3"/>
						<line class="st3" x1="143.7" y1="730.1" x2="2106.7" y2="730.1"/>
						<line class="st3" x1="143.7" y1="613.8" x2="2106.7" y2="613.8"/>
						<line class="st3" x1="143.7" y1="497.5" x2="2106.7" y2="497.5"/>
						<line class="st3" x1="143.7" y1="381.3" x2="2106.7" y2="381.3"/>
						<line class="st3" x1="143.7" y1="265" x2="2106.7" y2="265"/>
						<line class="st3" x1="143.7" y1="148.8" x2="2106.7" y2="148.8"/>
					</g>
				</g>
			</g>
			<g>
				<g>
					<g>
						<g>
							<line class="st4" x1="143.7" y1="1020.7" x2="2106.7" y2="1020.7"/>
						</g>
						<g>
							<g transform="translate(87.05658569335938,486.69524049948126)">
								<line class="st3" x1="56.7" y1="534" x2="56.7" y2="552.9"/>
								<text transform="matrix(0.5834 -0.8122 0.5834 0.8122 59.1775 587.1581)" class="st5 st6">0</text>
							</g>
							<g transform="translate(1386.688232421875, 486.69525146484375)">
								<line class="st3" x1="597.3" y1="534" x2="597.3" y2="552.9"/>
								<text transform="matrix(0.5834 -0.8122 0.5834 0.8122 592.1536 597.7994)" class="st5 st6">30</text>
							</g>
							<g transform="translate(953.4776611328125, 486.69525146484375)">
								<line class="st3" x1="417.1" y1="534" x2="417.1" y2="552.9"/>
								<text transform="matrix(0.5834 -0.8122 0.5834 0.8122 411.9469 597.7988)" class="st5 st6">20</text>
							</g>
							<g transform="translate(520.2671508789062, 486.69525146484375)">
								<line class="st3" x1="236.9" y1="534" x2="236.9" y2="552.9"/>
								<text transform="matrix(0.5834 -0.8122 0.5834 0.8122 231.7414 597.7996)" class="st5 st6">10</text>
							</g>
							<g transform="translate(303.661865234375, 486.69525146484375)">
								<line class="st3" x1="146.8" y1="534" x2="146.8" y2="552.9"/>
								<text transform="matrix(0.5834 -0.8122 0.5834 0.8122 149.2814 587.1593)" class="st5 st6">5</text>
							</g>
							<g transform="translate(1170.0830078125, 486.69525146484375)">
								<line class="st3" x1="507.2" y1="534" x2="507.2" y2="552.9"/>
								<text transform="matrix(0.5834 -0.8122 0.5834 0.8122 502.0502 597.7991)" class="st5 st6">25</text>
							</g>
							<g transform="translate(736.8724365234375, 486.69525146484375)">
								<line class="st3" x1="327" y1="534" x2="327" y2="552.9"/>
								<text transform="matrix(0.5834 -0.8122 0.5834 0.8122 321.8448 597.7999)" class="st5 st6">15</text>
							</g>
						</g>
						<g>
							<text transform="matrix(0.7184 0 0 1 864.6699 1168.7534)" class="st7 st8">% of First Preference Vote</text>
						</g>
					</g>
				</g>
				<g>
					<g>
						<g>
							<line class="st4" x1="143.7" y1="846.3" x2="143.7" y2="962.6"/>
						</g>
						<g>
							<g transform="translate(87.05658569335938,457.20491296826367)">
								<line class="st3" x1="56.7" y1="505.4" x2="43.1" y2="505.4"/>
								<text transform="matrix(0.7184 0 0 1 -24.6538 522.8502)" class="st7 st9">IND</text>
							</g>
							<g transform="translate(87.05658569335938,398.22425790582855)">
								<line class="st3" x1="56.7" y1="448.1" x2="43.1" y2="448.1"/>
								<text transform="matrix(0.7184 0 0 1 -36.4917 465.5731)" class="st7 st9">AON</text>
							</g>
							<g transform="translate(87.05658721923828, 339.24359130859375)">
								<line class="st3" x1="56.7" y1="390.8" x2="43.1" y2="390.8"/>
								<text transform="matrix(0.7184 0 0 1 -66.5962 408.295)" class="st7 st9">S-PBP</text>
							</g>
							<g transform="translate(87.05658569335938,280.2629477809582)">
								<line class="st3" x1="56.7" y1="333.5" x2="43.1" y2="333.5"/>
								<text transform="matrix(0.7184 0 0 1 -28.041 351.0178)" class="st7 st9">LAB</text>
							</g>
							<g transform="translate(87.05658569335938,221.28229271852305)">
								<line class="st3" x1="56.7" y1="276.3" x2="43.1" y2="276.3"/>
								<text transform="matrix(0.7184 0 0 1 -10.6851 293.7407)" class="st7 st9">GP</text>
							</g>
							<g transform="translate(87.05658569335938,162.3016376560879)">
								<line class="st3" x1="56.7" y1="219" x2="43.1" y2="219"/>
								<text transform="matrix(0.7184 0 0 1 -7.564 236.4625)" class="st7 st9">FG</text>
							</g>
							<g transform="translate(87.05658569335938,103.32098259365274)">
								<line class="st3" x1="56.7" y1="161.7" x2="43.1" y2="161.7"/>
								<text transform="matrix(0.7184 0 0 1 -3.605 179.1859)" class="st7 st9">FF</text>
							</g>
							<g transform="translate(87.05658569335938,44.34032753121759)">
								<line class="st3" x1="56.7" y1="104.4" x2="43.1" y2="104.4"/>
								<text transform="matrix(0.7184 0 0 1 -4.8237 121.9082)" class="st7 st9">SF</text>
							</g>
						</g>
					</g>
				</g>
			</g>
			<g>
				<defs>
					<rect id="SVGID_5_" x="143.7" y="90.6" width="1962.9" height="930.1"/>
				</defs>
				<clipPath id="SVGID_6_">
					<use xlink:href="#SVGID_5_"  style="overflow:visible;"/>
				</clipPath>
			</g>
		</g>
		<g transform="translate(0, 0)">
			<g>
				<defs>
					<rect id="SVGID_7_" x="0.1" y="33" width="2127" height="1129.7"/>
				</defs>
				<clipPath id="SVGID_8_">
					<use xlink:href="#SVGID_7_"  style="overflow:visible;"/>
				</clipPath>
				<polygon class="st10" points="143.7,61.4 143.7,61.4 143.7,61.4 				"/>
			</g>
			<g>
				<defs>
					<rect id="SVGID_9_" x="0.1" y="33" width="2127" height="1129.7"/>
				</defs>
				<clipPath id="SVGID_10_">
					<use xlink:href="#SVGID_9_"  style="overflow:visible;"/>
				</clipPath>
			</g>
		</g>
	</g>
</g>
<g id="data-points">
	<g>
		<defs>
			<rect id="SVGID_11_" x="51.5" y="46.2" width="2127" height="1129.7"/>
		</defs>
		<clipPath id="SVGID_12_">
			<use xlink:href="#SVGID_11_"  style="overflow:visible;"/>
		</clipPath>
		<g transform="translate(0,0)" class="st11">
			<path id="point-0-0" class="st12" d="M195.2,104.4H908v115.1H195.2V104.4z"/>
			<path id="point-0-1" class="st13" d="M195.2,220.7h786.4v115.1H195.2V220.7z"/>
			<path id="point-0-2" class="st14" d="M195.2,336.9h1913.2V452H195.2V336.9z"/>
			<path id="point-0-3" class="st15" d="M195.2,453.2h1296.1v115.1H195.2V453.2z"/>
			<path id="point-0-4" class="st16" d="M195.2,569.4h460.1v115.1H195.2V569.4z"/>
			<path id="point-0-5" class="st17" d="M195.2,685.7h216.5v115.1H195.2V685.7z"/>
			<path id="point-0-6" class="st18" d="M195.2,802h204.3V917H195.2V802z"/>
			<path id="point-0-7" class="st19" d="M195.2,918.2h544.7v115.1H195.2V918.2z"/>
		</g>
	</g>
</g>
<g id="data-point-labels">
	<g>
		<defs>
			<rect id="SVGID_13_" x="51.5" y="46.2" width="2127" height="1129.7"/>
		</defs>
		<clipPath id="SVGID_14_">
			<use xlink:href="#SVGID_13_"  style="overflow:visible;"/>
		</clipPath>
		<g transform="translate(0,0)" class="st20">
			<g transform="translate(555.494140625, 52.26032638549805)" pointer-events="none">
				<text transform="matrix(0.7184 0 0 1 263.4335 125.3051)" class="st21 st22">11.62</text>
				<text transform="matrix(0.7184 0 0 1 263.4335 125.3051)" class="st23 st21 st22">11.62</text>
				<text transform="matrix(0.7184 0 0 1 263.4335 125.3051)" class="st24 st21 st22">11.62</text>
			</g>
			<g transform="translate(607.4793701171875, 111.24098205566406)" pointer-events="none">
				<text transform="matrix(0.7184 0 0 1 285.0577 182.5813)" class="st21 st22">12.82</text>
				<text transform="matrix(0.7184 0 0 1 285.0577 182.5813)" class="st25 st21 st22">12.82</text>
				<text transform="matrix(0.7184 0 0 1 285.0577 182.5813)" class="st24 st21 st22">12.82</text>
			</g>
			<g transform="translate(1403.287109375, 170.2216339111328)" pointer-events="none">
				<text transform="matrix(0.7184 0 0 1 616.0966 239.8584)" class="st21 st22">31.19</text>
				<text transform="matrix(0.7184 0 0 1 616.0966 239.8584)" class="st26 st21 st22">31.19</text>
				<text transform="matrix(0.7184 0 0 1 616.0966 239.8584)" class="st24 st21 st22">31.19</text>
			</g>
			<g transform="translate(967.4773559570312, 229.20228576660156)" pointer-events="none">
				<text transform="matrix(0.7184 0 0 1 434.8087 297.1356)" class="st21 st22">21.13</text>
				<text transform="matrix(0.7184 0 0 1 434.8087 297.1356)" class="st27 st21 st22">21.13</text>
				<text transform="matrix(0.7184 0 0 1 434.8087 297.1356)" class="st24 st21 st22">21.13</text>
			</g>
			<g transform="translate(389.6832580566406, 288.1829528808594)" pointer-events="none">
				<text transform="matrix(0.7184 0 0 1 211.8924 354.4128)" class="st21 st22">7.5</text>
				<text transform="matrix(0.7184 0 0 1 211.8924 354.4128)" class="st28 st21 st22">7.5</text>
				<text transform="matrix(0.7184 0 0 1 211.8924 354.4128)" class="st24 st21 st22">7.5</text>
			</g>
			<g transform="translate(211.3705291748047, 347.1636047363281)" pointer-events="none">
				<text transform="matrix(0.7184 0 0 1 129.002 411.6909)" class="st21 st22">3.53</text>
				<text transform="matrix(0.7184 0 0 1 129.002 411.6909)" class="st29 st21 st22">3.53</text>
				<text transform="matrix(0.7184 0 0 1 129.002 411.6909)" class="st24 st21 st22">3.53</text>
			</g>
			<g transform="translate(202.70632934570312, 406.1442565917969)" pointer-events="none">
				<text transform="matrix(0.7184 0 0 1 125.3976 468.968)" class="st21 st22">3.33</text>
				<text transform="matrix(0.7184 0 0 1 125.3976 468.968)" class="st30 st21 st22">3.33</text>
				<text transform="matrix(0.7184 0 0 1 125.3976 468.968)" class="st24 st21 st22">3.33</text>
			</g>
			<g transform="translate(443.13818359375, 465.1249084472656)" pointer-events="none">
				<text transform="matrix(0.7184 0 0 1 225.4115 526.2452)" class="st21 st22">8.88</text>
				<text transform="matrix(0.7184 0 0 1 225.4115 526.2452)" class="st31 st21 st22">8.88</text>
				<text transform="matrix(0.7184 0 0 1 225.4115 526.2452)" class="st24 st21 st22">8.88</text>
			</g>
		</g>
	</g>
</g>
<g>
	<g transform="translate(0, 0)">
	</g>
</g>
</svg>
