<?xml version="1.0" encoding="utf-8"?>
<!-- Generator: Adobe Illustrator 25.2.1, SVG Export Plug-In . SVG Version: 6.00 Build 0)  -->
<svg version="1.1" id="Layer_1" xmlns="http://www.w3.org/2000/svg" xmlns:xlink="http://www.w3.org/1999/xlink" x="0px" y="0px"
	 viewBox="0 0 2160 1200" style="enable-background:new 0 0 2160 1200;" xml:space="preserve">
<style type="text/css">
	.st0{fill:none;}
	.st1{fill-opacity:0;}
	.st2{clip-path:url(#SVGID_4_);}
	.st3{fill:none;stroke:#EEEEEE;stroke-width:2;}
	.st4{fill:none;stroke:#EEEEEE;stroke-width:2;stroke-linecap:square;}
	.st5{font-family:'SourceSansPro-Regular';}
	.st6{font-size:26.9272px;}
	.st7{font-family:'SourceSansPro-Bold';}
	.st8{font-size:67.2335px;}
	.st9{font-size:55.3688px;}
	.st10{clip-path:url(#SVGID_8_);fill:#EEEEEE;}
	.st11{clip-path:url(#SVGID_12_);}
	.st12{fill:#0D5F02;}
	.st13{fill:#0ECB01;}
	.st14{fill:#0E00D6;}
	.st15{fill:#7CC56D;}
	.st16{fill:#FF0000;}
	.st17{fill:#E292F2;}
	.st18{fill:#5500FF;}
	.st19{fill:#703610;}
	.st20{fill:#6E6E6E;}
	.st21{clip-path:url(#SVGID_14_);}
	.st22{font-family:'SourceSansPro-Semibold';}
	.st23{font-size:49.4364px;}
	.st24{fill:none;stroke:#0D5F02;stroke-width:7.2;}
	.st25{fill:#FFFFFF;}
	.st26{fill:none;stroke:#0ECB01;stroke-width:7.2;}
	.st27{fill:none;stroke:#0E00D6;stroke-width:7.2;}
	.st28{fill:none;stroke:#7CC56D;stroke-width:7.2;}
	.st29{fill:none;stroke:#FF0000;stroke-width:7.2;}
	.st30{fill:none;stroke:#E292F2;stroke-width:7.2;}
	.st31{fill:none;stroke:#5500FF;stroke-width:7.2;}
	.st32{fill:none;stroke:#703610;stroke-width:7.2;}
	.st33{fill:none;stroke:#6E6E6E;stroke-width:7.2;}
</style>
<g>
	<g transform="translate(0,0)">
		<g>
			<g>
				<rect x="133.6" y="56.2" class="st0" width="1912.6" height="971.9"/>
				<rect x="133.6" y="56.2" class="st1" width="1912.6" height="971.9"/>
			</g>
			<g>
				<defs>
					<rect id="SVGID_1_" x="133.6" y="56.2" width="1912.6" height="971.9"/>
				</defs>
				<clipPath id="SVGID_2_">
					<use xlink:href="#SVGID_1_"  style="overflow:visible;"/>
				</clipPath>
			</g>
			<g>
				<defs>
					<rect id="SVGID_3_" x="130.9" y="52.1" width="1918.2" height="980.2"/>
				</defs>
				<clipPath id="SVGID_4_">
					<use xlink:href="#SVGID_3_"  style="overflow:visible;"/>
				</clipPath>
				<g class="st2">
					<g>
						<line class="st3" x1="133.6" y1="974.1" x2="2046.3" y2="974.1"/>
						<line class="st3" x1="133.6" y1="866.2" x2="2046.3" y2="866.2"/>
						<line class="st3" x1="133.6" y1="758.2" x2="2046.3" y2="758.2"/>
						<line class="st3" x1="133.6" y1="650.2" x2="2046.3" y2="650.2"/>
						<line class="st3" x1="133.6" y1="542.2" x2="2046.3" y2="542.2"/>
						<line class="st3" x1="133.6" y1="434.2" x2="2046.3" y2="434.2"/>
						<line class="st3" x1="133.6" y1="326.2" x2="2046.3" y2="326.2"/>
						<line class="st3" x1="133.6" y1="218.2" x2="2046.3" y2="218.2"/>
						<line class="st3" x1="133.6" y1="110.2" x2="2046.3" y2="110.2"/>
					</g>
				</g>
			</g>
			<g>
				<g>
					<g>
						<g>
							<line class="st4" x1="133.6" y1="1028.1" x2="2046.3" y2="1028.1"/>
						</g>
						<g>
							<g transform="translate(87.05658569335938,486.69524049948126)">
								<line class="st3" x1="46.6" y1="541.4" x2="46.6" y2="561.2"/>
								<text transform="matrix(0.5565 -0.8308 0.5565 0.8308 49.0011 596.9933)" class="st5 st6">0</text>
							</g>
							<g transform="translate(1473.330322265625, 486.69525146484375)">
								<line class="st3" x1="572.9" y1="541.4" x2="572.9" y2="561.2"/>
								<text transform="matrix(0.5565 -0.8308 0.5565 0.8308 567.9161 608.1135)" class="st5 st6">40</text>
							</g>
							<g transform="translate(1126.761962890625, 486.69525146484375)">
								<line class="st3" x1="441.3" y1="541.4" x2="441.3" y2="561.2"/>
								<text transform="matrix(0.5565 -0.8308 0.5565 0.8308 436.3262 608.1136)" class="st5 st6">30</text>
							</g>
							<g transform="translate(780.1934814453125, 486.69525146484375)">
								<line class="st3" x1="309.7" y1="541.4" x2="309.7" y2="561.2"/>
								<text transform="matrix(0.5565 -0.8308 0.5565 0.8308 304.7351 608.1124)" class="st5 st6">20</text>
							</g>
							<g transform="translate(433.6250305175781, 486.69525146484375)">
								<line class="st3" x1="178.1" y1="541.4" x2="178.1" y2="561.2"/>
								<text transform="matrix(0.5565 -0.8308 0.5565 0.8308 173.1441 608.1127)" class="st5 st6">10</text>
							</g>
							<g transform="translate(260.3408203125, 486.69525146484375)">
								<line class="st3" x1="112.4" y1="541.4" x2="112.4" y2="561.2"/>
								<text transform="matrix(0.5565 -0.8308 0.5565 0.8308 114.7967 596.9939)" class="st5 st6">5</text>
							</g>
							<g transform="translate(1300.046142578125, 486.69525146484375)">
								<line class="st3" x1="507.1" y1="541.4" x2="507.1" y2="561.2"/>
								<text transform="matrix(0.5565 -0.8308 0.5565 0.8308 502.1211 608.1136)" class="st5 st6">35</text>
							</g>
							<g transform="translate(953.4776611328125, 486.69525146484375)">
								<line class="st3" x1="375.5" y1="541.4" x2="375.5" y2="561.2"/>
								<text transform="matrix(0.5565 -0.8308 0.5565 0.8308 370.5306 608.1132)" class="st5 st6">25</text>
							</g>
							<g transform="translate(606.9092407226562, 486.69525146484375)">
								<line class="st3" x1="243.9" y1="541.4" x2="243.9" y2="561.2"/>
								<text transform="matrix(0.5565 -0.8308 0.5565 0.8308 238.9404 608.1123)" class="st5 st6">15</text>
							</g>
						</g>
						<g>
							<text transform="matrix(0.6698 0 0 1 836.0839 1182.8599)" class="st7 st8">% of First Preference Vote</text>
						</g>
					</g>
				</g>
				<g>
					<g>
						<g>
							<line class="st4" x1="133.6" y1="866.2" x2="133.6" y2="974.1"/>
						</g>
						<g>
							<g transform="translate(87.05658721923828, 460.48162841796875)">
								<line class="st3" x1="46.6" y1="513.7" x2="33.3" y2="513.7"/>
								<text transform="matrix(0.6698 0 0 1 -32.6827 531.9359)" class="st7 st9">IND</text>
							</g>
							<g transform="translate(87.05658721923828, 408.05438232421875)">
								<line class="st3" x1="46.6" y1="458.1" x2="33.3" y2="458.1"/>
								<text transform="matrix(0.6698 0 0 1 -73.5499 476.3699)" class="st7 st9">S-PBP</text>
							</g>
							<g transform="translate(87.05658569335938,355.6271181385142)">
								<line class="st3" x1="46.6" y1="402.5" x2="33.3" y2="402.5"/>
								<text transform="matrix(0.6698 0 0 1 -17.4776 420.806)" class="st7 st9">SD</text>
							</g>
							<g transform="translate(87.05658569335938,303.1998691941274)">
								<line class="st3" x1="46.6" y1="347" x2="33.3" y2="347"/>
								<text transform="matrix(0.6698 0 0 1 -25.6363 365.2411)" class="st7 st9">I4C</text>
							</g>
							<g transform="translate(87.05658721923828, 250.77261352539062)">
								<line class="st3" x1="46.6" y1="291.4" x2="33.3" y2="291.4"/>
								<text transform="matrix(0.6698 0 0 1 -35.983 309.6776)" class="st7 st9">LAB</text>
							</g>
							<g transform="translate(87.05658721923828, 198.34536743164062)">
								<line class="st3" x1="46.6" y1="235.8" x2="33.3" y2="235.8"/>
								<text transform="matrix(0.6698 0 0 1 -19.0719 254.1117)" class="st7 st9">GP</text>
							</g>
							<g transform="translate(87.05658721923828, 145.91812133789062)">
								<line class="st3" x1="46.6" y1="180.3" x2="33.3" y2="180.3"/>
								<text transform="matrix(0.6698 0 0 1 -16.0304 198.5467)" class="st7 st9">FG</text>
							</g>
							<g transform="translate(87.05658721923828, 93.49087524414062)">
								<line class="st3" x1="46.6" y1="124.7" x2="33.3" y2="124.7"/>
								<text transform="matrix(0.6698 0 0 1 -12.1734 142.9818)" class="st7 st9">FF</text>
							</g>
							<g transform="translate(87.05658721923828, 41.06362533569336)">
								<line class="st3" x1="46.6" y1="69.1" x2="33.3" y2="69.1"/>
								<text transform="matrix(0.6698 0 0 1 -13.3609 87.4168)" class="st7 st9">SF</text>
							</g>
						</g>
					</g>
				</g>
			</g>
			<g>
				<defs>
					<rect id="SVGID_5_" x="133.6" y="56.2" width="1912.6" height="971.9"/>
				</defs>
				<clipPath id="SVGID_6_">
					<use xlink:href="#SVGID_5_"  style="overflow:visible;"/>
				</clipPath>
			</g>
		</g>
		<g transform="translate(0, 0)">
			<g>
				<defs>
					<rect id="SVGID_7_" x="-6.4" y="-4" width="2072.5" height="1180.5"/>
				</defs>
				<clipPath id="SVGID_8_">
					<use xlink:href="#SVGID_7_"  style="overflow:visible;"/>
				</clipPath>
				<polygon class="st10" points="133.6,25.6 133.6,25.6 133.6,25.6 				"/>
			</g>
			<g>
				<defs>
					<rect id="SVGID_9_" x="-6.4" y="-4" width="2072.5" height="1180.5"/>
				</defs>
				<clipPath id="SVGID_10_">
					<use xlink:href="#SVGID_9_"  style="overflow:visible;"/>
				</clipPath>
			</g>
		</g>
	</g>
</g>
<g id="data-points">
	<g>
		<defs>
			<rect id="SVGID_11_" x="43.8" y="9.7" width="2072.5" height="1180.5"/>
		</defs>
		<clipPath id="SVGID_12_">
			<use xlink:href="#SVGID_11_"  style="overflow:visible;"/>
		</clipPath>
		<g transform="translate(0,0)" class="st11">
			<path id="point-0-0" class="st12" d="M183.7,70.5h1879.2v106.9H183.7V70.5z"/>
			<path id="point-0-1" class="st13" d="M183.7,178.5h528.4v106.9H183.7V178.5z"/>
			<path id="point-0-2" class="st14" d="M183.7,286.5h560.9v106.9H183.7V286.5z"/>
			<path id="point-0-3" class="st15" d="M183.7,394.5h446.1v106.9H183.7V394.5z"/>
			<path id="point-0-4" class="st16" d="M183.7,502.5h231.4v106.9H183.7V502.5z"/>
			<path id="point-0-5" class="st17" d="M183.7,610.5h312.7v106.9H183.7V610.5z"/>
			<path id="point-0-6" class="st18" d="M183.7,718.5h176v106.9h-176V718.5z"/>
			<path id="point-0-7" class="st19" d="M183.7,826.5h525v106.9h-525V826.5z"/>
			<path id="point-0-8" class="st20" d="M183.7,934.5h121.9v106.9H183.7V934.5z"/>
		</g>
	</g>
</g>
<g id="data-point-labels">
	<g>
		<defs>
			<rect id="SVGID_13_" x="43.8" y="9.7" width="2072.5" height="1180.5"/>
		</defs>
		<clipPath id="SVGID_14_">
			<use xlink:href="#SVGID_13_"  style="overflow:visible;"/>
		</clipPath>
		<g transform="translate(0,0)" class="st21">
			<g transform="translate(1420.461181640625, 48.98362350463867)" pointer-events="none">
				<text transform="matrix(0.6698 0 0 1 572.938 91.3209)" class="st22 st23">39.3</text>
				<text transform="matrix(0.6698 0 0 1 572.938 91.3209)" class="st24 st22 st23">39.3</text>
				<text transform="matrix(0.6698 0 0 1 572.938 91.3209)" class="st25 st22 st23">39.3</text>
			</g>
			<g transform="translate(435.06158447265625, 101.41087341308594)" pointer-events="none">
				<text transform="matrix(0.6698 0 0 1 190.2918 146.8858)" class="st22 st23">11.05</text>
				<text transform="matrix(0.6698 0 0 1 190.2918 146.8858)" class="st26 st22 st23">11.05</text>
				<text transform="matrix(0.6698 0 0 1 190.2918 146.8858)" class="st25 st22 st23">11.05</text>
			</g>
			<g transform="translate(458.62823486328125, 153.83811950683594)" pointer-events="none">
				<text transform="matrix(0.6698 0 0 1 199.2402 202.4517)" class="st22 st23">11.73</text>
				<text transform="matrix(0.6698 0 0 1 199.2402 202.4517)" class="st27 st22 st23">11.73</text>
				<text transform="matrix(0.6698 0 0 1 199.2402 202.4517)" class="st25 st22 st23">11.73</text>
			</g>
			<g transform="translate(381.7955627441406, 206.26536560058594)" pointer-events="none">
				<text transform="matrix(0.6698 0 0 1 178.5607 258.0157)" class="st22 st23">9.33</text>
				<text transform="matrix(0.6698 0 0 1 178.5607 258.0157)" class="st28 st22 st23">9.33</text>
				<text transform="matrix(0.6698 0 0 1 178.5607 258.0157)" class="st25 st22 st23">9.33</text>
			</g>
			<g transform="translate(226.02227783203125, 258.692626953125)" pointer-events="none">
				<text transform="matrix(0.6698 0 0 1 119.4136 313.5816)" class="st22 st23">4.84</text>
				<text transform="matrix(0.6698 0 0 1 119.4136 313.5816)" class="st29 st22 st23">4.84</text>
				<text transform="matrix(0.6698 0 0 1 119.4136 313.5816)" class="st25 st22 st23">4.84</text>
			</g>
			<g transform="translate(284.93890380859375, 311.119873046875)" pointer-events="none">
				<text transform="matrix(0.6698 0 0 1 141.7841 369.1441)" class="st22 st23">6.54</text>
				<text transform="matrix(0.6698 0 0 1 141.7841 369.1441)" class="st30 st22 st23">6.54</text>
				<text transform="matrix(0.6698 0 0 1 141.7841 369.1441)" class="st25 st22 st23">6.54</text>
			</g>
			<g transform="translate(185.98439025878906, 363.547119140625)" pointer-events="none">
				<text transform="matrix(0.6698 0 0 1 104.2117 424.711)" class="st22 st23">3.68</text>
				<text transform="matrix(0.6698 0 0 1 104.2117 424.711)" class="st31 st22 st23">3.68</text>
				<text transform="matrix(0.6698 0 0 1 104.2117 424.711)" class="st25 st22 st23">3.68</text>
			</g>
			<g transform="translate(432.6356201171875, 415.974365234375)" pointer-events="none">
				<text transform="matrix(0.6698 0 0 1 189.3701 480.275)" class="st22 st23">10.98</text>
				<text transform="matrix(0.6698 0 0 1 189.3701 480.275)" class="st32 st22 st23">10.98</text>
				<text transform="matrix(0.6698 0 0 1 189.3701 480.275)" class="st25 st22 st23">10.98</text>
			</g>
			<g transform="translate(146.82215881347656, 468.401611328125)" pointer-events="none">
				<text transform="matrix(0.6698 0 0 1 89.3412 535.8399)" class="st22 st23">2.55</text>
				<text transform="matrix(0.6698 0 0 1 89.3412 535.8399)" class="st33 st22 st23">2.55</text>
				<text transform="matrix(0.6698 0 0 1 89.3412 535.8399)" class="st25 st22 st23">2.55</text>
			</g>
		</g>
	</g>
</g>
<g>
	<g transform="translate(0, 0)">
	</g>
</g>
</svg>
