<?xml version="1.0" encoding="utf-8"?>
<!-- Generator: Adobe Illustrator 25.2.1, SVG Export Plug-In . SVG Version: 6.00 Build 0)  -->
<svg version="1.1" id="Layer_1" xmlns="http://www.w3.org/2000/svg" xmlns:xlink="http://www.w3.org/1999/xlink" x="0px" y="0px"
	 viewBox="0 0 2160 1200" style="enable-background:new 0 0 2160 1200;" xml:space="preserve">
<style type="text/css">
	.st0{fill:none;}
	.st1{fill-opacity:0;}
	.st2{clip-path:url(#SVGID_4_);}
	.st3{fill:none;stroke:#EEEEEE;stroke-width:2;}
	.st4{fill:none;stroke:#EEEEEE;stroke-width:2;stroke-linecap:square;}
	.st5{font-family:'SourceSansPro-Regular';}
	.st6{font-size:26.2641px;}
	.st7{font-family:'SourceSansPro-Bold';}
	.st8{font-size:65.0074px;}
	.st9{font-size:53.5355px;}
	.st10{clip-path:url(#SVGID_8_);fill:#EEEEEE;}
	.st11{clip-path:url(#SVGID_12_);}
	.st12{fill:#0D5F02;}
	.st13{fill:#0ECB01;}
	.st14{fill:#0E00D6;}
	.st15{fill:#7CC56D;}
	.st16{fill:#FF0000;}
	.st17{fill:#5500FF;}
	.st18{fill:#703610;}
	.st19{fill:#6E6E6E;}
	.st20{clip-path:url(#SVGID_14_);}
	.st21{font-family:'SourceSansPro-Semibold';}
	.st22{font-size:47.7995px;}
	.st23{fill:none;stroke:#0D5F02;stroke-width:7.2;}
	.st24{fill:#FFFFFF;}
	.st25{fill:none;stroke:#0ECB01;stroke-width:7.2;}
	.st26{fill:none;stroke:#0E00D6;stroke-width:7.2;}
	.st27{fill:none;stroke:#7CC56D;stroke-width:7.2;}
	.st28{fill:none;stroke:#FF0000;stroke-width:7.2;}
	.st29{fill:none;stroke:#5500FF;stroke-width:7.2;}
	.st30{fill:none;stroke:#703610;stroke-width:7.2;}
	.st31{fill:none;stroke:#6E6E6E;stroke-width:7.2;}
</style>
<g>
	<g transform="translate(0,0)">
		<g>
			<g>
				<rect x="139.3" y="74.2" class="st0" width="1901.2" height="939.7"/>
				<rect x="139.3" y="74.2" class="st1" width="1901.2" height="939.7"/>
			</g>
			<g>
				<defs>
					<rect id="SVGID_1_" x="139.3" y="74.2" width="1901.2" height="939.7"/>
				</defs>
				<clipPath id="SVGID_2_">
					<use xlink:href="#SVGID_1_"  style="overflow:visible;"/>
				</clipPath>
			</g>
			<g>
				<defs>
					<rect id="SVGID_3_" x="136.5" y="70.2" width="1906.7" height="947.7"/>
				</defs>
				<clipPath id="SVGID_4_">
					<use xlink:href="#SVGID_3_"  style="overflow:visible;"/>
				</clipPath>
				<g class="st2">
					<g>
						<line class="st3" x1="139.3" y1="955.2" x2="2040.5" y2="955.2"/>
						<line class="st3" x1="139.3" y1="837.8" x2="2040.5" y2="837.8"/>
						<line class="st3" x1="139.3" y1="720.3" x2="2040.5" y2="720.3"/>
						<line class="st3" x1="139.3" y1="602.8" x2="2040.5" y2="602.8"/>
						<line class="st3" x1="139.3" y1="485.4" x2="2040.5" y2="485.4"/>
						<line class="st3" x1="139.3" y1="367.9" x2="2040.5" y2="367.9"/>
						<line class="st3" x1="139.3" y1="250.4" x2="2040.5" y2="250.4"/>
						<line class="st3" x1="139.3" y1="133" x2="2040.5" y2="133"/>
					</g>
				</g>
			</g>
			<g>
				<g>
					<g>
						<g>
							<line class="st4" x1="139.3" y1="1014" x2="2040.5" y2="1014"/>
						</g>
						<g>
							<g transform="translate(87.05658569335938,486.69524049948126)">
								<line class="st3" x1="52.2" y1="527.3" x2="52.2" y2="546.4"/>
								<text transform="matrix(0.5671 -0.8236 0.5671 0.8236 54.6495 580.9789)" class="st5 st6">0</text>
							</g>
							<g transform="translate(1473.330322265625, 486.69525146484375)">
								<line class="st3" x1="567.1" y1="527.3" x2="567.1" y2="546.4"/>
								<text transform="matrix(0.5671 -0.8236 0.5671 0.8236 562.1648 591.7288)" class="st5 st6">30</text>
							</g>
							<g transform="translate(1011.2390747070312, 486.69525146484375)">
								<line class="st3" x1="395.5" y1="527.3" x2="395.5" y2="546.4"/>
								<text transform="matrix(0.5671 -0.8236 0.5671 0.8236 390.5255 591.73)" class="st5 st6">20</text>
							</g>
							<g transform="translate(549.1478271484375, 486.69525146484375)">
								<line class="st3" x1="223.9" y1="527.3" x2="223.9" y2="546.4"/>
								<text transform="matrix(0.5671 -0.8236 0.5671 0.8236 218.8856 591.7289)" class="st5 st6">10</text>
							</g>
							<g transform="translate(456.7295837402344, 486.69525146484375)">
								<line class="st3" x1="189.5" y1="527.3" x2="189.5" y2="546.4"/>
								<text transform="matrix(0.5671 -0.8236 0.5671 0.8236 191.9612 580.9788)" class="st5 st6">8</text>
							</g>
							<g transform="translate(364.31134033203125, 486.69525146484375)">
								<line class="st3" x1="155.2" y1="527.3" x2="155.2" y2="546.4"/>
								<text transform="matrix(0.5671 -0.8236 0.5671 0.8236 157.6326 580.9781)" class="st5 st6">6</text>
							</g>
							<g transform="translate(271.8930969238281, 486.69525146484375)">
								<line class="st3" x1="120.9" y1="527.3" x2="120.9" y2="546.4"/>
								<text transform="matrix(0.5671 -0.8236 0.5671 0.8236 123.305 580.9793)" class="st5 st6">4</text>
							</g>
							<g transform="translate(179.47483825683594, 486.69525146484375)">
								<line class="st3" x1="86.5" y1="527.3" x2="86.5" y2="546.4"/>
								<text transform="matrix(0.5671 -0.8236 0.5671 0.8236 88.977 580.9778)" class="st5 st6">2</text>
							</g>
							<g transform="translate(1380.912109375, 486.69525146484375)">
								<line class="st3" x1="532.8" y1="527.3" x2="532.8" y2="546.4"/>
								<text transform="matrix(0.5671 -0.8236 0.5671 0.8236 527.8371 591.73)" class="st5 st6">28</text>
							</g>
							<g transform="translate(1288.493896484375, 486.69525146484375)">
								<line class="st3" x1="498.5" y1="527.3" x2="498.5" y2="546.4"/>
								<text transform="matrix(0.5671 -0.8236 0.5671 0.8236 493.5083 591.7296)" class="st5 st6">26</text>
							</g>
							<g transform="translate(1196.0755615234375, 486.69525146484375)">
								<line class="st3" x1="464.2" y1="527.3" x2="464.2" y2="546.4"/>
								<text transform="matrix(0.5671 -0.8236 0.5671 0.8236 459.1816 591.7296)" class="st5 st6">24</text>
							</g>
							<g transform="translate(1103.6573486328125, 486.69525146484375)">
								<line class="st3" x1="429.8" y1="527.3" x2="429.8" y2="546.4"/>
								<text transform="matrix(0.5671 -0.8236 0.5671 0.8236 424.8528 591.7292)" class="st5 st6">22</text>
							</g>
							<g transform="translate(918.8208618164062, 486.69525146484375)">
								<line class="st3" x1="361.2" y1="527.3" x2="361.2" y2="546.4"/>
								<text transform="matrix(0.5671 -0.8236 0.5671 0.8236 356.1978 591.7312)" class="st5 st6">18</text>
							</g>
							<g transform="translate(826.402587890625, 486.69525146484375)">
								<line class="st3" x1="326.8" y1="527.3" x2="326.8" y2="546.4"/>
								<text transform="matrix(0.5671 -0.8236 0.5671 0.8236 321.8697 591.7299)" class="st5 st6">16</text>
							</g>
							<g transform="translate(733.9843139648438, 486.69525146484375)">
								<line class="st3" x1="292.5" y1="527.3" x2="292.5" y2="546.4"/>
								<text transform="matrix(0.5671 -0.8236 0.5671 0.8236 287.5411 591.7292)" class="st5 st6">14</text>
							</g>
							<g transform="translate(641.5661010742188, 486.69525146484375)">
								<line class="st3" x1="258.2" y1="527.3" x2="258.2" y2="546.4"/>
								<text transform="matrix(0.5671 -0.8236 0.5671 0.8236 253.2136 591.7303)" class="st5 st6">12</text>
							</g>
						</g>
						<g>
							<text transform="matrix(0.6886 0 0 1 837.5428 1163.561)" class="st7 st8">% of First Preference Vote</text>
						</g>
					</g>
				</g>
				<g>
					<g>
						<g>
							<line class="st4" x1="139.3" y1="837.8" x2="139.3" y2="955.2"/>
						</g>
						<g>
							<g transform="translate(87.05658721923828, 457.2049255371094)">
								<line class="st3" x1="52.2" y1="498" x2="39.1" y2="498"/>
								<text transform="matrix(0.6886 0 0 1 -26.546 515.694)" class="st7 st9">IND</text>
							</g>
							<g transform="translate(87.05658721923828, 398.2242431640625)">
								<line class="st3" x1="52.2" y1="439.5" x2="39.1" y2="439.5"/>
								<text transform="matrix(0.6886 0 0 1 -67.17 457.205)" class="st7 st9">S-PBP</text>
							</g>
							<g transform="translate(87.05658721923828, 339.24359130859375)">
								<line class="st3" x1="52.2" y1="381.1" x2="39.1" y2="381.1"/>
								<text transform="matrix(0.6886 0 0 1 -11.4317 398.7178)" class="st7 st9">SD</text>
							</g>
							<g transform="translate(87.05658721923828, 280.262939453125)">
								<line class="st3" x1="52.2" y1="322.6" x2="39.1" y2="322.6"/>
								<text transform="matrix(0.6886 0 0 1 -29.8272 340.2297)" class="st7 st9">LAB</text>
							</g>
							<g transform="translate(87.05658721923828, 221.28228759765625)">
								<line class="st3" x1="52.2" y1="264.1" x2="39.1" y2="264.1"/>
								<text transform="matrix(0.6886 0 0 1 -13.0167 281.7416)" class="st7 st9">GP</text>
							</g>
							<g transform="translate(87.05658721923828, 162.3016357421875)">
								<line class="st3" x1="52.2" y1="205.6" x2="39.1" y2="205.6"/>
								<text transform="matrix(0.6886 0 0 1 -9.9937 223.2535)" class="st7 st9">FG</text>
							</g>
							<g transform="translate(87.05658721923828, 103.32098388671875)">
								<line class="st3" x1="52.2" y1="147.1" x2="39.1" y2="147.1"/>
								<text transform="matrix(0.6886 0 0 1 -6.1598 164.7654)" class="st7 st9">FF</text>
							</g>
							<g transform="translate(87.05658721923828, 44.340328216552734)">
								<line class="st3" x1="52.2" y1="88.6" x2="39.1" y2="88.6"/>
								<text transform="matrix(0.6886 0 0 1 -7.3399 106.2769)" class="st7 st9">SF</text>
							</g>
						</g>
					</g>
				</g>
			</g>
			<g>
				<defs>
					<rect id="SVGID_5_" x="139.3" y="74.2" width="1901.2" height="939.7"/>
				</defs>
				<clipPath id="SVGID_6_">
					<use xlink:href="#SVGID_5_"  style="overflow:visible;"/>
				</clipPath>
			</g>
		</g>
		<g transform="translate(0, 0)">
			<g>
				<defs>
					<rect id="SVGID_7_" x="0.1" y="16" width="2060.1" height="1141.4"/>
				</defs>
				<clipPath id="SVGID_8_">
					<use xlink:href="#SVGID_7_"  style="overflow:visible;"/>
				</clipPath>
				<polygon class="st10" points="139.3,44.6 139.3,44.6 139.3,44.6 				"/>
			</g>
			<g>
				<defs>
					<rect id="SVGID_9_" x="0.1" y="16" width="2060.1" height="1141.4"/>
				</defs>
				<clipPath id="SVGID_10_">
					<use xlink:href="#SVGID_9_"  style="overflow:visible;"/>
				</clipPath>
			</g>
		</g>
	</g>
</g>
<g id="data-points">
	<g>
		<defs>
			<rect id="SVGID_11_" x="50" y="29.3" width="2060.1" height="1141.4"/>
		</defs>
		<clipPath id="SVGID_12_">
			<use xlink:href="#SVGID_11_"  style="overflow:visible;"/>
		</clipPath>
		<g transform="translate(0,0)" class="st11">
			<path id="point-0-0" class="st12" d="M189.1,88.1h1883.4v116.3H189.1V88.1z"/>
			<path id="point-0-1" class="st13" d="M189.1,205.6h1143.3v116.3H189.1V205.6z"/>
			<path id="point-0-2" class="st14" d="M189.1,323.1h1067.2v116.3H189.1V323.1z"/>
			<path id="point-0-3" class="st15" d="M189.1,440.5h465.2v116.3H189.1V440.5z"/>
			<path id="point-0-4" class="st16" d="M189.1,558h337.8v116.3H189.1V558z"/>
			<path id="point-0-5" class="st17" d="M189.1,675.5h259.2v116.3H189.1V675.5z"/>
			<path id="point-0-6" class="st18" d="M189.1,792.9h420.2v116.3H189.1V792.9z"/>
			<path id="point-0-7" class="st19" d="M189.1,910.4h761.1v116.3H189.1V910.4z"/>
		</g>
	</g>
</g>
<g id="data-point-labels">
	<g>
		<defs>
			<rect id="SVGID_13_" x="50" y="29.3" width="2060.1" height="1141.4"/>
		</defs>
		<clipPath id="SVGID_14_">
			<use xlink:href="#SVGID_13_"  style="overflow:visible;"/>
		</clipPath>
		<g transform="translate(0,0)" class="st20">
			<g transform="translate(1425.438720703125, 52.26032638549805)" pointer-events="none">
				<text transform="matrix(0.6886 0 0 1 560.8784 109.7909)" class="st21 st22">29.72</text>
				<text transform="matrix(0.6886 0 0 1 560.8784 109.7909)" class="st23 st21 st22">29.72</text>
				<text transform="matrix(0.6886 0 0 1 560.8784 109.7909)" class="st24 st21 st22">29.72</text>
			</g>
			<g transform="translate(885.552001953125, 111.24098205566406)" pointer-events="none">
				<text transform="matrix(0.6886 0 0 1 360.3423 168.2785)" class="st21 st22">18.04</text>
				<text transform="matrix(0.6886 0 0 1 360.3423 168.2785)" class="st25 st21 st22">18.04</text>
				<text transform="matrix(0.6886 0 0 1 360.3423 168.2785)" class="st24 st21 st22">18.04</text>
			</g>
			<g transform="translate(830.10107421875, 170.2216339111328)" pointer-events="none">
				<text transform="matrix(0.6886 0 0 1 339.7453 226.7666)" class="st21 st22">16.84</text>
				<text transform="matrix(0.6886 0 0 1 339.7453 226.7666)" class="st26 st21 st22">16.84</text>
				<text transform="matrix(0.6886 0 0 1 339.7453 226.7666)" class="st24 st21 st22">16.84</text>
			</g>
			<g transform="translate(397.4581298828125, 229.20228576660156)" pointer-events="none">
				<text transform="matrix(0.6886 0 0 1 187.4869 285.2537)" class="st21 st22">7.34</text>
				<text transform="matrix(0.6886 0 0 1 187.4869 285.2537)" class="st27 st21 st22">7.34</text>
				<text transform="matrix(0.6886 0 0 1 187.4869 285.2537)" class="st24 st21 st22">7.34</text>
			</g>
			<g transform="translate(304.7418518066406, 288.1829528808594)" pointer-events="none">
				<text transform="matrix(0.6886 0 0 1 153.0484 343.7418)" class="st21 st22">5.33</text>
				<text transform="matrix(0.6886 0 0 1 153.0484 343.7418)" class="st28 st21 st22">5.33</text>
				<text transform="matrix(0.6886 0 0 1 153.0484 343.7418)" class="st24 st21 st22">5.33</text>
			</g>
			<g transform="translate(247.44253540039062, 347.1636047363281)" pointer-events="none">
				<text transform="matrix(0.6886 0 0 1 131.7647 402.2309)" class="st21 st22">4.09</text>
				<text transform="matrix(0.6886 0 0 1 131.7647 402.2309)" class="st29 st21 st22">4.09</text>
				<text transform="matrix(0.6886 0 0 1 131.7647 402.2309)" class="st24 st21 st22">4.09</text>
			</g>
			<g transform="translate(364.813720703125, 406.1442565917969)" pointer-events="none">
				<text transform="matrix(0.6886 0 0 1 175.3618 460.719)" class="st21 st22">6.63</text>
				<text transform="matrix(0.6886 0 0 1 175.3618 460.719)" class="st30 st21 st22">6.63</text>
				<text transform="matrix(0.6886 0 0 1 175.3618 460.719)" class="st24 st21 st22">6.63</text>
			</g>
			<g transform="translate(607.0750732421875, 465.1249084472656)" pointer-events="none">
				<text transform="matrix(0.6886 0 0 1 256.9051 519.2061)" class="st21 st22">12.01</text>
				<text transform="matrix(0.6886 0 0 1 256.9051 519.2061)" class="st31 st21 st22">12.01</text>
				<text transform="matrix(0.6886 0 0 1 256.9051 519.2061)" class="st24 st21 st22">12.01</text>
			</g>
		</g>
	</g>
</g>
<g>
	<g transform="translate(0, 0)">
	</g>
</g>
</svg>
