<?xml version="1.0" encoding="utf-8"?>
<!-- Generator: Adobe Illustrator 25.2.1, SVG Export Plug-In . SVG Version: 6.00 Build 0)  -->
<svg version="1.1" id="Layer_1" xmlns="http://www.w3.org/2000/svg" xmlns:xlink="http://www.w3.org/1999/xlink" x="0px" y="0px"
	 viewBox="0 0 2160 1200" style="enable-background:new 0 0 2160 1200;" xml:space="preserve">
<style type="text/css">
	.st0{fill:none;}
	.st1{fill-opacity:0;}
	.st2{clip-path:url(#SVGID_4_);}
	.st3{fill:none;stroke:#EEEEEE;stroke-width:2;}
	.st4{fill:none;stroke:#EEEEEE;stroke-width:2;stroke-linecap:square;}
	.st5{font-family:'SourceSansPro-Regular';}
	.st6{font-size:26.7811px;}
	.st7{font-family:'SourceSansPro-Bold';}
	.st8{font-size:65.7309px;}
	.st9{font-size:54.1313px;}
	.st10{clip-path:url(#SVGID_8_);fill:#EEEEEE;}
	.st11{clip-path:url(#SVGID_12_);}
	.st12{fill:#0D5F02;}
	.st13{fill:#0ECB01;}
	.st14{fill:#0E00D6;}
	.st15{fill:#7CC56D;}
	.st16{fill:#FF0000;}
	.st17{fill:#5500FF;}
	.st18{fill:#703610;}
	.st19{fill:#FF6F00;}
	.st20{fill:#6E6E6E;}
	.st21{clip-path:url(#SVGID_14_);}
	.st22{font-family:'SourceSansPro-Semibold';}
	.st23{font-size:48.3315px;}
	.st24{fill:none;stroke:#0D5F02;stroke-width:7.2;}
	.st25{fill:#FFFFFF;}
	.st26{fill:none;stroke:#0ECB01;stroke-width:7.2;}
	.st27{fill:none;stroke:#0E00D6;stroke-width:7.2;}
	.st28{fill:none;stroke:#7CC56D;stroke-width:7.2;}
	.st29{fill:none;stroke:#FF0000;stroke-width:7.2;}
	.st30{fill:none;stroke:#5500FF;stroke-width:7.2;}
	.st31{fill:none;stroke:#703610;stroke-width:7.2;}
	.st32{fill:none;stroke:#FF6F00;stroke-width:7.2;}
	.st33{fill:none;stroke:#6E6E6E;stroke-width:7.2;}
</style>
<g>
	<g transform="translate(0,0)">
		<g>
			<g>
				<rect x="144" y="68.4" class="st0" width="1972.5" height="950.2"/>
				<rect x="144" y="68.4" class="st1" width="1972.5" height="950.2"/>
			</g>
			<g>
				<defs>
					<rect id="SVGID_1_" x="144" y="68.4" width="1972.5" height="950.2"/>
				</defs>
				<clipPath id="SVGID_2_">
					<use xlink:href="#SVGID_1_"  style="overflow:visible;"/>
				</clipPath>
			</g>
			<g>
				<defs>
					<rect id="SVGID_3_" x="141.2" y="64.3" width="1978.2" height="958.3"/>
				</defs>
				<clipPath id="SVGID_4_">
					<use xlink:href="#SVGID_3_"  style="overflow:visible;"/>
				</clipPath>
				<g class="st2">
					<g>
						<line class="st3" x1="144" y1="965.8" x2="2116.5" y2="965.8"/>
						<line class="st3" x1="144" y1="860.2" x2="2116.5" y2="860.2"/>
						<line class="st3" x1="144" y1="754.6" x2="2116.5" y2="754.6"/>
						<line class="st3" x1="144" y1="649" x2="2116.5" y2="649"/>
						<line class="st3" x1="144" y1="543.5" x2="2116.5" y2="543.5"/>
						<line class="st3" x1="144" y1="437.9" x2="2116.5" y2="437.9"/>
						<line class="st3" x1="144" y1="332.3" x2="2116.5" y2="332.3"/>
						<line class="st3" x1="144" y1="226.7" x2="2116.5" y2="226.7"/>
						<line class="st3" x1="144" y1="121.2" x2="2116.5" y2="121.2"/>
					</g>
				</g>
			</g>
			<g>
				<g>
					<g>
						<g>
							<line class="st4" x1="144" y1="1018.6" x2="2116.5" y2="1018.6"/>
						</g>
						<g>
							<g transform="translate(87.05658569335938,486.69524049948126)">
								<line class="st3" x1="56.9" y1="531.9" x2="56.9" y2="551.2"/>
								<text transform="matrix(0.5771 -0.8167 0.5771 0.8167 59.4604 586.1854)" class="st5 st6">0</text>
							</g>
							<g transform="translate(1473.330322265625, 486.69525146484375)">
								<line class="st3" x1="643.2" y1="531.9" x2="643.2" y2="551.2"/>
								<text transform="matrix(0.5771 -0.8167 0.5771 0.8167 638.0014 597.0562)" class="st5 st6">30</text>
							</g>
							<g transform="translate(1011.2390747070312, 486.69525146484375)">
								<line class="st3" x1="447.8" y1="531.9" x2="447.8" y2="551.2"/>
								<text transform="matrix(0.5771 -0.8167 0.5771 0.8167 442.5935 597.056)" class="st5 st6">20</text>
							</g>
							<g transform="translate(549.1478271484375, 486.69525146484375)">
								<line class="st3" x1="252.3" y1="531.9" x2="252.3" y2="551.2"/>
								<text transform="matrix(0.5771 -0.8167 0.5771 0.8167 247.1867 597.0559)" class="st5 st6">10</text>
							</g>
							<g transform="translate(456.7295837402344, 486.69525146484375)">
								<line class="st3" x1="213.3" y1="531.9" x2="213.3" y2="551.2"/>
								<text transform="matrix(0.5771 -0.8167 0.5771 0.8167 215.7866 586.1854)" class="st5 st6">8</text>
							</g>
							<g transform="translate(364.31134033203125, 486.69525146484375)">
								<line class="st3" x1="174.2" y1="531.9" x2="174.2" y2="551.2"/>
								<text transform="matrix(0.5771 -0.8167 0.5771 0.8167 176.704 586.1865)" class="st5 st6">6</text>
							</g>
							<g transform="translate(271.8930969238281, 486.69525146484375)">
								<line class="st3" x1="135.1" y1="531.9" x2="135.1" y2="551.2"/>
								<text transform="matrix(0.5771 -0.8167 0.5771 0.8167 137.6228 586.1855)" class="st5 st6">4</text>
							</g>
							<g transform="translate(179.47483825683594, 486.69525146484375)">
								<line class="st3" x1="96" y1="531.9" x2="96" y2="551.2"/>
								<text transform="matrix(0.5771 -0.8167 0.5771 0.8167 98.5411 586.1854)" class="st5 st6">2</text>
							</g>
							<g transform="translate(1380.912109375, 486.69525146484375)">
								<line class="st3" x1="604.1" y1="531.9" x2="604.1" y2="551.2"/>
								<text transform="matrix(0.5771 -0.8167 0.5771 0.8167 598.9196 597.0562)" class="st5 st6">28</text>
							</g>
							<g transform="translate(1288.493896484375, 486.69525146484375)">
								<line class="st3" x1="565" y1="531.9" x2="565" y2="551.2"/>
								<text transform="matrix(0.5771 -0.8167 0.5771 0.8167 559.838 597.0558)" class="st5 st6">26</text>
							</g>
							<g transform="translate(1196.0755615234375, 486.69525146484375)">
								<line class="st3" x1="525.9" y1="531.9" x2="525.9" y2="551.2"/>
								<text transform="matrix(0.5771 -0.8167 0.5771 0.8167 520.7572 597.056)" class="st5 st6">24</text>
							</g>
							<g transform="translate(1103.6573486328125, 486.69525146484375)">
								<line class="st3" x1="486.8" y1="531.9" x2="486.8" y2="551.2"/>
								<text transform="matrix(0.5771 -0.8167 0.5771 0.8167 481.6759 597.0552)" class="st5 st6">22</text>
							</g>
							<g transform="translate(918.8208618164062, 486.69525146484375)">
								<line class="st3" x1="408.7" y1="531.9" x2="408.7" y2="551.2"/>
								<text transform="matrix(0.5771 -0.8167 0.5771 0.8167 403.5128 597.056)" class="st5 st6">18</text>
							</g>
							<g transform="translate(826.402587890625, 486.69525146484375)">
								<line class="st3" x1="369.6" y1="531.9" x2="369.6" y2="551.2"/>
								<text transform="matrix(0.5771 -0.8167 0.5771 0.8167 364.4309 597.0561)" class="st5 st6">16</text>
							</g>
							<g transform="translate(733.9843139648438, 486.69525146484375)">
								<line class="st3" x1="330.5" y1="531.9" x2="330.5" y2="551.2"/>
								<text transform="matrix(0.5771 -0.8167 0.5771 0.8167 325.3503 597.056)" class="st5 st6">14</text>
							</g>
							<g transform="translate(641.5661010742188, 486.69525146484375)">
								<line class="st3" x1="291.4" y1="531.9" x2="291.4" y2="551.2"/>
								<text transform="matrix(0.5771 -0.8167 0.5771 0.8167 286.2679 597.0552)" class="st5 st6">12</text>
							</g>
						</g>
						<g>
							<text transform="matrix(0.7066 0 0 1 868.4501 1169.8325)" class="st7 st8">% of First Preference Vote</text>
						</g>
					</g>
				</g>
				<g>
					<g>
						<g>
							<line class="st4" x1="144" y1="860.2" x2="144" y2="965.8"/>
						</g>
						<g>
							<g transform="translate(87.05658721923828, 460.48162841796875)">
								<line class="st3" x1="56.9" y1="505.3" x2="43.3" y2="505.3"/>
								<text transform="matrix(0.7066 0 0 1 -24.7818 523.1653)" class="st7 st9">IND</text>
							</g>
							<g transform="translate(87.05658569335938,408.054367082901)">
								<line class="st3" x1="56.9" y1="452.2" x2="43.3" y2="452.2"/>
								<text transform="matrix(0.7066 0 0 1 -36.6768 470.0145)" class="st7 st9">AON</text>
							</g>
							<g transform="translate(87.05658721923828, 355.6271057128906)">
								<line class="st3" x1="56.9" y1="399" x2="43.3" y2="399"/>
								<text transform="matrix(0.7066 0 0 1 -66.9288 416.8626)" class="st7 st9">S-PBP</text>
							</g>
							<g transform="translate(87.05658721923828, 303.1998596191406)">
								<line class="st3" x1="56.9" y1="345.8" x2="43.3" y2="345.8"/>
								<text transform="matrix(0.7066 0 0 1 -9.1012 363.7118)" class="st7 st9">SD</text>
							</g>
							<g transform="translate(87.05658721923828, 250.77261352539062)">
								<line class="st3" x1="56.9" y1="292.7" x2="43.3" y2="292.7"/>
								<text transform="matrix(0.7066 0 0 1 -28.1856 310.5599)" class="st7 st9">LAB</text>
							</g>
							<g transform="translate(87.05658721923828, 198.34536743164062)">
								<line class="st3" x1="56.9" y1="239.5" x2="43.3" y2="239.5"/>
								<text transform="matrix(0.7066 0 0 1 -10.7447 257.4081)" class="st7 st9">GP</text>
							</g>
							<g transform="translate(87.05658721923828, 145.91812133789062)">
								<line class="st3" x1="56.9" y1="186.4" x2="43.3" y2="186.4"/>
								<text transform="matrix(0.7066 0 0 1 -7.609 204.2572)" class="st7 st9">FG</text>
							</g>
							<g transform="translate(87.05658721923828, 93.49087524414062)">
								<line class="st3" x1="56.9" y1="133.2" x2="43.3" y2="133.2"/>
								<text transform="matrix(0.7066 0 0 1 -3.631 151.1053)" class="st7 st9">FF</text>
							</g>
							<g transform="translate(87.05658721923828, 41.06362533569336)">
								<line class="st3" x1="56.9" y1="80.1" x2="43.3" y2="80.1"/>
								<text transform="matrix(0.7066 0 0 1 -4.8551 97.9544)" class="st7 st9">SF</text>
							</g>
						</g>
					</g>
				</g>
			</g>
			<g>
				<defs>
					<rect id="SVGID_5_" x="144" y="68.4" width="1972.5" height="950.2"/>
				</defs>
				<clipPath id="SVGID_6_">
					<use xlink:href="#SVGID_5_"  style="overflow:visible;"/>
				</clipPath>
			</g>
		</g>
		<g transform="translate(0, 0)">
			<g>
				<defs>
					<rect id="SVGID_7_" x="-0.4" y="9.5" width="2137.3" height="1154.1"/>
				</defs>
				<clipPath id="SVGID_8_">
					<use xlink:href="#SVGID_7_"  style="overflow:visible;"/>
				</clipPath>
				<polygon class="st10" points="144,38.5 144,38.5 144,38.5 				"/>
			</g>
			<g>
				<defs>
					<rect id="SVGID_9_" x="-0.4" y="9.5" width="2137.3" height="1154.1"/>
				</defs>
				<clipPath id="SVGID_10_">
					<use xlink:href="#SVGID_9_"  style="overflow:visible;"/>
				</clipPath>
			</g>
		</g>
	</g>
</g>
<g id="data-points">
	<g>
		<defs>
			<rect id="SVGID_11_" x="51.3" y="22.9" width="2137.3" height="1154.1"/>
		</defs>
		<clipPath id="SVGID_12_">
			<use xlink:href="#SVGID_11_"  style="overflow:visible;"/>
		</clipPath>
		<g transform="translate(0,0)" class="st11">
			<path id="point-0-0" class="st12" d="M195.7,82.4h1877.2v104.5H195.7V82.4z"/>
			<path id="point-0-1" class="st13" d="M195.7,187.9h1038.8v104.5H195.7V187.9z"/>
			<path id="point-0-2" class="st14" d="M195.7,293.5h1277.5V398H195.7V293.5z"/>
			<path id="point-0-3" class="st15" d="M195.7,399.1h738.4v104.5H195.7V399.1z"/>
			<path id="point-0-4" class="st16" d="M195.7,504.7h315.6v104.5H195.7V504.7z"/>
			<path id="point-0-5" class="st17" d="M195.7,610.3h123v104.5h-123V610.3z"/>
			<path id="point-0-6" class="st18" d="M195.7,715.8h656.2v104.5H195.7V715.8z"/>
			<path id="point-0-7" class="st19" d="M195.7,821.4h159.8v104.5H195.7V821.4z"/>
			<path id="point-0-8" class="st20" d="M195.7,927h388.6v104.5H195.7V927z"/>
		</g>
	</g>
</g>
<g id="data-point-labels">
	<g>
		<defs>
			<rect id="SVGID_13_" x="51.3" y="22.9" width="2137.3" height="1154.1"/>
		</defs>
		<clipPath id="SVGID_14_">
			<use xlink:href="#SVGID_13_"  style="overflow:visible;"/>
		</clipPath>
		<g transform="translate(0,0)" class="st21">
			<g transform="translate(1371.3740234375, 48.98362350463867)" pointer-events="none">
				<text transform="matrix(0.7066 0 0 1 612.006 101.5928)" class="st22 st23">28.55</text>
				<text transform="matrix(0.7066 0 0 1 612.006 101.5928)" class="st24 st22 st23">28.55</text>
				<text transform="matrix(0.7066 0 0 1 612.006 101.5928)" class="st25 st22 st23">28.55</text>
			</g>
			<g transform="translate(788.5513916015625, 101.41087341308594)" pointer-events="none">
				<text transform="matrix(0.7066 0 0 1 374.3042 154.7441)" class="st22 st23">15.8</text>
				<text transform="matrix(0.7066 0 0 1 374.3042 154.7441)" class="st26 st22 st23">15.8</text>
				<text transform="matrix(0.7066 0 0 1 374.3042 154.7441)" class="st25 st22 st23">15.8</text>
			</g>
			<g transform="translate(949.94677734375, 153.83811950683594)" pointer-events="none">
				<text transform="matrix(0.7066 0 0 1 433.7956 207.895)" class="st22 st23">19.43</text>
				<text transform="matrix(0.7066 0 0 1 433.7956 207.895)" class="st27 st22 st23">19.43</text>
				<text transform="matrix(0.7066 0 0 1 433.7956 207.895)" class="st25 st22 st23">19.43</text>
			</g>
			<g transform="translate(571.0319213867188, 206.26536560058594)" pointer-events="none">
				<text transform="matrix(0.7066 0 0 1 273.5615 261.0468)" class="st22 st23">11.23</text>
				<text transform="matrix(0.7066 0 0 1 273.5615 261.0468)" class="st28 st22 st23">11.23</text>
				<text transform="matrix(0.7066 0 0 1 273.5615 261.0468)" class="st25 st22 st23">11.23</text>
			</g>
			<g transform="translate(286.5791320800781, 258.692626953125)" pointer-events="none">
				<text transform="matrix(0.7066 0 0 1 170.7906 314.1977)" class="st22 st23">4.8</text>
				<text transform="matrix(0.7066 0 0 1 170.7906 314.1977)" class="st29 st22 st23">4.8</text>
				<text transform="matrix(0.7066 0 0 1 170.7906 314.1977)" class="st25 st22 st23">4.8</text>
			</g>
			<g transform="translate(144.8582763671875, 311.119873046875)" pointer-events="none">
				<text transform="matrix(0.7066 0 0 1 102.1018 367.3496)" class="st22 st23">1.87</text>
				<text transform="matrix(0.7066 0 0 1 102.1018 367.3496)" class="st30 st22 st23">1.87</text>
				<text transform="matrix(0.7066 0 0 1 102.1018 367.3496)" class="st25 st22 st23">1.87</text>
			</g>
			<g transform="translate(519.6142578125, 363.547119140625)" pointer-events="none">
				<text transform="matrix(0.7066 0 0 1 260.5778 420.5024)" class="st22 st23">9.98</text>
				<text transform="matrix(0.7066 0 0 1 260.5778 420.5024)" class="st31 st22 st23">9.98</text>
				<text transform="matrix(0.7066 0 0 1 260.5778 420.5024)" class="st25 st22 st23">9.98</text>
			</g>
			<g transform="translate(170.73538208007812, 415.974365234375)" pointer-events="none">
				<text transform="matrix(0.7066 0 0 1 113.045 473.6523)" class="st22 st23">2.43</text>
				<text transform="matrix(0.7066 0 0 1 113.045 473.6523)" class="st32 st22 st23">2.43</text>
				<text transform="matrix(0.7066 0 0 1 113.045 473.6523)" class="st25 st22 st23">2.43</text>
			</g>
			<g transform="translate(331.54315185546875, 468.401611328125)" pointer-events="none">
				<text transform="matrix(0.7066 0 0 1 181.0463 526.8061)" class="st22 st23">5.91</text>
				<text transform="matrix(0.7066 0 0 1 181.0463 526.8061)" class="st33 st22 st23">5.91</text>
				<text transform="matrix(0.7066 0 0 1 181.0463 526.8061)" class="st25 st22 st23">5.91</text>
			</g>
		</g>
	</g>
</g>
<g>
	<g transform="translate(0, 0)">
	</g>
</g>
</svg>
