<?xml version="1.0" encoding="utf-8"?>
<!-- Generator: Adobe Illustrator 25.2.1, SVG Export Plug-In . SVG Version: 6.00 Build 0)  -->
<svg version="1.1" id="Layer_1" xmlns="http://www.w3.org/2000/svg" xmlns:xlink="http://www.w3.org/1999/xlink" x="0px" y="0px"
	 viewBox="0 0 2160 1200" style="enable-background:new 0 0 2160 1200;" xml:space="preserve">
<style type="text/css">
	.st0{fill:none;}
	.st1{fill-opacity:0;}
	.st2{clip-path:url(#SVGID_4_);}
	.st3{fill:none;stroke:#EEEEEE;stroke-width:2;}
	.st4{fill:none;stroke:#EEEEEE;stroke-width:2;stroke-linecap:square;}
	.st5{font-family:'SourceSansPro-Regular';}
	.st6{font-size:26.5448px;}
	.st7{font-family:'SourceSansPro-Bold';}
	.st8{font-size:57.9332px;}
	.st9{font-size:46.3465px;}
	.st10{clip-path:url(#SVGID_8_);fill:#EEEEEE;}
	.st11{clip-path:url(#SVGID_12_);}
	.st12{fill:#0D5F02;}
	.st13{fill:#0ECB01;}
	.st14{fill:#0E00D6;}
	.st15{fill:#7CC56D;}
	.st16{fill:#FF0000;}
	.st17{fill:#E292F2;}
	.st18{fill:#5500FF;}
	.st19{fill:#703610;}
	.st20{fill:#6E6E6E;}
	.st21{clip-path:url(#SVGID_14_);}
	.st22{font-family:'SourceSansPro-Semibold';}
	.st23{font-size:48.2776px;}
	.st24{fill:none;stroke:#0D5F02;stroke-width:7.2;}
	.st25{fill:#FFFFFF;}
	.st26{fill:none;stroke:#0ECB01;stroke-width:7.2;}
	.st27{fill:none;stroke:#0E00D6;stroke-width:7.2;}
	.st28{fill:none;stroke:#7CC56D;stroke-width:7.2;}
	.st29{fill:none;stroke:#FF0000;stroke-width:7.2;}
	.st30{fill:none;stroke:#E292F2;stroke-width:7.2;}
	.st31{fill:none;stroke:#5500FF;stroke-width:7.2;}
	.st32{fill:none;stroke:#703610;stroke-width:7.2;}
	.st33{fill:none;stroke:#6E6E6E;stroke-width:7.2;}
</style>
<g>
	<g transform="translate(0,0)">
		<g>
			<g>
				<rect x="142.7" y="63.1" class="st0" width="1938.7" height="931.9"/>
				<rect x="142.7" y="63.1" class="st1" width="1938.7" height="931.9"/>
			</g>
			<g>
				<defs>
					<rect id="SVGID_1_" x="142.7" y="63.1" width="1938.7" height="931.9"/>
				</defs>
				<clipPath id="SVGID_2_">
					<use xlink:href="#SVGID_1_"  style="overflow:visible;"/>
				</clipPath>
			</g>
			<g>
				<defs>
					<rect id="SVGID_3_" x="139.9" y="59.1" width="1944.2" height="940"/>
				</defs>
				<clipPath id="SVGID_4_">
					<use xlink:href="#SVGID_3_"  style="overflow:visible;"/>
				</clipPath>
				<g class="st2">
					<g>
						<line class="st3" x1="142.7" y1="943.3" x2="2081.3" y2="943.3"/>
						<line class="st3" x1="142.7" y1="839.7" x2="2081.3" y2="839.7"/>
						<line class="st3" x1="142.7" y1="736.2" x2="2081.3" y2="736.2"/>
						<line class="st3" x1="142.7" y1="632.6" x2="2081.3" y2="632.6"/>
						<line class="st3" x1="142.7" y1="529.1" x2="2081.3" y2="529.1"/>
						<line class="st3" x1="142.7" y1="425.5" x2="2081.3" y2="425.5"/>
						<line class="st3" x1="142.7" y1="322" x2="2081.3" y2="322"/>
						<line class="st3" x1="142.7" y1="218.4" x2="2081.3" y2="218.4"/>
						<line class="st3" x1="142.7" y1="114.9" x2="2081.3" y2="114.9"/>
					</g>
				</g>
			</g>
			<g>
				<g>
					<g>
						<g>
							<line class="st4" x1="142.7" y1="995" x2="2081.3" y2="995"/>
						</g>
						<g>
							<g transform="translate(76.67706909179688,476.33524049948124)">
								<line class="st3" x1="66" y1="518.7" x2="66" y2="538"/>
								<text transform="matrix(0.568 -0.8231 0.568 0.8231 68.4361 572.9514)" class="st5 st6">0</text>
							</g>
							<g transform="translate(1151.0257459763457,476.33524049948124)">
								<line class="st3" x1="482.9" y1="518.7" x2="482.9" y2="538"/>
								<text transform="matrix(0.568 -0.8231 0.568 0.8231 477.8865 583.8099)" class="st5 st6">20</text>
							</g>
							<g transform="translate(613.8514075340712,476.33524049948124)">
								<line class="st3" x1="274.4" y1="518.7" x2="274.4" y2="538"/>
								<text transform="matrix(0.568 -0.8231 0.568 0.8231 269.4146 583.8103)" class="st5 st6">10</text>
							</g>
							<g transform="translate(506.41653984561634,476.33524049948124)">
								<line class="st3" x1="232.8" y1="518.7" x2="232.8" y2="538"/>
								<text transform="matrix(0.568 -0.8231 0.568 0.8231 235.2132 572.9518)" class="st5 st6">8</text>
							</g>
							<g transform="translate(398.9816721571615,476.33524049948124)">
								<line class="st3" x1="191.1" y1="518.7" x2="191.1" y2="538"/>
								<text transform="matrix(0.568 -0.8231 0.568 0.8231 193.519 572.9516)" class="st5 st6">6</text>
							</g>
							<g transform="translate(291.5468044687066,476.33524049948124)">
								<line class="st3" x1="149.4" y1="518.7" x2="149.4" y2="538"/>
								<text transform="matrix(0.568 -0.8231 0.568 0.8231 151.8246 572.9516)" class="st5 st6">4</text>
							</g>
							<g transform="translate(184.11193678025177,476.33524049948124)">
								<line class="st3" x1="107.7" y1="518.7" x2="107.7" y2="538"/>
								<text transform="matrix(0.568 -0.8231 0.568 0.8231 110.1304 572.9514)" class="st5 st6">2</text>
							</g>
							<g transform="translate(1473.3303490417102,476.33524049948124)">
								<line class="st3" x1="608" y1="518.7" x2="608" y2="538"/>
								<text transform="matrix(0.568 -0.8231 0.568 0.8231 602.9693 583.8103)" class="st5 st6">26</text>
							</g>
							<g transform="translate(1365.8954813532553,476.33524049948124)">
								<line class="st3" x1="566.3" y1="518.7" x2="566.3" y2="538"/>
								<text transform="matrix(0.568 -0.8231 0.568 0.8231 561.275 583.8101)" class="st5 st6">24</text>
							</g>
							<g transform="translate(1258.4606136648003,476.33524049948124)">
								<line class="st3" x1="524.6" y1="518.7" x2="524.6" y2="538"/>
								<text transform="matrix(0.568 -0.8231 0.568 0.8231 519.5807 583.8101)" class="st5 st6">22</text>
							</g>
							<g transform="translate(1043.5908782878907,476.33524049948124)">
								<line class="st3" x1="441.2" y1="518.7" x2="441.2" y2="538"/>
								<text transform="matrix(0.568 -0.8231 0.568 0.8231 436.1911 583.8099)" class="st5 st6">18</text>
							</g>
							<g transform="translate(936.1560105994358,476.33524049948124)">
								<line class="st3" x1="399.5" y1="518.7" x2="399.5" y2="538"/>
								<text transform="matrix(0.568 -0.8231 0.568 0.8231 394.4967 583.8099)" class="st5 st6">16</text>
							</g>
							<g transform="translate(828.7211429109809,476.33524049948124)">
								<line class="st3" x1="357.8" y1="518.7" x2="357.8" y2="538"/>
								<text transform="matrix(0.568 -0.8231 0.568 0.8231 352.8026 583.8097)" class="st5 st6">14</text>
							</g>
							<g transform="translate(721.2862752225261,476.33524049948124)">
								<line class="st3" x1="316.1" y1="518.7" x2="316.1" y2="538"/>
								<text transform="matrix(0.568 -0.8231 0.568 0.8231 311.1082 583.8097)" class="st5 st6">12</text>
							</g>
						</g>
						<g>
							<text transform="matrix(0.6901 0 0 1 886.6455 1153.8569)" class="st7 st8">% of First Preference Vote</text>
						</g>
					</g>
				</g>
				<g>
					<g>
						<g>
							<line class="st4" x1="142.7" y1="839.7" x2="142.7" y2="943.3"/>
						</g>
						<g>
							<g transform="translate(76.67706909179688,450.5971715828434)">
								<line class="st3" x1="66" y1="492.7" x2="52.7" y2="492.7"/>
								<text transform="matrix(0.6901 0 0 1 -5.2132 507.9648)" class="st7 st9">IND</text>
							</g>
							<g transform="translate(76.67706909179688,399.1210337495677)">
								<line class="st3" x1="66" y1="440.6" x2="52.7" y2="440.6"/>
								<text transform="matrix(0.6901 0 0 1 -40.4564 455.8941)" class="st7 st9">S-PBP</text>
							</g>
							<g transform="translate(76.67706909179688,347.644895916292)">
								<line class="st3" x1="66" y1="388.5" x2="52.7" y2="388.5"/>
								<text transform="matrix(0.6901 0 0 1 7.8986 403.8214)" class="st7 st9">SD</text>
							</g>
							<g transform="translate(76.67706909179688,296.1687580830163)">
								<line class="st3" x1="66" y1="336.5" x2="52.7" y2="336.5"/>
								<text transform="matrix(0.6901 0 0 1 0.8635 351.7507)" class="st7 st9">I4C</text>
							</g>
							<g transform="translate(76.67706909179688,244.69262024974063)">
								<line class="st3" x1="66" y1="284.4" x2="52.7" y2="284.4"/>
								<text transform="matrix(0.6901 0 0 1 -8.0594 299.6785)" class="st7 st9">LAB</text>
							</g>
							<g transform="translate(76.67706909179688,193.21648241646494)">
								<line class="st3" x1="66" y1="232.3" x2="52.7" y2="232.3"/>
								<text transform="matrix(0.6901 0 0 1 6.5241 247.6068)" class="st7 st9">GP</text>
							</g>
							<g transform="translate(76.67706909179688,141.74034458318923)">
								<line class="st3" x1="66" y1="180.2" x2="52.7" y2="180.2"/>
								<text transform="matrix(0.6901 0 0 1 9.1472 195.535)" class="st7 st9">FG</text>
							</g>
							<g transform="translate(76.67706909179688,90.26420674991354)">
								<line class="st3" x1="66" y1="128.2" x2="52.7" y2="128.2"/>
								<text transform="matrix(0.6901 0 0 1 12.4728 143.4633)" class="st7 st9">FF</text>
							</g>
							<g transform="translate(76.67706909179688,38.78806891663784)">
								<line class="st3" x1="66" y1="76.1" x2="52.7" y2="76.1"/>
								<text transform="matrix(0.6901 0 0 1 11.4489 91.3916)" class="st7 st9">SF</text>
							</g>
						</g>
					</g>
				</g>
			</g>
			<g>
				<defs>
					<rect id="SVGID_5_" x="142.7" y="63.1" width="1938.7" height="931.9"/>
				</defs>
				<clipPath id="SVGID_6_">
					<use xlink:href="#SVGID_5_"  style="overflow:visible;"/>
				</clipPath>
			</g>
		</g>
		<g transform="translate(0, 0)">
			<g>
				<defs>
					<rect id="SVGID_7_" x="16.2" y="7.9" width="2085.1" height="1160.1"/>
				</defs>
				<clipPath id="SVGID_8_">
					<use xlink:href="#SVGID_7_"  style="overflow:visible;"/>
				</clipPath>
				<polygon class="st10" points="142.7,36.9 142.7,36.9 142.7,36.9 				"/>
			</g>
			<g>
				<defs>
					<rect id="SVGID_9_" x="16.2" y="7.9" width="2085.1" height="1160.1"/>
				</defs>
				<clipPath id="SVGID_10_">
					<use xlink:href="#SVGID_9_"  style="overflow:visible;"/>
				</clipPath>
			</g>
		</g>
	</g>
</g>
<g id="data-points">
	<g>
		<defs>
			<rect id="SVGID_11_" x="59.5" y="10" width="2085.1" height="1160.1"/>
		</defs>
		<clipPath id="SVGID_12_">
			<use xlink:href="#SVGID_11_"  style="overflow:visible;"/>
		</clipPath>
		<g transform="translate(0,0)" class="st11">
			<path id="point-0-0" class="st12" d="M185.9,65.7h1855.9v102.5H185.9V65.7z"/>
			<path id="point-0-1" class="st13" d="M185.9,169.2h1602.4v102.5H185.9V169.2z"/>
			<path id="point-0-2" class="st14" d="M185.9,272.8h1115.5v102.5H185.9V272.8z"/>
			<path id="point-0-3" class="st15" d="M185.9,376.3h987.2v102.5H185.9V376.3z"/>
			<path id="point-0-4" class="st16" d="M185.9,479.9H716v102.5H185.9V479.9z"/>
			<path id="point-0-5" class="st17" d="M185.9,583.4h297.5v102.5H185.9V583.4z"/>
			<path id="point-0-6" class="st18" d="M185.9,687h259.5v102.5H185.9V687z"/>
			<path id="point-0-7" class="st19" d="M185.9,790.5h136.5V893H185.9V790.5z"/>
			<path id="point-0-8" class="st20" d="M185.9,894.1h671.8v102.5H185.9V894.1z"/>
		</g>
	</g>
</g>
<g id="data-point-labels">
	<g>
		<defs>
			<rect id="SVGID_13_" x="59.5" y="10" width="2085.1" height="1160.1"/>
		</defs>
		<clipPath id="SVGID_14_">
			<use xlink:href="#SVGID_13_"  style="overflow:visible;"/>
		</clipPath>
		<g transform="translate(0,0)" class="st21">
			<g transform="translate(1378.7508544921875, 46.70806884765625)" pointer-events="none">
				<text transform="matrix(0.6901 0 0 1 575.7604 86.1732)" class="st22 st23">24.89</text>
				<text transform="matrix(0.6901 0 0 1 575.7604 86.1732)" class="st24 st22 st23">24.89</text>
				<text transform="matrix(0.6901 0 0 1 575.7604 86.1732)" class="st25 st22 st23">24.89</text>
			</g>
			<g transform="translate(1196.111572265625, 98.1842041015625)" pointer-events="none">
				<text transform="matrix(0.6901 0 0 1 504.8811 138.2449)" class="st22 st23">21.49</text>
				<text transform="matrix(0.6901 0 0 1 504.8811 138.2449)" class="st26 st22 st23">21.49</text>
				<text transform="matrix(0.6901 0 0 1 504.8811 138.2449)" class="st25 st22 st23">21.49</text>
			</g>
			<g transform="translate(845.1726684570312, 149.66033935546875)" pointer-events="none">
				<text transform="matrix(0.6901 0 0 1 368.6852 190.3167)" class="st22 st23">14.96</text>
				<text transform="matrix(0.6901 0 0 1 368.6852 190.3167)" class="st27 st22 st23">14.96</text>
				<text transform="matrix(0.6901 0 0 1 368.6852 190.3167)" class="st25 st22 st23">14.96</text>
			</g>
			<g transform="translate(752.7786865234375, 201.13648986816406)" pointer-events="none">
				<text transform="matrix(0.6901 0 0 1 332.8282 242.3874)" class="st22 st23">13.24</text>
				<text transform="matrix(0.6901 0 0 1 332.8282 242.3874)" class="st28 st22 st23">13.24</text>
				<text transform="matrix(0.6901 0 0 1 332.8282 242.3874)" class="st25 st22 st23">13.24</text>
			</g>
			<g transform="translate(429.9986572265625, 252.6126251220703)" pointer-events="none">
				<text transform="matrix(0.6901 0 0 1 216.1058 294.4601)" class="st22 st23">7.11</text>
				<text transform="matrix(0.6901 0 0 1 216.1058 294.4601)" class="st29 st22 st23">7.11</text>
				<text transform="matrix(0.6901 0 0 1 216.1058 294.4601)" class="st25 st22 st23">7.11</text>
			</g>
			<g transform="translate(262.4002685546875, 304.0887451171875)" pointer-events="none">
				<text transform="matrix(0.6901 0 0 1 151.0631 346.5313)" class="st22 st23">3.99</text>
				<text transform="matrix(0.6901 0 0 1 151.0631 346.5313)" class="st30 st22 st23">3.99</text>
				<text transform="matrix(0.6901 0 0 1 151.0631 346.5313)" class="st25 st22 st23">3.99</text>
			</g>
			<g transform="translate(235.00436401367188, 355.5649108886719)" pointer-events="none">
				<text transform="matrix(0.6901 0 0 1 140.4307 398.602)" class="st22 st23">3.48</text>
				<text transform="matrix(0.6901 0 0 1 140.4307 398.602)" class="st31 st22 st23">3.48</text>
				<text transform="matrix(0.6901 0 0 1 140.4307 398.602)" class="st25 st22 st23">3.48</text>
			</g>
			<g transform="translate(146.37060546875, 407.0410461425781)" pointer-events="none">
				<text transform="matrix(0.6901 0 0 1 106.0322 450.6747)" class="st22 st23">1.83</text>
				<text transform="matrix(0.6901 0 0 1 106.0322 450.6747)" class="st32 st22 st23">1.83</text>
				<text transform="matrix(0.6901 0 0 1 106.0322 450.6747)" class="st25 st22 st23">1.83</text>
			</g>
			<g transform="translate(532.061767578125, 458.5171813964844)" pointer-events="none">
				<text transform="matrix(0.6901 0 0 1 255.7151 502.7474)" class="st22 st23">9.01</text>
				<text transform="matrix(0.6901 0 0 1 255.7151 502.7474)" class="st33 st22 st23">9.01</text>
				<text transform="matrix(0.6901 0 0 1 255.7151 502.7474)" class="st25 st22 st23">9.01</text>
			</g>
		</g>
	</g>
</g>
<g>
	<g transform="translate(0, 0)">
	</g>
</g>
</svg>
