<?xml version="1.0" encoding="utf-8"?>
<!-- Generator: Adobe Illustrator 25.2.1, SVG Export Plug-In . SVG Version: 6.00 Build 0)  -->
<svg version="1.1" id="Layer_1" xmlns="http://www.w3.org/2000/svg" xmlns:xlink="http://www.w3.org/1999/xlink" x="0px" y="0px"
	 viewBox="0 0 1080 600" style="enable-background:new 0 0 1080 600;" xml:space="preserve">
<style type="text/css">
	.st0{fill:none;}
	.st1{fill-opacity:0;}
	.st2{clip-path:url(#SVGID_4_);}
	.st3{fill:none;stroke:#EEEEEE;stroke-width:2;}
	.st4{fill:none;stroke:#EEEEEE;stroke-width:2;stroke-linecap:square;}
	.st5{font-family:'SourceSansPro-Regular';}
	.st6{font-size:13.0892px;}
	.st7{font-family:'SourceSansPro-Bold';}
	.st8{font-size:28.4682px;}
	.st9{font-size:22.7746px;}
	.st10{clip-path:url(#SVGID_8_);fill:#EEEEEE;}
	.st11{clip-path:url(#SVGID_12_);}
	.st12{fill:#0D5F02;}
	.st13{fill:#0ECB01;}
	.st14{fill:#003DF5;}
	.st15{fill:#7CC56D;}
	.st16{fill:#FF0000;}
	.st17{fill:#E292F2;}
	.st18{fill:#5500FF;}
	.st19{fill:#703610;}
	.st20{fill:#6E6E6E;}
	.st21{clip-path:url(#SVGID_14_);}
	.st22{font-family:'SourceSansPro-Semibold';}
	.st23{font-size:23.7235px;}
	.st24{fill:none;stroke:#0D5F02;stroke-width:7.2;}
	.st25{fill:#FFFFFF;}
	.st26{fill:none;stroke:#0ECB01;stroke-width:7.2;}
	.st27{fill:none;stroke:#003DF5;stroke-width:7.2;}
	.st28{fill:none;stroke:#7CC56D;stroke-width:7.2;}
	.st29{fill:none;stroke:#FF0000;stroke-width:7.2;}
	.st30{fill:none;stroke:#E292F2;stroke-width:7.2;}
	.st31{fill:none;stroke:#5500FF;stroke-width:7.2;}
	.st32{fill:none;stroke:#703610;stroke-width:7.2;}
	.st33{fill:none;stroke:#6E6E6E;stroke-width:7.2;}
</style>
<g>
	<g transform="translate(0,0)">
		<g>
			<g>
				<rect x="68.8" y="47.5" class="st0" width="962.8" height="457.9"/>
				<rect x="68.8" y="47.5" class="st1" width="962.8" height="457.9"/>
			</g>
			<g>
				<defs>
					<rect id="SVGID_1_" x="68.8" y="47.5" width="962.8" height="457.9"/>
				</defs>
				<clipPath id="SVGID_2_">
					<use xlink:href="#SVGID_1_"  style="overflow:visible;"/>
				</clipPath>
			</g>
			<g>
				<defs>
					<rect id="SVGID_3_" x="67.4" y="45.5" width="965.6" height="461.9"/>
				</defs>
				<clipPath id="SVGID_4_">
					<use xlink:href="#SVGID_3_"  style="overflow:visible;"/>
				</clipPath>
				<g class="st2">
					<g>
						<line class="st3" x1="68.8" y1="480" x2="1031.6" y2="480"/>
						<line class="st3" x1="68.8" y1="429.1" x2="1031.6" y2="429.1"/>
						<line class="st3" x1="68.8" y1="378.2" x2="1031.6" y2="378.2"/>
						<line class="st3" x1="68.8" y1="327.3" x2="1031.6" y2="327.3"/>
						<line class="st3" x1="68.8" y1="276.5" x2="1031.6" y2="276.5"/>
						<line class="st3" x1="68.8" y1="225.6" x2="1031.6" y2="225.6"/>
						<line class="st3" x1="68.8" y1="174.7" x2="1031.6" y2="174.7"/>
						<line class="st3" x1="68.8" y1="123.8" x2="1031.6" y2="123.8"/>
						<line class="st3" x1="68.8" y1="72.9" x2="1031.6" y2="72.9"/>
					</g>
				</g>
			</g>
			<g>
				<g>
					<g>
						<g>
							<line class="st4" x1="68.8" y1="505.4" x2="1031.6" y2="505.4"/>
						</g>
						<g>
							<g transform="translate(76.67706909179688,476.33524049948124)">
								<line class="st3" x1="-7.9" y1="29.1" x2="-7.9" y2="38.6"/>
								<text transform="matrix(0.572 -0.8202 0.572 0.8202 -6.669 55.7563)" class="st5 st6">0</text>
							</g>
							<g transform="translate(1151.0257459763457,476.33524049948124)">
								<line class="st3" x1="-341.6" y1="29.1" x2="-341.6" y2="38.6"/>
								<text transform="matrix(0.572 -0.8202 0.572 0.8202 -344.0964 61.0921)" class="st5 st6">20</text>
							</g>
							<g transform="translate(613.8514075340712,476.33524049948124)">
								<line class="st3" x1="-174.7" y1="29.1" x2="-174.7" y2="38.6"/>
								<text transform="matrix(0.572 -0.8202 0.572 0.8202 -177.2435 61.0923)" class="st5 st6">10</text>
							</g>
							<g transform="translate(506.41653984561634,476.33524049948124)">
								<line class="st3" x1="-141.4" y1="29.1" x2="-141.4" y2="38.6"/>
								<text transform="matrix(0.572 -0.8202 0.572 0.8202 -140.1522 55.7565)" class="st5 st6">8</text>
							</g>
							<g transform="translate(398.9816721571615,476.33524049948124)">
								<line class="st3" x1="-108" y1="29.1" x2="-108" y2="38.6"/>
								<text transform="matrix(0.572 -0.8202 0.572 0.8202 -106.781 55.7563)" class="st5 st6">6</text>
							</g>
							<g transform="translate(291.5468044687066,476.33524049948124)">
								<line class="st3" x1="-74.6" y1="29.1" x2="-74.6" y2="38.6"/>
								<text transform="matrix(0.572 -0.8202 0.572 0.8202 -73.4103 55.7567)" class="st5 st6">4</text>
							</g>
							<g transform="translate(184.11193678025177,476.33524049948124)">
								<line class="st3" x1="-41.3" y1="29.1" x2="-41.3" y2="38.6"/>
								<text transform="matrix(0.572 -0.8202 0.572 0.8202 -40.0399 55.7561)" class="st5 st6">2</text>
							</g>
							<g transform="translate(1473.3303490417102,476.33524049948124)">
								<line class="st3" x1="-441.7" y1="29.1" x2="-441.7" y2="38.6"/>
								<text transform="matrix(0.572 -0.8202 0.572 0.8202 -444.2091 61.0915)" class="st5 st6">26</text>
							</g>
							<g transform="translate(1365.8954813532553,476.33524049948124)">
								<line class="st3" x1="-408.3" y1="29.1" x2="-408.3" y2="38.6"/>
								<text transform="matrix(0.572 -0.8202 0.572 0.8202 -410.8381 61.0915)" class="st5 st6">24</text>
							</g>
							<g transform="translate(1258.4606136648003,476.33524049948124)">
								<line class="st3" x1="-375" y1="29.1" x2="-375" y2="38.6"/>
								<text transform="matrix(0.572 -0.8202 0.572 0.8202 -377.4673 61.0919)" class="st5 st6">22</text>
							</g>
							<g transform="translate(1043.5908782878907,476.33524049948124)">
								<line class="st3" x1="-308.2" y1="29.1" x2="-308.2" y2="38.6"/>
								<text transform="matrix(0.572 -0.8202 0.572 0.8202 -310.7267 61.0909)" class="st5 st6">18</text>
							</g>
							<g transform="translate(936.1560105994358,476.33524049948124)">
								<line class="st3" x1="-274.9" y1="29.1" x2="-274.9" y2="38.6"/>
								<text transform="matrix(0.572 -0.8202 0.572 0.8202 -277.3555 61.0923)" class="st5 st6">16</text>
							</g>
							<g transform="translate(828.7211429109809,476.33524049948124)">
								<line class="st3" x1="-241.5" y1="29.1" x2="-241.5" y2="38.6"/>
								<text transform="matrix(0.572 -0.8202 0.572 0.8202 -243.9843 61.0921)" class="st5 st6">14</text>
							</g>
							<g transform="translate(721.2862752225261,476.33524049948124)">
								<line class="st3" x1="-208.1" y1="29.1" x2="-208.1" y2="38.6"/>
								<text transform="matrix(0.572 -0.8202 0.572 0.8202 -210.6141 61.0917)" class="st5 st6">12</text>
							</g>
						</g>
						<g>
							<text transform="matrix(0.6974 0 0 1 438.2871 583.4775)" class="st7 st8">% of First Preference Vote</text>
						</g>
					</g>
				</g>
				<g>
					<g>
						<g>
							<line class="st4" x1="68.8" y1="429.1" x2="68.8" y2="480"/>
						</g>
						<g>
							<g transform="translate(76.67706909179688,450.5971715828434)">
								<line class="st3" x1="-7.9" y1="29.4" x2="-14.5" y2="29.4"/>
								<text transform="matrix(0.6974 0 0 1 -43.2454 36.9136)" class="st7 st9">IND</text>
							</g>
							<g transform="translate(76.67706909179688,399.1210337495677)">
								<line class="st3" x1="-7.9" y1="30" x2="-14.5" y2="30"/>
								<text transform="matrix(0.6974 0 0 1 -60.7488 37.5069)" class="st7 st9">S-PBP</text>
							</g>
							<g transform="translate(76.67706909179688,347.644895916292)">
								<line class="st3" x1="-7.9" y1="30.6" x2="-14.5" y2="30.6"/>
								<text transform="matrix(0.6974 0 0 1 -36.7337 38.0992)" class="st7 st9">SD</text>
							</g>
							<g transform="translate(76.67706909179688,296.1687580830163)">
								<line class="st3" x1="-7.9" y1="31.2" x2="-14.5" y2="31.2"/>
								<text transform="matrix(0.6974 0 0 1 -40.2279 38.6926)" class="st7 st9">I4C</text>
							</g>
							<g transform="translate(76.67706909179688,244.69262024974063)">
								<line class="st3" x1="-7.9" y1="31.8" x2="-14.5" y2="31.8"/>
								<text transform="matrix(0.6974 0 0 1 -44.66 39.2839)" class="st7 st9">LAB</text>
							</g>
							<g transform="translate(76.67706909179688,193.21648241646494)">
								<line class="st3" x1="-7.9" y1="32.4" x2="-14.5" y2="32.4"/>
								<text transform="matrix(0.6974 0 0 1 -37.4168 39.8783)" class="st7 st9">GP</text>
							</g>
							<g transform="translate(76.67706909179688,141.74034458318923)">
								<line class="st3" x1="-7.9" y1="33" x2="-14.5" y2="33"/>
								<text transform="matrix(0.6974 0 0 1 -36.1141 40.4706)" class="st7 st9">FG</text>
							</g>
							<g transform="translate(76.67706909179688,90.26420674991354)">
								<line class="st3" x1="-7.9" y1="33.5" x2="-14.5" y2="33.5"/>
								<text transform="matrix(0.6974 0 0 1 -34.4617 41.0644)" class="st7 st9">FF</text>
							</g>
							<g transform="translate(76.67706909179688,38.78806891663784)">
								<line class="st3" x1="-7.9" y1="34.1" x2="-14.5" y2="34.1"/>
								<text transform="matrix(0.6974 0 0 1 -34.9705 41.6568)" class="st7 st9">SF</text>
							</g>
						</g>
					</g>
				</g>
			</g>
			<g>
				<defs>
					<rect id="SVGID_5_" x="68.8" y="47.5" width="962.8" height="457.9"/>
				</defs>
				<clipPath id="SVGID_6_">
					<use xlink:href="#SVGID_5_"  style="overflow:visible;"/>
				</clipPath>
			</g>
		</g>
		<g transform="translate(0, 0)">
			<g>
				<defs>
					<rect id="SVGID_7_" x="6" y="20.4" width="1035.5" height="570.1"/>
				</defs>
				<clipPath id="SVGID_8_">
					<use xlink:href="#SVGID_7_"  style="overflow:visible;"/>
				</clipPath>
				<polygon class="st10" points="68.8,34.6 68.8,34.6 68.8,34.6 				"/>
			</g>
			<g>
				<defs>
					<rect id="SVGID_9_" x="6" y="20.4" width="1035.5" height="570.1"/>
				</defs>
				<clipPath id="SVGID_10_">
					<use xlink:href="#SVGID_9_"  style="overflow:visible;"/>
				</clipPath>
			</g>
		</g>
	</g>
</g>
<g id="data-points">
	<g>
		<defs>
			<rect id="SVGID_11_" x="2" y="20" width="1035.5" height="570.1"/>
		</defs>
		<clipPath id="SVGID_12_">
			<use xlink:href="#SVGID_11_"  style="overflow:visible;"/>
		</clipPath>
		<g transform="translate(0,0)" class="st11">
			<path id="point-0-0" class="st12" d="M64.8,47.4h921.7v50.4H64.8V47.4z"/>
			<path id="point-0-1" class="st13" d="M64.8,98.3h795.8v50.4H64.8V98.3z"/>
			<path id="point-0-2" class="st14" d="M64.8,149.2h554v50.4h-554V149.2z"/>
			<path id="point-0-3" class="st15" d="M64.8,200h490.3v50.4H64.8V200z"/>
			<path id="point-0-4" class="st16" d="M64.8,250.9h263.3v50.4H64.8V250.9z"/>
			<path id="point-0-5" class="st17" d="M64.8,301.8h147.8v50.4H64.8V301.8z"/>
			<path id="point-0-6" class="st18" d="M64.8,352.7h128.9v50.4H64.8V352.7z"/>
			<path id="point-0-7" class="st19" d="M64.8,403.6h67.8v50.4H64.8V403.6z"/>
			<path id="point-0-8" class="st20" d="M64.8,454.5h333.7v50.4H64.8V454.5z"/>
		</g>
	</g>
</g>
<g id="data-point-labels">
	<g>
		<defs>
			<rect id="SVGID_13_" x="2" y="20" width="1035.5" height="570.1"/>
		</defs>
		<clipPath id="SVGID_14_">
			<use xlink:href="#SVGID_13_"  style="overflow:visible;"/>
		</clipPath>
		<g transform="translate(0,0)" class="st21">
			<g transform="translate(1378.7508724746178,46.70806891663784)" pointer-events="none">
				<text transform="matrix(0.6974 0 0 1 -435.58 33.6962)" class="st22 st23">24.89</text>
				<text transform="matrix(0.6974 0 0 1 -435.58 33.6962)" class="st24 st22 st23">24.89</text>
				<text transform="matrix(0.6974 0 0 1 -435.58 33.6962)" class="st25 st22 st23">24.89</text>
			</g>
			<g transform="translate(1196.1115974042443,98.18420674991356)" pointer-events="none">
				<text transform="matrix(0.6974 0 0 1 -378.8499 33.1034)" class="st22 st23">21.49</text>
				<text transform="matrix(0.6974 0 0 1 -378.8499 33.1034)" class="st26 st22 st23">21.49</text>
				<text transform="matrix(0.6974 0 0 1 -378.8499 33.1034)" class="st25 st22 st23">21.49</text>
			</g>
			<g transform="translate(845.1726919014393,149.66034458318924)" pointer-events="none">
				<text transform="matrix(0.6974 0 0 1 -269.8426 32.5096)" class="st22 st23">14.96</text>
				<text transform="matrix(0.6974 0 0 1 -269.8426 32.5096)" class="st27 st22 st23">14.96</text>
				<text transform="matrix(0.6974 0 0 1 -269.8426 32.5096)" class="st25 st22 st23">14.96</text>
			</g>
			<g transform="translate(752.7787056893682,201.13648241646493)" pointer-events="none">
				<text transform="matrix(0.6974 0 0 1 -241.1459 31.9162)" class="st22 st23">13.24</text>
				<text transform="matrix(0.6974 0 0 1 -241.1459 31.9162)" class="st28 st22 st23">13.24</text>
				<text transform="matrix(0.6974 0 0 1 -241.1459 31.9162)" class="st25 st22 st23">13.24</text>
			</g>
			<g transform="translate(429.998648724254,252.61262024974062)" pointer-events="none">
				<text transform="matrix(0.6974 0 0 1 -136.6412 31.3249)" class="st22 st23">7.11</text>
				<text transform="matrix(0.6974 0 0 1 -136.6412 31.3249)" class="st29 st22 st23">7.11</text>
				<text transform="matrix(0.6974 0 0 1 -136.6412 31.3249)" class="st25 st22 st23">7.11</text>
			</g>
			<g transform="translate(262.4002551302644,304.08875808301633)" pointer-events="none">
				<text transform="matrix(0.6974 0 0 1 -84.5839 30.7325)" class="st22 st23">3.99</text>
				<text transform="matrix(0.6974 0 0 1 -84.5839 30.7325)" class="st30 st22 st23">3.99</text>
				<text transform="matrix(0.6974 0 0 1 -84.5839 30.7325)" class="st25 st22 st23">3.99</text>
			</g>
			<g transform="translate(235.0043638697083,355.564895916292)" pointer-events="none">
				<text transform="matrix(0.6974 0 0 1 -76.0737 30.1402)" class="st22 st23">3.48</text>
				<text transform="matrix(0.6974 0 0 1 -76.0737 30.1402)" class="st31 st22 st23">3.48</text>
				<text transform="matrix(0.6974 0 0 1 -76.0737 30.1402)" class="st25 st22 st23">3.48</text>
			</g>
			<g transform="translate(146.3705980267331,407.0410337495677)" pointer-events="none">
				<text transform="matrix(0.6974 0 0 1 -48.5435 29.5449)" class="st22 st23">1.83</text>
				<text transform="matrix(0.6974 0 0 1 -48.5435 29.5449)" class="st32 st22 st23">1.83</text>
				<text transform="matrix(0.6974 0 0 1 -48.5435 29.5449)" class="st25 st22 st23">1.83</text>
			</g>
			<g transform="translate(532.0617730282861,458.5171715828434)" pointer-events="none">
				<text transform="matrix(0.6974 0 0 1 -168.3445 28.9525)" class="st22 st23">9.01</text>
				<text transform="matrix(0.6974 0 0 1 -168.3445 28.9525)" class="st33 st22 st23">9.01</text>
				<text transform="matrix(0.6974 0 0 1 -168.3445 28.9525)" class="st25 st22 st23">9.01</text>
			</g>
		</g>
	</g>
</g>
<g>
	<g transform="translate(0, 0)">
	</g>
</g>
</svg>
