<?xml version="1.0" encoding="utf-8"?>
<!-- Generator: Adobe Illustrator 25.2.1, SVG Export Plug-In . SVG Version: 6.00 Build 0)  -->
<svg version="1.1" id="graphic" xmlns="http://www.w3.org/2000/svg" xmlns:xlink="http://www.w3.org/1999/xlink" x="0px" y="0px"
	 viewBox="0 0 1505 636" style="enable-background:new 0 0 1505 636;" xml:space="preserve">
<style type="text/css">
	.st0{fill:none;}
	.st1{fill-opacity:0;}
	.st2{clip-path:url(#SVGID_4_);}
	.st3{fill:none;stroke:#EEEEEE;stroke-width:2;}
	.st4{fill:none;stroke:#EEEEEE;stroke-width:2;stroke-linecap:square;}
	.st5{font-family:'SourceSansPro-Regular';}
	.st6{font-size:14.5914px;}
	.st7{font-family:'SourceSansPro-Bold';}
	.st8{font-size:29.0056px;}
	.st9{font-size:23.2045px;}
	.st10{clip-path:url(#SVGID_8_);fill:#EEEEEE;}
	.st11{clip-path:url(#SVGID_12_);}
	.st12{fill:#0D5F02;}
	.st13{fill:#0ECB01;}
	.st14{fill:#003DF5;}
	.st15{fill:#7CC56D;}
	.st16{fill:#FF0000;}
	.st17{fill:#E292F2;}
	.st18{fill:#5500FF;}
	.st19{fill:#703610;}
	.st20{fill:#6E6E6E;}
	.st21{clip-path:url(#SVGID_14_);}
	.st22{font-family:'SourceSansPro-Semibold';}
	.st23{font-size:24.1713px;}
	.st24{fill:none;stroke:#0D5F02;stroke-width:7.2;}
	.st25{fill:#FFFFFF;}
	.st26{fill:none;stroke:#0ECB01;stroke-width:7.2;}
	.st27{fill:none;stroke:#003DF5;stroke-width:7.2;}
	.st28{fill:none;stroke:#7CC56D;stroke-width:7.2;}
	.st29{fill:none;stroke:#FF0000;stroke-width:7.2;}
	.st30{fill:none;stroke:#E292F2;stroke-width:7.2;}
	.st31{fill:none;stroke:#5500FF;stroke-width:7.2;}
	.st32{fill:none;stroke:#703610;stroke-width:7.2;}
	.st33{fill:none;stroke:#6E6E6E;stroke-width:7.2;}
</style>
<g>
	<g transform="translate(0,0)">
		<g>
			<g>
				<rect x="138" y="81" class="st0" width="1241.8" height="466.6"/>
				<rect x="138" y="81" class="st1" width="1241.8" height="466.6"/>
			</g>
			<g>
				<defs>
					<rect id="SVGID_1_" x="138" y="81" width="1241.8" height="466.6"/>
				</defs>
				<clipPath id="SVGID_2_">
					<use xlink:href="#SVGID_1_"  style="overflow:visible;"/>
				</clipPath>
			</g>
			<g>
				<defs>
					<rect id="SVGID_3_" x="136.2" y="79" width="1245.3" height="470.6"/>
				</defs>
				<clipPath id="SVGID_4_">
					<use xlink:href="#SVGID_3_"  style="overflow:visible;"/>
				</clipPath>
				<g class="st2">
					<g>
						<line class="st3" x1="138" y1="521.6" x2="1379.8" y2="521.6"/>
						<line class="st3" x1="138" y1="469.8" x2="1379.8" y2="469.8"/>
						<line class="st3" x1="138" y1="418" x2="1379.8" y2="418"/>
						<line class="st3" x1="138" y1="366.1" x2="1379.8" y2="366.1"/>
						<line class="st3" x1="138" y1="314.3" x2="1379.8" y2="314.3"/>
						<line class="st3" x1="138" y1="262.4" x2="1379.8" y2="262.4"/>
						<line class="st3" x1="138" y1="210.6" x2="1379.8" y2="210.6"/>
						<line class="st3" x1="138" y1="158.7" x2="1379.8" y2="158.7"/>
						<line class="st3" x1="138" y1="106.9" x2="1379.8" y2="106.9"/>
					</g>
				</g>
			</g>
			<g>
				<g>
					<g>
						<g>
							<line class="st4" x1="138" y1="547.6" x2="1379.8" y2="547.6"/>
						</g>
						<g>
							<g transform="translate(76.67706909179688,476.33524049948124)">
								<line class="st3" x1="61.3" y1="71.2" x2="61.3" y2="80.9"/>
								<text transform="matrix(0.6618 -0.7497 0.6618 0.7497 62.9099 98.3953)" class="st5 st6">0</text>
							</g>
							<g transform="translate(1151.0257459763457,476.33524049948124)">
								<line class="st3" x1="-57.8" y1="71.2" x2="-57.8" y2="80.9"/>
								<text transform="matrix(0.6618 -0.7497 0.6618 0.7497 -61.0234 103.8322)" class="st5 st6">20</text>
							</g>
							<g transform="translate(613.8514075340712,476.33524049948124)">
								<line class="st3" x1="1.8" y1="71.2" x2="1.8" y2="80.9"/>
								<text transform="matrix(0.6618 -0.7497 0.6618 0.7497 -1.4568 103.8317)" class="st5 st6">10</text>
							</g>
							<g transform="translate(506.41653984561634,476.33524049948124)">
								<line class="st3" x1="13.7" y1="71.2" x2="13.7" y2="80.9"/>
								<text transform="matrix(0.6618 -0.7497 0.6618 0.7497 15.256 98.3959)" class="st5 st6">8</text>
							</g>
							<g transform="translate(398.9816721571615,476.33524049948124)">
								<line class="st3" x1="25.6" y1="71.2" x2="25.6" y2="80.9"/>
								<text transform="matrix(0.6618 -0.7497 0.6618 0.7497 27.1693 98.3952)" class="st5 st6">6</text>
							</g>
							<g transform="translate(291.5468044687066,476.33524049948124)">
								<line class="st3" x1="37.5" y1="71.2" x2="37.5" y2="80.9"/>
								<text transform="matrix(0.6618 -0.7497 0.6618 0.7497 39.0829 98.3956)" class="st5 st6">4</text>
							</g>
							<g transform="translate(184.11193678025177,476.33524049948124)">
								<line class="st3" x1="49.4" y1="71.2" x2="49.4" y2="80.9"/>
								<text transform="matrix(0.6618 -0.7497 0.6618 0.7497 50.9959 98.3953)" class="st5 st6">2</text>
							</g>
							<g transform="translate(1473.3303490417102,476.33524049948124)">
								<line class="st3" x1="-93.5" y1="71.2" x2="-93.5" y2="80.9"/>
								<text transform="matrix(0.6618 -0.7497 0.6618 0.7497 -96.7647 103.8313)" class="st5 st6">26</text>
							</g>
							<g transform="translate(1365.8954813532553,476.33524049948124)">
								<line class="st3" x1="-81.6" y1="71.2" x2="-81.6" y2="80.9"/>
								<text transform="matrix(0.6618 -0.7497 0.6618 0.7497 -84.8507 103.8313)" class="st5 st6">24</text>
							</g>
							<g transform="translate(1258.4606136648003,476.33524049948124)">
								<line class="st3" x1="-69.7" y1="71.2" x2="-69.7" y2="80.9"/>
								<text transform="matrix(0.6618 -0.7497 0.6618 0.7497 -72.937 103.8318)" class="st5 st6">22</text>
							</g>
							<g transform="translate(1043.5908782878907,476.33524049948124)">
								<line class="st3" x1="-45.9" y1="71.2" x2="-45.9" y2="80.9"/>
								<text transform="matrix(0.6618 -0.7497 0.6618 0.7497 -49.111 103.8311)" class="st5 st6">18</text>
							</g>
							<g transform="translate(936.1560105994358,476.33524049948124)">
								<line class="st3" x1="-34" y1="71.2" x2="-34" y2="80.9"/>
								<text transform="matrix(0.6618 -0.7497 0.6618 0.7497 -37.1974 103.8315)" class="st5 st6">16</text>
							</g>
							<g transform="translate(828.7211429109809,476.33524049948124)">
								<line class="st3" x1="-22.1" y1="71.2" x2="-22.1" y2="80.9"/>
								<text transform="matrix(0.6618 -0.7497 0.6618 0.7497 -25.2828 103.8323)" class="st5 st6">14</text>
							</g>
							<g transform="translate(721.2862752225261,476.33524049948124)">
								<line class="st3" x1="-10.1" y1="71.2" x2="-10.1" y2="80.9"/>
								<text transform="matrix(0.6618 -0.7497 0.6618 0.7497 -13.3698 103.832)" class="st5 st6">12</text>
							</g>
						</g>
						<g>
							<text transform="matrix(0.8828 0 0 1 614.5598 627.0862)" class="st7 st8">% of First Preference Vote</text>
						</g>
					</g>
				</g>
				<g>
					<g>
						<g>
							<line class="st4" x1="138" y1="469.8" x2="138" y2="521.6"/>
						</g>
						<g>
							<g transform="translate(76.67706909179688,450.5971715828434)">
								<line class="st3" x1="61.3" y1="71.1" x2="52.8" y2="71.1"/>
								<text transform="matrix(0.8828 0 0 1 15.7363 78.7107)" class="st7 st9">IND</text>
							</g>
							<g transform="translate(76.67706909179688,399.1210337495677)">
								<line class="st3" x1="61.3" y1="70.7" x2="52.8" y2="70.7"/>
								<text transform="matrix(0.8828 0 0 1 -6.8385 78.343)" class="st7 st9">S-PBP</text>
							</g>
							<g transform="translate(76.67706909179688,347.644895916292)">
								<line class="st3" x1="61.3" y1="70.3" x2="52.8" y2="70.3"/>
								<text transform="matrix(0.8828 0 0 1 24.1342 77.9754)" class="st7 st9">SD</text>
							</g>
							<g transform="translate(76.67706909179688,296.1687580830163)">
								<line class="st3" x1="61.3" y1="69.9" x2="52.8" y2="69.9"/>
								<text transform="matrix(0.8828 0 0 1 19.6279 77.6078)" class="st7 st9">I4C</text>
							</g>
							<g transform="translate(76.67706909179688,244.69262024974063)">
								<line class="st3" x1="61.3" y1="69.6" x2="52.8" y2="69.6"/>
								<text transform="matrix(0.8828 0 0 1 13.912 77.2397)" class="st7 st9">LAB</text>
							</g>
							<g transform="translate(76.67706909179688,193.21648241646494)">
								<line class="st3" x1="61.3" y1="69.2" x2="52.8" y2="69.2"/>
								<text transform="matrix(0.8828 0 0 1 23.2538 76.8731)" class="st7 st9">GP</text>
							</g>
							<g transform="translate(76.67706909179688,141.74034458318923)">
								<line class="st3" x1="61.3" y1="68.8" x2="52.8" y2="68.8"/>
								<text transform="matrix(0.8828 0 0 1 24.934 76.5055)" class="st7 st9">FG</text>
							</g>
							<g transform="translate(76.67706909179688,90.26420674991354)">
								<line class="st3" x1="61.3" y1="68.5" x2="52.8" y2="68.5"/>
								<text transform="matrix(0.8828 0 0 1 27.0644 76.1379)" class="st7 st9">FF</text>
							</g>
							<g transform="translate(76.67706909179688,38.78806891663784)">
								<line class="st3" x1="61.3" y1="68.1" x2="52.8" y2="68.1"/>
								<text transform="matrix(0.8828 0 0 1 26.4086 75.7702)" class="st7 st9">SF</text>
							</g>
						</g>
					</g>
				</g>
			</g>
			<g>
				<defs>
					<rect id="SVGID_5_" x="138" y="81" width="1241.8" height="466.6"/>
				</defs>
				<clipPath id="SVGID_6_">
					<use xlink:href="#SVGID_5_"  style="overflow:visible;"/>
				</clipPath>
			</g>
		</g>
		<g transform="translate(0, 0)">
			<g>
				<defs>
					<rect id="SVGID_7_" x="57" y="53.3" width="1335.6" height="580.8"/>
				</defs>
				<clipPath id="SVGID_8_">
					<use xlink:href="#SVGID_7_"  style="overflow:visible;"/>
				</clipPath>
				<polygon class="st10" points="138,67.8 138,67.8 138,67.8 				"/>
			</g>
			<g>
				<defs>
					<rect id="SVGID_9_" x="57" y="53.3" width="1335.6" height="580.8"/>
				</defs>
				<clipPath id="SVGID_10_">
					<use xlink:href="#SVGID_9_"  style="overflow:visible;"/>
				</clipPath>
			</g>
		</g>
	</g>
</g>
<g>
	<g transform="translate(0, 0)">
	</g>
</g>
<g id="areas">
</g>
<g id="lines">
</g>
<g id="data-points">
	<g>
		<defs>
			<rect id="SVGID_11_" x="57" y="38.7" width="1335.6" height="580.8"/>
		</defs>
		<clipPath id="SVGID_12_">
			<use xlink:href="#SVGID_11_"  style="overflow:visible;"/>
		</clipPath>
		<g transform="translate(0,0)" class="st11">
			<path id="point-0-0" class="st12" d="M138,66.6h1188.8v51.3H138V66.6z"/>
			<path id="point-0-1" class="st13" d="M138,118.5h1026.4v51.3H138V118.5z"/>
			<path id="point-0-2" class="st14" d="M138,170.3h714.5v51.3H138V170.3z"/>
			<path id="point-0-3" class="st15" d="M138,222.1h632.4v51.3H138V222.1z"/>
			<path id="point-0-4" class="st16" d="M138,274h339.6v51.3H138V274z"/>
			<path id="point-0-5" class="st17" d="M138,325.8h190.6v51.3H138V325.8z"/>
			<path id="point-0-6" class="st18" d="M138,377.7h166.2V429H138V377.7z"/>
			<path id="point-0-7" class="st19" d="M138,429.5h87.4v51.3H138V429.5z"/>
			<path id="point-0-8" class="st20" d="M138,481.4h430.3v51.3H138V481.4z"/>
		</g>
	</g>
</g>
<g id="lines-secondary">
</g>
<g id="data-point-labels">
	<g>
		<defs>
			<rect id="SVGID_13_" x="57" y="38.7" width="1335.6" height="580.8"/>
		</defs>
		<clipPath id="SVGID_14_">
			<use xlink:href="#SVGID_13_"  style="overflow:visible;"/>
		</clipPath>
		<g transform="translate(0,0)" class="st21">
			<g transform="translate(1378.7508724746178,46.70806891663784)" pointer-events="none">
				<text transform="matrix(0.8828 0 0 1 -107.8781 53.5446)" class="st22 st23">24.89</text>
				<text transform="matrix(0.8828 0 0 1 -107.8781 53.5446)" class="st24 st22 st23">24.89</text>
				<text transform="matrix(0.8828 0 0 1 -107.8781 53.5446)" class="st25 st22 st23">24.89</text>
			</g>
			<g transform="translate(1196.1115974042443,98.18420674991356)" pointer-events="none">
				<text transform="matrix(0.8828 0 0 1 -87.6245 53.9122)" class="st22 st23">21.49</text>
				<text transform="matrix(0.8828 0 0 1 -87.6245 53.9122)" class="st26 st22 st23">21.49</text>
				<text transform="matrix(0.8828 0 0 1 -87.6245 53.9122)" class="st25 st22 st23">21.49</text>
			</g>
			<g transform="translate(845.1726919014393,149.66034458318924)" pointer-events="none">
				<text transform="matrix(0.8828 0 0 1 -48.7081 54.2789)" class="st22 st23">14.96</text>
				<text transform="matrix(0.8828 0 0 1 -48.7081 54.2789)" class="st27 st22 st23">14.96</text>
				<text transform="matrix(0.8828 0 0 1 -48.7081 54.2789)" class="st25 st22 st23">14.96</text>
			</g>
			<g transform="translate(752.7787056893682,201.13648241646493)" pointer-events="none">
				<text transform="matrix(0.8828 0 0 1 -38.4645 54.6465)" class="st22 st23">13.24</text>
				<text transform="matrix(0.8828 0 0 1 -38.4645 54.6465)" class="st28 st22 st23">13.24</text>
				<text transform="matrix(0.8828 0 0 1 -38.4645 54.6465)" class="st25 st22 st23">13.24</text>
			</g>
			<g transform="translate(429.998648724254,252.61262024974062)" pointer-events="none">
				<text transform="matrix(0.8828 0 0 1 2.8024 55.015)" class="st22 st23">7.11</text>
				<text transform="matrix(0.8828 0 0 1 2.8024 55.015)" class="st29 st22 st23">7.11</text>
				<text transform="matrix(0.8828 0 0 1 2.8024 55.015)" class="st25 st22 st23">7.11</text>
			</g>
			<g transform="translate(262.4002551302644,304.08875808301633)" pointer-events="none">
				<text transform="matrix(0.8828 0 0 1 21.3866 55.3832)" class="st22 st23">3.99</text>
				<text transform="matrix(0.8828 0 0 1 21.3866 55.3832)" class="st30 st22 st23">3.99</text>
				<text transform="matrix(0.8828 0 0 1 21.3866 55.3832)" class="st25 st22 st23">3.99</text>
			</g>
			<g transform="translate(235.0043638697083,355.564895916292)" pointer-events="none">
				<text transform="matrix(0.8828 0 0 1 24.4251 55.7507)" class="st22 st23">3.48</text>
				<text transform="matrix(0.8828 0 0 1 24.4251 55.7507)" class="st31 st22 st23">3.48</text>
				<text transform="matrix(0.8828 0 0 1 24.4251 55.7507)" class="st25 st22 st23">3.48</text>
			</g>
			<g transform="translate(146.3705980267331,407.0410337495677)" pointer-events="none">
				<text transform="matrix(0.8828 0 0 1 34.2532 56.1164)" class="st22 st23">1.83</text>
				<text transform="matrix(0.8828 0 0 1 34.2532 56.1164)" class="st32 st22 st23">1.83</text>
				<text transform="matrix(0.8828 0 0 1 34.2532 56.1164)" class="st25 st22 st23">1.83</text>
			</g>
			<g transform="translate(532.0617730282861,458.5171715828434)" pointer-events="none">
				<text transform="matrix(0.8828 0 0 1 -8.5161 56.485)" class="st22 st23">9.01</text>
				<text transform="matrix(0.8828 0 0 1 -8.5161 56.485)" class="st33 st22 st23">9.01</text>
				<text transform="matrix(0.8828 0 0 1 -8.5161 56.485)" class="st25 st22 st23">9.01</text>
			</g>
		</g>
	</g>
</g>
<g id="stack-labels">
</g>
<g>
	<g transform="translate(0, 0)">
	</g>
</g>
</svg>
